<?xml version="1.0" encoding="utf-8"?>
<?xml-stylesheet href="../css/animation.css" type="text/css"?>

<svg width="570" viewBox="0 0 570 518" fill="none" xmlns="http://www.w3.org/2000/svg">
    <g opacity="0.5" class="aiBg">
        <path
            d="M290.58 290.58C344.075 237.086 344.075 150.354 290.58 96.8601C237.086 43.3657 150.355 43.3657 96.8601 96.8601C43.3658 150.354 43.3658 237.086 96.8601 290.58C150.355 344.075 237.086 344.075 290.58 290.58Z"
         />
        <path
            d="M385.601 506.79C468.253 506.79 535.255 439.788 535.255 357.136C535.255 274.485 468.253 207.482 385.601 207.482C302.95 207.482 235.947 274.485 235.947 357.136C235.947 439.788 302.95 506.79 385.601 506.79Z"
         />
        <path
            d="M147.371 460.538C201.749 460.538 245.831 416.456 245.831 362.078C245.831 307.7 201.749 263.618 147.371 263.618C92.9934 263.618 48.9114 307.7 48.9114 362.078C48.9114 416.456 92.9934 460.538 147.371 460.538Z"
         />
        <path
            d="M518.178 109.279C522.814 80.3246 503.1 53.0944 474.146 48.4584C445.192 43.8224 417.962 63.536 413.326 92.49C408.69 121.444 428.404 148.674 457.358 153.31C486.312 157.946 513.542 138.233 518.178 109.279Z"
         />
        <path
            d="M380.406 254.241C422.957 254.241 457.451 219.747 457.451 177.196C457.451 134.646 422.957 100.152 380.406 100.152C337.855 100.152 303.361 134.646 303.361 177.196C303.361 219.747 337.855 254.241 380.406 254.241Z"
         />
        <path
            d="M92.9833 489.83C95.5422 474.507 85.1943 460.01 69.8706 457.451C54.5469 454.892 40.0502 465.24 37.4913 480.564C34.9324 495.887 45.2804 510.384 60.6041 512.943C75.9278 515.502 90.4244 505.154 92.9833 489.83Z"
         />
        <path
            d="M372.676 92.802C389.472 92.802 403.088 79.1859 403.088 62.3896C403.088 45.5934 389.472 31.9773 372.676 31.9773C355.88 31.9773 342.264 45.5934 342.264 62.3896C342.264 79.1859 355.88 92.802 372.676 92.802Z"
         />
        <path
            d="M553.413 428.218C562.574 416.815 560.756 400.145 549.353 390.984C537.95 381.823 521.28 383.641 512.119 395.044C502.958 406.447 504.776 423.117 516.179 432.278C527.582 441.439 544.252 439.621 553.413 428.218Z"
         />
        <path
            d="M89.0599 135.47C97.6448 126.061 96.9767 111.474 87.5678 102.89C78.1588 94.3048 63.572 94.9728 54.9871 104.382C46.4023 113.791 47.0703 128.378 56.4793 136.962C65.8882 145.547 80.4751 144.879 89.0599 135.47Z"
            fill="#C4CDFF" />
    </g>
    <path
        d="M469.257 336.512C469.257 332.758 472.117 329.777 475.719 329.777C479.321 329.777 482.182 332.758 482.182 336.512C482.182 340.266 479.321 343.247 475.719 343.247C472.117 343.247 469.257 340.266 469.257 336.512Z"
        stroke="#6A80F2" stroke-width="2" stroke-miterlimit="10" />
    <path
        d="M21.4279 172.874C21.4279 169.12 24.2884 166.139 27.8905 166.139C31.4927 166.139 34.3531 169.12 34.3531 172.874C34.3531 176.629 31.4927 179.61 27.8905 179.61C24.2884 179.61 21.4279 176.629 21.4279 172.874Z"
        stroke="#6A80F2" stroke-width="2" stroke-miterlimit="10" />
    <path
        d="M481.44 357.711C477.309 357.711 477.309 355.503 473.071 355.503C468.833 355.503 468.939 357.711 464.701 357.711C460.569 357.711 460.569 355.503 456.332 355.503C452.2 355.503 452.2 357.711 447.962 357.711C443.83 357.711 443.83 355.503 439.592 355.503C435.46 355.503 435.46 357.711 431.223 357.711C427.091 357.711 427.091 355.503 422.853 355.503"
        stroke="#6A80F2" stroke-width="2" stroke-miterlimit="10" />
    <path
        d="M70.9042 196.172C66.7723 196.172 66.7724 193.964 62.5346 193.964C58.4027 193.964 58.4027 196.172 54.1649 196.172C50.0331 196.172 50.033 193.964 45.7952 193.964C41.6634 193.964 41.6634 196.172 37.4256 196.172C33.2938 196.172 33.2938 193.964 29.056 193.964C24.9241 193.964 24.9241 196.172 20.6864 196.172C16.5545 196.172 16.5545 193.964 12.3167 193.964"
        stroke="#6A80F2" stroke-width="2" stroke-miterlimit="10" />
    <path
        d="M125.995 402.541C121.863 402.541 121.863 400.332 117.626 400.332C113.388 400.332 113.494 402.541 109.256 402.541C105.124 402.541 105.124 400.332 100.886 400.332C96.7545 400.332 96.7545 402.541 92.5167 402.541C88.3848 402.541 88.3848 400.332 84.147 400.332C80.0152 400.332 80.0152 402.541 75.7774 402.541C71.6455 402.541 71.6455 400.332 67.4078 400.332"
        stroke="#6A80F2" stroke-width="2" stroke-miterlimit="10" />
    <path d="M533.671 200.589L558.568 167.354" stroke="#6A80F2" stroke-width="2" stroke-miterlimit="10" />
    <path
        d="M552.635 190.762C550.646 190.762 549.033 192.443 549.033 194.516C549.033 196.589 550.646 198.27 552.635 198.27C554.625 198.27 556.238 196.589 556.238 194.516C556.238 192.443 554.625 190.762 552.635 190.762Z"
        stroke="#6A80F2" stroke-width="2" stroke-miterlimit="10" />
    <path
        d="M536.002 173.426C536.002 171.328 537.591 169.672 539.604 169.672C541.617 169.672 543.206 171.328 543.206 173.426C543.206 175.524 541.617 177.18 539.604 177.18C537.591 177.18 536.002 175.414 536.002 173.426Z"
        stroke="#6A80F2" stroke-width="2" stroke-miterlimit="10" />
    <path d="M345.407 429.813V416.453" stroke="#6A80F2" stroke-width="2" stroke-miterlimit="10" />
    <path d="M339.051 423.188H351.87" stroke="#6A80F2" stroke-width="2" stroke-miterlimit="10" />
    <path d="M432.388 328.01V314.539" stroke="#6A80F2" stroke-width="2" stroke-miterlimit="10" />
    <path d="M425.925 321.274H438.851" stroke="#6A80F2" stroke-width="2" stroke-miterlimit="10" />
    <path d="M161.17 276.114V262.643" stroke="#6A80F2" stroke-width="2" stroke-miterlimit="10" />
    <path d="M154.707 269.379H167.632" stroke="#6A80F2" stroke-width="2" stroke-miterlimit="10" />
    <path d="M27.8906 151.122V137.651" stroke="#6A80F2" stroke-width="2" stroke-miterlimit="10" />
    <path d="M21.4279 144.386H34.3531" stroke="#6A80F2" stroke-width="2" stroke-miterlimit="10" />
    <g class="track">
    <path
        class="blackTrack"
        d="M466.231 404.054H332.066C327.594 404.054 324.115 400.41 324.115 396.103C324.115 391.631 327.759 388.153 332.066 388.153H466.231C470.703 388.153 474.181 391.797 474.181 396.103C474.181 400.575 470.537 404.054 466.231 404.054Z"
        fill="#262F57" />
    <path
        class="whiteTrack"
        d="M432.935 388.153H332.394C328.585 388.153 325.106 390.637 324.278 394.447C323.284 399.581 327.094 404.054 332.063 404.054H432.935V388.153Z"
        fill="white" width="70px" />
    <path
        class="trumb"
        d="M437.576 409.023C444.711 409.023 450.495 403.238 450.495 396.103C450.495 388.968 444.711 383.184 437.576 383.184C430.441 383.184 424.656 388.968 424.656 396.103C424.656 403.238 430.441 409.023 437.576 409.023Z"
        fill="#FFE100" />
    </g>
    <path d="M439.744 59.7017H251.251V346.417H439.744V59.7017Z" fill="#6A80F2" />
    <path d="M432.622 52.4141H244.128V339.129H432.622V52.4141Z" fill="white" />
    <g class="circle">
    <path
        id="sector-blue"
        d="M362.37 201.742C393.712 188.481 408.369 152.323 395.107 120.981C381.846 89.6399 345.688 74.9831 314.346 88.2445C283.005 101.506 268.348 137.664 281.61 169.005C294.871 200.347 331.029 215.003 362.37 201.742Z"
        fill="#9EAEFF" />
    <path
        d="M348.81 84.3816L338.375 145.17L394.857 169.85C398.169 162.23 399.991 153.949 399.991 145.17C399.991 114.527 377.796 89.185 348.81 84.3816Z"
        fill="#F24693" />
    <path d="M338.375 145.004L376.14 193.867C384.256 187.573 390.716 179.457 394.857 170.015L338.375 145.004Z"
        fill="#4862E0" />
    <path
        d="M338.375 145.004L283.218 172.5C293.322 192.873 314.192 206.787 338.375 206.787C352.62 206.787 365.705 201.983 376.14 193.867L338.375 145.004Z"
        fill="#262F57" />
    <path
        d="M276.759 141.195C276.759 142.52 276.593 143.679 276.593 145.004C276.593 154.942 278.912 164.218 283.053 172.5L338.209 145.004L276.759 141.195Z"
        fill="#DDFF00" />
        </g>
    <g class="point_message">
    <path
        class="point_circle del04"
        d="M276.924 240.576C276.924 243.392 274.605 245.711 271.789 245.711C268.973 245.711 266.655 243.392 266.655 240.576C266.655 237.76 268.973 235.441 271.789 235.441C274.439 235.441 276.924 237.76 276.924 240.576Z"
        fill="#F24693" />
    <path class="message del04" d="M282.556 240.575H364.877" stroke="#9EAEFF" stroke-width="0.5188" stroke-miterlimit="10" />
    </g>
    <g class="point_message">
    <path
        class="point_circle  del07"
        d="M276.924 263.93C276.924 266.746 274.605 269.065 271.789 269.065C268.973 269.065 266.655 266.746 266.655 263.93C266.655 261.114 268.973 258.795 271.789 258.795C274.439 258.63 276.924 260.949 276.924 263.93Z"
        fill="#4862E0" />
    <path class="message  del07" d="M282.556 263.931H364.877" stroke="#9EAEFF" stroke-width="0.5188" stroke-miterlimit="10" />
    </g>
    <g class="point_message">
    <path
        class="point_circle del09"
        d="M276.924 287.119C276.924 289.935 274.605 292.254 271.789 292.254C268.973 292.254 266.655 289.935 266.655 287.119C266.655 284.304 268.973 281.985 271.789 281.985C274.439 281.985 276.924 284.304 276.924 287.119Z"
        fill="#262F57" />
    <path class="message del09" d="M282.556 287.12H364.877" stroke="#9EAEFF" stroke-width="0.5188" stroke-miterlimit="10" />
    </g>
    <g class="point_message">
    <path
        class="point_circle del12"
        d="M276.924 310.474C276.924 313.29 274.605 315.609 271.789 315.609C268.973 315.609 266.655 313.29 266.655 310.474C266.655 307.658 268.973 305.339 271.789 305.339C274.439 305.174 276.924 307.493 276.924 310.474Z"
        fill="#DDFF00" />
    <path class="message del12" d="M282.556 310.474H364.877" stroke="#9EAEFF" stroke-width="0.5188" stroke-miterlimit="10" />
    </g>
    <path d="M386.078 291.757L410.261 275.525L386.078 259.292" stroke="#9EAEFF" stroke-width="3.065"
        stroke-miterlimit="10" stroke-linecap="round" stroke-linejoin="round" />
    <path d="M244.128 26.5747L256.551 38.1692" stroke="#4862E0" stroke-width="1.0217" stroke-miterlimit="10"
        stroke-linecap="round" stroke-linejoin="round" />
    <path d="M256.551 26.5747L244.128 38.1692" stroke="#4862E0" stroke-width="1.0217" stroke-miterlimit="10"
        stroke-linecap="round" stroke-linejoin="round" />
    <path d="M276.924 26.5747H265.495V38.0036H276.924V26.5747Z" stroke="#4862E0" stroke-width="1.0217"
        stroke-miterlimit="10" stroke-linecap="round" stroke-linejoin="round" />
    <path
        d="M297.794 32.372C297.794 35.519 295.144 38.1692 291.997 38.1692C288.85 38.1692 286.2 35.519 286.2 32.372C286.2 29.2249 288.85 26.5747 291.997 26.5747C295.144 26.5747 297.794 29.2249 297.794 32.372Z"
        stroke="#4862E0" stroke-width="1.0217" stroke-miterlimit="10" stroke-linecap="round" stroke-linejoin="round" />
    <path d="M303.923 32.3717H383.097" stroke="#4862E0" stroke-width="1.0217" stroke-miterlimit="10"
        stroke-linecap="round" stroke-linejoin="round" />
    <path d="M150.186 44.3496H93.0415" stroke="#F24693" stroke-width="2.0434" stroke-miterlimit="10" />
    <path d="M150.186 66.8762H97.1823" stroke="#F24693" stroke-width="2.0434" stroke-miterlimit="10" />
    <path d="M150.186 89.4025H104.47" stroke="#F24693" stroke-width="2.0434" stroke-miterlimit="10" />
    <path d="M150.186 111.929H112.089" stroke="#F24693" stroke-width="2.0434" stroke-miterlimit="10" />
    <path d="M290.222 364.708H45.9097V387.4H290.222V364.708Z" fill="#4862E0" />
    <path d="M296.02 399.658H51.707V511.462H296.02V399.658Z" fill="#6A80F2" />
    <path d="M290.222 394.358H45.9098V506.162H290.222V394.358Z" fill="white" />
    <path d="M269.021 411.915H64.2952V483.138H269.021V411.915Z" fill="#F24693" />
    <path
        d="M64.2952 483.139H269.021V418.209L234.9 448.852L200.779 433.117L166.492 459.95L132.537 442.889L98.4161 466.906L64.2952 458.625V483.139Z"
        fill="#FFE100" />
    <path d="M98.4163 466.907V483.139" stroke="#F24693" stroke-width="0.4947" stroke-miterlimit="10" />
    <path d="M132.537 442.889V483.139" stroke="#F24693" stroke-width="0.4947" stroke-miterlimit="10" />
    <path d="M166.658 459.949V483.304" stroke="#F24693" stroke-width="0.4947" stroke-miterlimit="10" />
    <path d="M200.779 433.116V483.138" stroke="#F24693" stroke-width="0.4947" stroke-miterlimit="10" />
    <path d="M234.9 448.852V483.138" stroke="#F24693" stroke-width="0.4947" stroke-miterlimit="10" />
    <path d="M283.597 370.34L271.174 381.769" stroke="white" stroke-width="1.0217" stroke-miterlimit="10"
        stroke-linecap="round" stroke-linejoin="round" />
    <path d="M271.174 370.34L283.597 381.769" stroke="white" stroke-width="1.0217" stroke-miterlimit="10"
        stroke-linecap="round" stroke-linejoin="round" />
    <path d="M250.698 381.768H262.127V370.339H250.698V381.768Z" stroke="white" stroke-width="1.0217"
        stroke-miterlimit="10" stroke-linecap="round" stroke-linejoin="round" />
    <path
        d="M229.931 375.972C229.931 379.119 232.581 381.769 235.728 381.769C238.875 381.769 241.526 379.119 241.526 375.972C241.526 372.825 238.875 370.175 235.728 370.175C232.581 370.175 229.931 372.825 229.931 375.972Z"
        stroke="white" stroke-width="1.0217" stroke-miterlimit="10" stroke-linecap="round" stroke-linejoin="round" />
    <path d="M223.637 375.972H152.248" stroke="white" stroke-width="1.0217" stroke-miterlimit="10"
        stroke-linecap="round" stroke-linejoin="round" />
    <path
        d="M453.565 266.21L472.264 253.897C471.698 251.349 471.516 248.67 471.462 245.947C471.626 224.248 489.022 206.753 510.549 206.747C531.991 206.913 549.279 224.517 549.285 246.302C549.121 268.001 531.726 285.495 510.198 285.502C496.06 285.434 483.812 277.793 477.015 266.411L453.565 266.21Z"
        fill="#FFE100" />
    <path class="message" d="M531.667 236.658H491.147" stroke="#262F57" stroke-width="0.7828" stroke-miterlimit="10" />
    <path class="message del03" d="M531.667 244.585H491.147" stroke="#262F57" stroke-width="0.7828" stroke-miterlimit="10" />
    <path class="message del06" d="M531.667 252.65H491.147" stroke="#262F57" stroke-width="0.7828" stroke-miterlimit="10" />
    <path class="message del09" d="M531.667 260.714H491.147" stroke="#262F57" stroke-width="0.7828" stroke-miterlimit="10" />
    <path d="M186.571 173.815H77.3508V336.693H186.571V173.815Z" fill="#6A80F2" />
    <path d="M191.759 154.422L181.915 162.768" stroke="#4862E0" stroke-miterlimit="10" stroke-linecap="round"
        stroke-linejoin="round" />
    <path d="M181.915 154.422L191.759 162.768" stroke="#4862E0" stroke-miterlimit="10" stroke-linecap="round"
        stroke-linejoin="round" />
    <path d="M165.76 162.75H174.806V154.404H165.76V162.75Z" stroke="#4862E0" stroke-miterlimit="10"
        stroke-linecap="round" stroke-linejoin="round" />
    <path
        d="M149.455 158.594C149.455 160.926 151.45 162.767 153.978 162.767C156.506 162.767 158.501 160.926 158.501 158.594C158.501 156.262 156.506 154.42 153.978 154.42C151.583 154.298 149.455 156.262 149.455 158.594Z"
        stroke="#4862E0" stroke-miterlimit="10" stroke-linecap="round" stroke-linejoin="round" />
    <path d="M191.626 169.396H82.4061V332.274H191.626V169.396Z" fill="white" />
    <path d="M144.666 158.595H82.4061" stroke="#4862E0" stroke-miterlimit="10" stroke-linecap="round"
        stroke-linejoin="round" />
    <path
        d="M137.083 237.395C152.585 237.395 165.153 225.799 165.153 211.496C165.153 197.193 152.585 185.598 137.083 185.598C121.58 185.598 109.013 197.193 109.013 211.496C109.013 225.799 121.58 237.395 137.083 237.395Z"
        fill="#9EAEFF" />
    <path
        d="M138.413 223.157V226.103H136.817V223.279C132.959 223.157 130.032 221.438 128.968 218.738L130.564 217.879C131.362 220.088 133.491 221.561 136.817 221.684V212.11C133.225 211.005 130.165 209.778 130.165 205.85C130.165 202.536 133.092 200.204 136.817 199.959V196.89H138.413V199.836C141.207 200.081 143.601 201.432 144.666 203.886L143.069 204.746C142.271 202.904 140.675 201.8 138.413 201.554V210.76C142.005 211.865 145.198 213.215 145.198 217.02C145.198 220.334 142.404 222.789 138.413 223.157ZM136.817 210.146V201.432C133.89 201.677 132.027 203.395 132.027 205.605C131.894 208.182 134.023 209.164 136.817 210.146ZM143.335 217.02C143.335 214.442 141.34 213.337 138.413 212.478V221.561C141.606 221.07 143.335 219.352 143.335 217.02Z"
        fill="white" />
    <path d="M137.083 268.817V250.037" stroke="#D99400" stroke-miterlimit="10" stroke-linecap="round"
        stroke-linejoin="round" />
    <path d="M143.601 258.875L137.083 249.424L130.564 258.875" stroke="#D99400" stroke-miterlimit="10"
        stroke-linecap="round" stroke-linejoin="round" />
    <path d="M169.144 279.864H105.022V321.596H169.144V279.864Z" fill="#FFE100" />
    <path d="M109.146 286.737H129.5L137.082 299.87H165.552" stroke="#D99400" stroke-width="0.9707"
        stroke-miterlimit="10" stroke-linecap="round" stroke-linejoin="round" />
    <path d="M181.915 185.598V321.718" stroke="#9EAEFF" stroke-miterlimit="10" />
    <path
        d="M181.915 235.677C180.318 235.677 179.121 234.572 179.121 233.099V218.37C179.121 216.897 180.318 215.792 181.915 215.792C183.511 215.792 184.709 216.897 184.709 218.37V233.099C184.709 234.449 183.511 235.677 181.915 235.677Z"
        fill="#4862E0" />
</svg>
