<?xml version="1.0" encoding="utf-8"?>
<?xml-stylesheet href="../css/animation.css" type="text/css"?>

<svg width="571" viewBox="0 0 571 446" fill="none" xmlns="http://www.w3.org/2000/svg">
<g opacity="0.3">
<path d="M201.187 274.284C270.396 274.284 326.502 218.178 326.502 148.968C326.502 79.7585 270.396 23.6528 201.187 23.6528C131.977 23.6528 75.8712 79.7585 75.8712 148.968C75.8712 218.178 131.977 274.284 201.187 274.284Z" fill="#C4CDFF"/>
<path d="M376.727 435.376C452.34 435.376 513.636 374.08 513.636 298.467C513.636 222.854 452.34 161.558 376.727 161.558C301.114 161.558 239.818 222.854 239.818 298.467C239.818 374.08 301.114 435.376 376.727 435.376Z" fill="#C4CDFF"/>
<path d="M158.785 393.063C208.532 393.063 248.86 352.735 248.86 302.988C248.86 253.241 208.532 212.913 158.785 212.913C109.038 212.913 68.7098 253.241 68.7098 302.988C68.7098 352.735 109.038 393.063 158.785 393.063Z" fill="#C4CDFF"/>
<path d="M371.974 204.335C410.901 204.335 442.457 172.779 442.457 133.852C442.457 94.9251 410.901 63.3687 371.974 63.3687C333.047 63.3687 301.491 94.9251 301.491 133.852C301.491 172.779 333.047 204.335 371.974 204.335Z" fill="#C4CDFF"/>
<path d="M545.016 226.933C546.852 215.686 539.223 205.08 527.976 203.244C516.729 201.408 506.123 209.037 504.287 220.284C502.451 231.531 510.08 242.137 521.327 243.973C532.574 245.809 543.18 238.18 545.016 226.933Z" fill="#C4CDFF"/>
<path d="M109.029 419.861C111.37 405.843 101.903 392.58 87.8842 390.24C73.8654 387.899 60.6033 397.365 58.2623 411.384C55.9214 425.403 65.3881 438.665 79.4068 441.006C93.4255 443.347 106.688 433.88 109.029 419.861Z" fill="#C4CDFF"/>
<path d="M464.517 95.6448C479.883 95.6448 492.339 83.1883 492.339 67.8224C492.339 52.4565 479.883 40 464.517 40C449.151 40 436.694 52.4565 436.694 67.8224C436.694 83.1883 449.151 95.6448 464.517 95.6448Z" fill="#C4CDFF"/>
<path d="M530.248 363.496C538.628 353.064 536.965 337.813 526.533 329.433C516.101 321.052 500.851 322.715 492.47 333.147C484.09 343.579 485.753 358.829 496.185 367.21C506.617 375.591 521.867 373.928 530.248 363.496Z" fill="#C4CDFF"/>
<path d="M105.439 95.6792C113.293 87.0715 112.682 73.7268 104.074 65.873C95.4666 58.0193 82.122 58.6304 74.2683 67.2381C66.4146 75.8458 67.0257 89.1905 75.6334 97.0443C84.241 104.898 97.5856 104.287 105.439 95.6792Z" fill="#C4CDFF"/>
</g>
<path d="M94.1946 303.545C94.1946 299.628 91.2097 296.517 87.451 296.517C83.6923 296.517 80.7074 299.628 80.7074 303.545C80.7074 307.462 83.6923 310.573 87.451 310.573C91.2097 310.573 94.1946 307.462 94.1946 303.545Z" stroke="#6A80F2" stroke-width="2" stroke-miterlimit="10"/>
<path d="M315.406 408.622C315.406 404.705 312.422 401.594 308.663 401.594C304.904 401.594 301.919 404.705 301.919 408.622C301.919 412.54 304.904 415.65 308.663 415.65C312.422 415.65 315.406 412.54 315.406 408.622Z" stroke="#6A80F2" stroke-width="2" stroke-miterlimit="10"/>
<path d="M561.492 132.793C561.492 128.876 558.508 125.765 554.749 125.765C550.99 125.765 548.005 128.876 548.005 132.793C548.005 136.71 550.99 139.821 554.749 139.821C558.508 139.821 561.492 136.71 561.492 132.793Z" stroke="#6A80F2" stroke-width="2" stroke-miterlimit="10"/>
<path d="M81.4813 325.666C85.7928 325.666 85.7928 323.362 90.2148 323.362C94.6369 323.362 94.5263 325.666 98.9484 325.666C103.26 325.666 103.26 323.362 107.682 323.362C111.993 323.362 111.993 325.666 116.415 325.666C120.727 325.666 120.727 323.362 125.149 323.362C129.46 323.362 129.46 325.666 133.882 325.666C138.194 325.666 138.194 323.362 142.616 323.362" stroke="#6A80F2" stroke-width="2" stroke-miterlimit="10"/>
<path d="M509.865 157.104C514.177 157.104 514.177 154.799 518.599 154.799C522.91 154.799 522.91 157.104 527.332 157.104C531.644 157.104 531.644 154.799 536.066 154.799C540.378 154.799 540.377 157.104 544.799 157.104C549.111 157.104 549.111 154.799 553.533 154.799C557.845 154.799 557.844 157.104 562.267 157.104C566.578 157.104 566.578 154.799 571 154.799" stroke="#6A80F2" stroke-width="2" stroke-miterlimit="10"/>
<path d="M452.379 372.444C456.691 372.444 456.691 370.14 461.113 370.14C465.535 370.14 465.424 372.444 469.846 372.444C474.158 372.444 474.158 370.14 478.58 370.14C482.891 370.14 482.891 372.444 487.313 372.444C491.625 372.444 491.625 370.14 496.047 370.14C500.358 370.14 500.358 372.444 504.78 372.444C509.092 372.444 509.092 370.14 513.514 370.14" stroke="#6A80F2" stroke-width="2" stroke-miterlimit="10"/>
<path d="M26.9794 161.713L1 127.033" stroke="#6A80F2" stroke-width="2" stroke-miterlimit="10"/>
<path d="M7.19098 151.458C9.26687 151.458 10.9497 153.212 10.9497 155.376C10.9497 157.539 9.26687 159.293 7.19098 159.293C5.11509 159.293 3.43225 157.539 3.43225 155.376C3.43225 153.212 5.11509 151.458 7.19098 151.458Z" stroke="#6A80F2" stroke-width="2" stroke-miterlimit="10"/>
<path d="M24.5476 133.369C24.5476 131.18 22.8893 129.451 20.7889 129.451C18.6884 129.451 17.0302 131.18 17.0302 133.369C17.0302 135.558 18.6884 137.286 20.7889 137.286C22.8893 137.286 24.5476 135.443 24.5476 133.369Z" stroke="#6A80F2" stroke-width="2" stroke-miterlimit="10"/>
<path d="M223.429 400.902V386.961" stroke="#6A80F2" stroke-width="2" stroke-miterlimit="10"/>
<path d="M230.061 393.989H216.684" stroke="#6A80F2" stroke-width="2" stroke-miterlimit="10"/>
<path d="M132.666 294.673V280.616" stroke="#6A80F2" stroke-width="2" stroke-miterlimit="10"/>
<path d="M139.41 287.645H125.922" stroke="#6A80F2" stroke-width="2" stroke-miterlimit="10"/>
<path d="M415.676 240.521V226.465" stroke="#6A80F2" stroke-width="2" stroke-miterlimit="10"/>
<path d="M422.419 233.493H408.932" stroke="#6A80F2" stroke-width="2" stroke-miterlimit="10"/>
<path d="M554.749 110.095V96.0383" stroke="#6A80F2" stroke-width="2" stroke-miterlimit="10"/>
<path d="M561.492 103.066H548.005" stroke="#6A80F2" stroke-width="2" stroke-miterlimit="10"/>
<path d="M272.838 280.375H179.694V344.162H272.838V280.375Z" fill="#FFE100"/>
<path d="M269.085 284.568L226.266 328.932L183.447 284.568" stroke="#4862E0" stroke-width="1.052" stroke-miterlimit="10"/>
<path d="M210.374 312.378L183.447 340.189" stroke="#4862E0" stroke-width="1.052" stroke-miterlimit="10"/>
<path d="M269.085 340.189L242.157 312.378" stroke="#4862E0" stroke-width="1.052" stroke-miterlimit="10"/>
<path d="M521.956 275.078H309.01V397.817H521.956V275.078Z" fill="#6A80F2"/>
<path d="M509.855 275.394L498.068 286.237" stroke="#4862E0" stroke-width="1.0217" stroke-miterlimit="10" stroke-linecap="round" stroke-linejoin="round"/>
<path d="M498.068 275.394L509.855 286.237" stroke="#4862E0" stroke-width="1.0217" stroke-miterlimit="10" stroke-linecap="round" stroke-linejoin="round"/>
<path d="M478.685 286.266H489.528V275.422H478.685V286.266Z" stroke="#4862E0" stroke-width="1.0217" stroke-miterlimit="10" stroke-linecap="round" stroke-linejoin="round"/>
<path d="M458.937 280.893C458.937 283.879 461.451 286.394 464.437 286.394C467.423 286.394 469.937 283.879 469.937 280.893C469.937 277.907 467.423 275.393 464.437 275.393C461.451 275.236 458.937 277.75 458.937 280.893Z" stroke="#4862E0" stroke-width="1.0217" stroke-miterlimit="10" stroke-linecap="round" stroke-linejoin="round"/>
<path d="M516.298 268.792H303.353V391.53H516.298V268.792Z" fill="white"/>
<g class="userPhoto del04">
<path d="M409.904 350.199C422.316 350.199 432.377 340.137 432.377 327.726C432.377 315.314 422.316 305.252 409.904 305.252C397.492 305.252 387.431 315.314 387.431 327.726C387.431 340.137 397.492 350.199 409.904 350.199Z" fill="#FFE100"/>
<path d="M419.176 321.597C419.176 326.783 415.09 330.869 409.904 330.869C404.718 330.869 400.631 326.783 400.631 321.597C400.631 316.411 404.718 312.325 409.904 312.325C414.933 312.325 419.176 316.411 419.176 321.597Z" fill="#4862E0"/>
<path d="M409.904 350.356C416.504 350.356 422.476 347.527 426.562 342.97C423.105 337.469 416.976 333.698 409.904 333.698C402.832 333.698 396.703 337.469 393.245 342.97C397.331 347.37 403.303 350.356 409.904 350.356Z" fill="#4862E0"/>
</g>
<g class="userPhoto">
<path d="M349.399 350.199C361.811 350.199 371.873 340.137 371.873 327.726C371.873 315.314 361.811 305.252 349.399 305.252C336.988 305.252 326.926 315.314 326.926 327.726C326.926 340.137 336.988 350.199 349.399 350.199Z" fill="#FFE100"/>
<path d="M358.671 321.597C358.671 326.783 354.585 330.869 349.399 330.869C344.213 330.869 340.127 326.783 340.127 321.597C340.127 316.411 344.213 312.325 349.399 312.325C354.585 312.325 358.671 316.411 358.671 321.597Z" fill="#262F57"/>
<path d="M349.399 350.356C355.999 350.356 361.971 347.527 366.057 342.97C362.6 337.469 356.471 333.698 349.399 333.698C342.327 333.698 336.198 337.469 332.74 342.97C336.826 347.37 342.798 350.356 349.399 350.356Z" fill="#262F57"/>
</g>
<path d="M309.325 292.366H511.584" stroke="#6A80F2" stroke-width="0.5718" stroke-miterlimit="10"/>
<g class="userPhoto del08">
<path d="M470.409 350.199C482.82 350.199 492.882 340.137 492.882 327.726C492.882 315.314 482.82 305.252 470.409 305.252C457.997 305.252 447.936 315.314 447.936 327.726C447.936 340.137 457.997 350.199 470.409 350.199Z" fill="#FFE100"/>
<path d="M479.681 321.597C479.681 326.783 475.595 330.869 470.409 330.869C465.223 330.869 461.137 326.783 461.137 321.597C461.137 316.411 465.223 312.325 470.409 312.325C475.438 312.325 479.681 316.411 479.681 321.597Z" fill="#F24693"/>
<path d="M470.409 350.356C477.009 350.356 482.981 347.527 487.067 342.97C483.61 337.469 477.481 333.698 470.409 333.698C463.337 333.698 457.208 337.469 453.75 342.97C457.836 347.37 463.808 350.356 470.409 350.356Z" fill="#F24693"/>
</g>
<path d="M368.887 367.957H329.912C328.183 367.957 326.926 366.542 326.926 364.971C326.926 363.242 328.341 361.985 329.912 361.985H368.887C370.615 361.985 371.873 363.399 371.873 364.971C371.873 366.542 370.458 367.957 368.887 367.957Z" fill="#C4CDFF"/>
<path d="M429.391 367.957H390.417C388.688 367.957 387.431 366.542 387.431 364.971C387.431 363.242 388.845 361.985 390.417 361.985H429.391C431.12 361.985 432.377 363.399 432.377 364.971C432.377 366.542 430.963 367.957 429.391 367.957Z" fill="#C4CDFF"/>
<path d="M489.896 367.957H450.921C449.193 367.957 447.936 366.542 447.936 364.971C447.936 363.242 449.35 361.985 450.921 361.985H489.896C491.625 361.985 492.882 363.399 492.882 364.971C492.882 366.542 491.468 367.957 489.896 367.957Z" fill="#C4CDFF"/>
<path d="M508.598 274.606L496.811 285.45" stroke="#F24693" stroke-width="1.0217" stroke-miterlimit="10" stroke-linecap="round" stroke-linejoin="round"/>
<path d="M496.811 274.606L508.598 285.45" stroke="#F24693" stroke-width="1.0217" stroke-miterlimit="10" stroke-linecap="round" stroke-linejoin="round"/>
<path d="M477.366 285.519H488.209V274.675H477.366V285.519Z" stroke="#F24693" stroke-width="1.0217" stroke-miterlimit="10" stroke-linecap="round" stroke-linejoin="round"/>
<path d="M457.679 280.106C457.679 283.092 460.194 285.606 463.18 285.606C466.166 285.606 468.68 283.092 468.68 280.106C468.68 277.12 466.166 274.606 463.18 274.606C460.194 274.448 457.679 276.963 457.679 280.106Z" stroke="#F24693" stroke-width="1.0217" stroke-miterlimit="10" stroke-linecap="round" stroke-linejoin="round"/>
<path d="M451.707 280.106H383.974" stroke="#F24693" stroke-width="1.0217" stroke-miterlimit="10" stroke-linecap="round" stroke-linejoin="round"/>
<path d="M242.214 37.6821H96.4088V249.662H242.214V37.6821Z" fill="#6A80F2"/>
<path d="M237.053 29.7549H91.2473V241.735H237.053V29.7549Z" fill="white"/>
<path d="M237.053 208.555H91.2473V241.735H237.053V208.555Z" fill="#FFE100"/>
<g class="point_message">
<path class="point_circle" d="M132.537 61.644C132.537 66.2522 128.851 69.9389 124.242 69.9389C119.634 69.9389 115.948 66.2522 115.948 61.644C115.948 57.0357 119.634 53.3491 124.242 53.3491C128.851 53.3491 132.537 57.0357 132.537 61.644Z" fill="#F24693"/>
<path class="message" d="M140.464 61.6445H212.168" stroke="#9EAEFF" stroke-width="0.5188" stroke-miterlimit="10"/>
</g>
<g class="point_message">
<path class="point_circle del04" d="M132.537 100.538C132.537 105.146 128.851 108.832 124.242 108.832C119.634 108.832 115.948 105.146 115.948 100.538C115.948 95.9293 119.634 92.2427 124.242 92.2427C128.851 92.2427 132.537 95.9293 132.537 100.538Z" fill="#4862E0"/>
<path class="message del04" d="M140.464 100.538H212.168" stroke="#9EAEFF" stroke-width="0.5188" stroke-miterlimit="10"/>
</g>
<g class="point_message">
<path class="point_circle del06" d="M132.537 139.431C132.537 144.039 128.851 147.726 124.242 147.726C119.634 147.726 115.948 144.039 115.948 139.431C115.948 134.823 119.634 131.136 124.242 131.136C128.851 131.136 132.537 135.007 132.537 139.431Z" fill="#262F57"/>
<path class="message del06" d="M140.464 139.431H212.168" stroke="#9EAEFF" stroke-width="0.5188" stroke-miterlimit="10"/>
</g>
<g class="point_message">
<path class="point_circle del08" d="M132.537 178.51C132.537 183.118 128.851 186.805 124.242 186.805C119.634 186.805 115.948 183.118 115.948 178.51C115.948 173.901 119.634 170.215 124.242 170.215C128.851 170.215 132.537 173.901 132.537 178.51Z" fill="#DDFF00"/>
<path class="message del08" d="M140.464 178.509H212.168" stroke="#9EAEFF" stroke-width="0.5188" stroke-miterlimit="10"/>
</g>
<path d="M90.6945 1L104.519 13.9031" stroke="#4862E0" stroke-width="1.0217" stroke-miterlimit="10" stroke-linecap="round" stroke-linejoin="round"/>
<path d="M104.519 1L90.6945 13.9031" stroke="#4862E0" stroke-width="1.0217" stroke-miterlimit="10" stroke-linecap="round" stroke-linejoin="round"/>
<path d="M127.376 1H114.657V13.7188H127.376V1Z" stroke="#4862E0" stroke-width="1.0217" stroke-miterlimit="10" stroke-linecap="round" stroke-linejoin="round"/>
<path d="M150.417 7.45156C150.417 10.9538 147.468 13.9031 143.966 13.9031C140.464 13.9031 137.514 10.9538 137.514 7.45156C137.514 3.94929 140.464 1 143.966 1C147.652 1 150.417 3.94929 150.417 7.45156Z" stroke="#4862E0" stroke-width="1.0217" stroke-miterlimit="10" stroke-linecap="round" stroke-linejoin="round"/>
<path d="M157.422 7.45117H236.868" stroke="#4862E0" stroke-width="1.0217" stroke-miterlimit="10" stroke-linecap="round" stroke-linejoin="round"/>
<path d="M355.795 116.084H267.694V237.881H355.795V116.084Z" fill="#6A80F2"/>
<path d="M358.499 113.26H270.398V235.057H358.499V113.26Z" fill="white"/>
<path d="M358.499 97.7295H270.398V109.589H358.499V97.7295Z" fill="#FFE100"/>
<g class="circle">
<path d="M314.402 186.583C297.528 186.583 283.823 172.747 283.823 155.71C283.823 138.674 297.621 124.837 314.402 124.837C331.276 124.837 344.981 138.674 344.981 155.71C344.981 172.747 331.276 186.583 314.402 186.583ZM314.402 141.78C306.85 141.78 300.604 147.992 300.604 155.71C300.604 163.428 306.757 169.641 314.402 169.641C322.047 169.641 328.2 163.428 328.2 155.71C328.2 147.992 322.047 141.78 314.402 141.78Z" fill="#9EAEFF"/>
<path d="M343.956 163.617C344.608 161.075 344.981 158.44 344.981 155.71C344.981 138.674 331.276 124.837 314.402 124.837V141.78C321.954 141.78 328.2 147.992 328.2 155.71C328.2 156.934 328.013 158.157 327.734 159.287L343.956 163.617Z" fill="#F24693"/>
<path d="M300.697 155.71C300.697 154.204 300.977 152.792 301.35 151.475L285.408 146.204C284.476 149.216 283.916 152.416 283.916 155.71C283.916 157.875 284.103 160.04 284.569 162.11L300.977 158.628C300.791 157.687 300.697 156.651 300.697 155.71Z" fill="#DDFF00"/>
<path d="M327.734 159.193C327.081 161.64 325.869 163.805 324.191 165.499L336.031 177.453C339.854 173.594 342.65 168.793 344.049 163.428L327.734 159.193Z" fill="#4862E0"/>
<path d="M314.402 186.583C322.886 186.583 330.531 183.101 336.031 177.453L324.191 165.5C321.674 168.041 318.224 169.641 314.402 169.641C311.885 169.641 309.554 168.982 307.503 167.759L299.112 182.442C303.681 185.077 308.901 186.583 314.402 186.583Z" fill="#262F57"/>
</g>
<path d="M289.23 201.455C289.23 202.772 288.205 203.808 286.9 203.808C285.594 203.808 284.569 202.772 284.569 201.455C284.569 200.137 285.594 199.102 286.9 199.102C288.205 199.102 289.23 200.137 289.23 201.455Z" fill="#262F57"/>
<path d="M291.747 201.455H344.328" stroke="#9EAEFF" stroke-miterlimit="10"/>
<path d="M289.23 211.809C289.23 213.126 288.205 214.162 286.9 214.162C285.594 214.162 284.569 213.126 284.569 211.809C284.569 210.491 285.594 209.456 286.9 209.456C288.205 209.362 289.23 210.491 289.23 211.809Z" fill="#F26AF2"/>
<path d="M291.747 211.809H344.328" stroke="#9EAEFF" stroke-miterlimit="10"/>
<path d="M289.23 222.068C289.23 223.386 288.205 224.421 286.9 224.421C285.594 224.421 284.569 223.386 284.569 222.068C284.569 220.751 285.594 219.715 286.9 219.715C288.205 219.715 289.23 220.751 289.23 222.068Z" fill="#4862E0"/>
<path d="M291.747 222.068H344.328" stroke="#9EAEFF" stroke-miterlimit="10"/>
<path d="M354.211 100.741L347.964 106.577" stroke="#4862E0" stroke-miterlimit="10" stroke-linecap="round" stroke-linejoin="round"/>
<path d="M347.964 100.741L354.211 106.577" stroke="#4862E0" stroke-miterlimit="10" stroke-linecap="round" stroke-linejoin="round"/>
<path d="M337.693 106.65H343.474V100.815H337.693V106.65Z" stroke="#4862E0" stroke-miterlimit="10" stroke-linecap="round" stroke-linejoin="round"/>
<path d="M327.267 103.659C327.267 105.259 328.573 106.577 330.158 106.577C331.742 106.577 333.048 105.259 333.048 103.659C333.048 102.059 331.742 100.741 330.158 100.741C328.573 100.741 327.267 102.059 327.267 103.659Z" stroke="#4862E0" stroke-miterlimit="10" stroke-linecap="round" stroke-linejoin="round"/>
<path d="M380.441 203.149L395.305 191.978C394.704 189.901 394.415 187.695 394.229 185.446C393.244 167.492 406.759 152.105 424.603 150.962C442.386 149.967 457.626 163.613 458.758 181.629C459.743 199.583 446.228 214.97 428.384 216.112C416.661 216.802 406.113 211.13 399.89 202.076L380.441 203.149Z" fill="#FFE100"/>
<path class="message" d="M444.375 176.219H410.719" stroke="#262F57" stroke-width="0.7828" stroke-miterlimit="10"/>
<path class="message del03" d="M444.375 182.789H410.719" stroke="#262F57" stroke-width="0.7828" stroke-miterlimit="10"/>
<path class="message del06" d="M444.375 189.471H410.719" stroke="#262F57" stroke-width="0.7828" stroke-miterlimit="10"/>
<path class="message del09" d="M444.375 196.154H410.719" stroke="#262F57" stroke-width="0.7828" stroke-miterlimit="10"/>
</svg>
