<?xml version="1.0" encoding="utf-8"?>
<?xml-stylesheet href="../css/animation.css" type="text/css"?>

<svg width="671"  viewBox="0 0 671 371" fill="none" xmlns="http://www.w3.org/2000/svg">
    <path d="M377.527 334.839H320.684L302.451 370.768H359.295L377.527 334.839Z" fill="#6A80F2" />
    <path d="M376.133 332.694H319.29L301.057 368.623H357.9L376.133 332.694Z" fill="#FFE100" />
    <path
        d="M463.972 194.232C498.801 194.232 527.036 165.998 527.036 131.169C527.036 96.3394 498.801 68.1047 463.972 68.1047C429.143 68.1047 400.908 96.3394 400.908 131.169C400.908 165.998 429.143 194.232 463.972 194.232Z"
        fill="#C4CDFF" />
    <path d="M35.3952 240.994V314.89H109.291C109.291 274.028 76.258 240.994 35.3952 240.994Z" fill="#C4CDFF" />
    <path d="M348.569 100.173H199.597V243.461H348.569V100.173Z" fill="#C4CDFF" />
    <path
        d="M162.703 314.247H196.272C190.052 306.525 186.405 296.765 186.405 286.147C186.405 261.265 206.568 240.994 231.558 240.994C256.44 240.994 276.711 261.158 276.711 286.147C276.711 296.765 273.064 306.525 266.844 314.247H300.413C302.13 310.172 303.417 305.881 304.382 301.484H334.198V270.703H304.275C302.344 261.587 298.697 253.114 293.871 245.606L315 224.478L293.228 202.706L272.099 223.727C264.591 218.793 256.119 215.147 247.002 213.323V183.508H216.221V213.323C207.105 215.254 198.632 218.901 191.124 223.727L169.996 202.598L148.224 224.37L169.352 245.499C164.419 253.007 160.772 261.479 158.949 270.596H129.133V301.377H158.949C159.7 305.881 161.094 310.172 162.703 314.247Z"
        fill="#6A80F2" />
    <path
        d="M504.406 314.247H521.888C518.67 310.171 516.74 305.13 516.74 299.553C516.74 286.576 527.251 276.065 540.228 276.065C553.205 276.065 563.716 286.576 563.716 299.553C563.716 305.13 561.785 310.171 558.568 314.247H576.05C576.908 312.102 577.659 309.85 578.088 307.597H593.639V291.51H578.088C577.122 286.79 575.192 282.286 572.618 278.425L583.665 267.378L572.403 256.009L561.464 267.056C557.495 264.482 553.098 262.552 548.379 261.586V246.035H532.291V261.586C527.572 262.552 523.068 264.482 519.207 267.056L508.053 256.009L496.684 267.378L507.731 278.425C505.157 282.393 503.226 286.79 502.261 291.51H486.709V307.597H502.261C502.797 309.85 503.441 312.102 504.406 314.247Z"
        fill="#6A80F2" />
    <path d="M621.096 208.711H528.645V272.097H621.096V208.711Z" fill="#FFE100" />
    <path d="M617.342 212.787L574.87 256.76L532.398 212.787" stroke="#4862E0" stroke-width="1.0748"
        stroke-miterlimit="10" />
    <path d="M559.211 240.35L532.398 268.021" stroke="#4862E0" stroke-width="1.0748" stroke-miterlimit="10" />
    <path d="M617.342 268.021L590.636 240.35" stroke="#4862E0" stroke-width="1.0748" stroke-miterlimit="10" />
    <path
        d="M50.7322 280.784C54.3454 280.784 57.2745 277.855 57.2745 274.242C57.2745 270.629 54.3454 267.7 50.7322 267.7C47.1189 267.7 44.1898 270.629 44.1898 274.242C44.1898 277.855 47.1189 280.784 50.7322 280.784Z"
        stroke="#6A80F2" stroke-width="2" stroke-miterlimit="10" />
    <path
        d="M623.67 296.228C623.67 299.875 620.666 302.878 617.02 302.878C613.373 302.878 610.37 299.875 610.37 296.228C610.37 292.582 613.373 289.579 617.02 289.579C620.666 289.471 623.67 292.475 623.67 296.228Z"
        stroke="#6A80F2" stroke-width="2.0434" stroke-miterlimit="10" />
    <path
        d="M423.538 135.244C427.828 135.244 427.828 137.389 432.118 137.389C436.409 137.389 436.409 135.244 440.699 135.244C444.989 135.244 444.989 137.389 449.279 137.389C453.569 137.389 453.569 135.244 457.859 135.244C462.149 135.244 462.149 137.389 466.439 137.389C470.729 137.389 470.729 135.244 475.126 135.244C479.416 135.244 479.416 137.389 483.706 137.389"
        stroke="#6A80F2" stroke-width="2.0434" stroke-miterlimit="10" />
    <path
        d="M143.397 78.8297C147.687 78.8297 147.687 80.9747 151.978 80.9747C156.268 80.9747 156.268 78.8297 160.558 78.8297C164.848 78.8297 164.848 80.9747 169.138 80.9747C173.428 80.9747 173.428 78.8297 177.718 78.8297C182.008 78.8297 182.008 80.9747 186.298 80.9747C190.588 80.9747 190.588 78.8297 194.985 78.8297C199.275 78.8297 199.275 80.9747 203.673 80.9747"
        stroke="#6A80F2" stroke-width="2.0434" stroke-miterlimit="10" />
    <path
        d="M45.1551 247.751C49.4451 247.751 49.4451 249.896 53.7352 249.896C58.0253 249.896 58.0253 247.751 62.3153 247.751C66.6054 247.751 66.6054 249.896 70.8954 249.896C75.1855 249.896 75.1855 247.751 79.4756 247.751C83.7656 247.751 83.7656 249.896 88.0557 249.896C92.3457 249.896 92.3457 247.751 96.6358 247.751C100.926 247.751 100.926 249.896 105.323 249.896"
        stroke="#6A80F2" stroke-width="2.0434" stroke-miterlimit="10" />
    <path d="M643.511 56.9506L617.771 89.984" stroke="#6A80F2" stroke-width="2.0434" stroke-miterlimit="10" />
    <path
        d="M623.884 66.603C625.898 66.603 627.531 64.9704 627.531 62.9565C627.531 60.9426 625.898 59.3099 623.884 59.3099C621.87 59.3099 620.238 60.9426 620.238 62.9565C620.238 64.9704 621.87 66.603 623.884 66.603Z"
        stroke="#6A80F2" stroke-width="2.0434" stroke-miterlimit="10" />
    <path
        d="M641.044 83.9779C641.044 86.0156 639.436 87.6244 637.398 87.6244C635.36 87.6244 633.751 86.0156 633.751 83.9779C633.751 81.9401 635.36 80.3313 637.398 80.3313C639.436 80.3313 641.044 81.9401 641.044 83.9779Z"
        stroke="#6A80F2" stroke-width="2.0434" stroke-miterlimit="10" />
    <path d="M187.907 97.4913V110.791" stroke="#6A80F2" stroke-width="2.0434" stroke-miterlimit="10" />
    <path d="M194.664 104.141H181.257" stroke="#6A80F2" stroke-width="2.0434" stroke-miterlimit="10" />
    <path d="M344.601 19.5197V32.9261" stroke="#6A80F2" stroke-width="2.0434" stroke-miterlimit="10" />
    <path d="M351.251 26.1692H337.952" stroke="#6A80F2" stroke-width="2.0434" stroke-miterlimit="10" />
    <path d="M639.221 211.822V225.121" stroke="#6A80F2" stroke-width="2.0434" stroke-miterlimit="10" />
    <path d="M645.87 218.471H632.571" stroke="#6A80F2" stroke-width="2.0434" stroke-miterlimit="10" />
    <path
        d="M484.242 123.768H397.369C394.473 123.768 392.221 121.409 392.221 118.62C392.221 115.725 394.58 113.472 397.369 113.472H484.242C487.138 113.472 489.391 115.832 489.391 118.62C489.391 121.516 487.138 123.768 484.242 123.768Z"
        fill="#6A80F2" />
    <path
        d="M473.913 120.522C474.971 116.025 472.183 111.522 467.686 110.464C463.188 109.406 458.685 112.194 457.627 116.691C456.569 121.188 459.357 125.692 463.854 126.75C468.352 127.808 472.855 125.02 473.913 120.522Z"
        fill="#6A80F2" />
    <path d="M0.75293 314.891H670.753" stroke="#262F57" stroke-width="1.3436" stroke-miterlimit="10" />
    <path
        d="M75.9362 278.854C90.5224 265.447 113.26 266.413 126.666 281.106C135.139 290.33 137.82 302.878 135.032 314.247L158.198 327.332L129.24 326.474C127.846 328.404 126.237 330.227 124.414 331.836C109.828 345.243 87.0904 344.277 73.6839 329.584C60.2775 314.998 61.2428 292.26 75.9362 278.854Z"
        fill="#FFE100" />
        <g class="phone">
    <path
        d="M96.9574 296.872L94.1689 298.803C93.3109 299.446 92.7746 300.411 92.9891 301.484C93.5254 304.273 95.0269 307.49 97.3864 310.279C99.746 313.174 102.642 315.105 105.323 316.177C106.288 316.499 107.468 316.285 108.219 315.427L110.578 312.96L118.515 322.398C112.187 327.761 100.389 324.221 92.2384 314.569C84.0873 304.916 82.5857 292.689 88.9136 287.327L96.9574 296.872Z"
        fill="#4862E0" />
        </g>
    <path
        d="M392.864 68.8556C394.345 68.8556 395.545 68.1353 395.545 67.2468C395.545 66.3583 394.345 65.6381 392.864 65.6381C391.383 65.6381 390.183 66.3583 390.183 67.2468C390.183 68.1353 391.383 68.8556 392.864 68.8556Z"
        fill="#354FCC" />
    <path
        d="M397.262 67.2467H388.36C387.931 67.2467 387.502 66.9249 387.502 66.3886V62.5276H398.012V66.3886C398.12 66.8176 397.798 67.2467 397.262 67.2467Z"
        fill="#262F57" />
    <path
        class="lampBg"
        d="M407.772 39.6829C407.772 30.8883 400.157 23.9169 391.148 24.8822C384.069 25.633 378.492 31.5318 377.956 38.6104C377.634 42.9004 379.136 46.7615 381.817 49.6573C383.855 51.9096 385.356 54.5909 385.893 57.5939L386.429 60.4897C386.643 61.7767 387.823 62.742 389.218 62.742H396.618C398.012 62.742 399.085 61.7767 399.406 60.4897L399.728 57.9156C400.264 54.9126 401.551 52.1241 403.589 49.979C406.163 47.2978 407.772 43.6512 407.772 39.6829Z"
         />
    <path
        d="M387.609 46.0108C387.609 46.0108 387.394 36.6799 388.682 36.6799C390.076 36.6799 390.827 42.5788 389.969 42.3643C389.11 42.1498 389.325 36.6799 391.041 36.6799C392.757 36.6799 393.615 42.3643 392.543 42.3643C391.47 42.3643 392.543 36.6799 394.151 36.6799C395.76 36.6799 396.082 42.3643 395.438 42.3643C394.795 42.3643 395.117 36.6799 396.833 36.6799C398.656 36.6799 397.691 46.0108 397.691 46.0108"
        stroke="white" stroke-width="1.0217" stroke-miterlimit="10" stroke-linecap="round" stroke-linejoin="round" />
    <path d="M392.864 12.7629V20.6995" stroke="white" stroke-width="1.0217" stroke-miterlimit="10"
        stroke-linecap="round" stroke-linejoin="round" />
    <path d="M379.35 16.4094L383.319 23.3808" stroke="white" stroke-width="1.0217" stroke-miterlimit="10"
        stroke-linecap="round" stroke-linejoin="round" />
    <path d="M369.483 26.3838L376.455 30.3521" stroke="white" stroke-width="1.0217" stroke-miterlimit="10"
        stroke-linecap="round" stroke-linejoin="round" />
    <path d="M409.167 49.3357L416.031 53.304" stroke="white" stroke-width="1.0217" stroke-miterlimit="10"
        stroke-linecap="round" stroke-linejoin="round" />
    <path d="M365.944 39.8976H373.988" stroke="white" stroke-width="1.0217" stroke-miterlimit="10"
        stroke-linecap="round" stroke-linejoin="round" />
    <path d="M411.74 39.8976H419.677" stroke="white" stroke-width="1.0217" stroke-miterlimit="10" stroke-linecap="round"
        stroke-linejoin="round" />
    <path d="M369.698 53.4112L376.562 49.4429" stroke="white" stroke-width="1.0217" stroke-miterlimit="10"
        stroke-linecap="round" stroke-linejoin="round" />
    <path d="M409.381 30.5667L416.245 26.5984" stroke="white" stroke-width="1.0217" stroke-miterlimit="10"
        stroke-linecap="round" stroke-linejoin="round" />
    <path d="M402.517 23.5952L406.485 16.7311" stroke="white" stroke-width="1.0217" stroke-miterlimit="10"
        stroke-linecap="round" stroke-linejoin="round" />
    <path
        d="M482.526 121.409H395.653C392.757 121.409 390.505 119.049 390.505 116.261C390.505 113.365 392.864 111.113 395.653 111.113H482.526C485.422 111.113 487.674 113.472 487.674 116.261C487.674 119.156 485.315 121.409 482.526 121.409Z"
        fill="#262F57" />
    <path
        d="M460.969 111.113H395.867C393.4 111.113 391.148 112.721 390.612 115.188C389.968 118.513 392.435 121.409 395.652 121.409H460.969V111.113Z"
        fill="white" />
    <path
        d="M463.972 124.626C468.592 124.626 472.338 120.881 472.338 116.261C472.338 111.64 468.592 107.895 463.972 107.895C459.352 107.895 455.606 111.64 455.606 116.261C455.606 120.881 459.352 124.626 463.972 124.626Z"
        fill="#FFE100" />
    <path d="M168.923 48.4775H46.8712V234.13H168.923V48.4775Z" fill="#6A80F2" />
    <path d="M164.311 43.7585H42.2593V229.411H164.311V43.7585Z" fill="white" />
    <g class="circle">
    <path
        d="M118.823 140.451C139.117 131.864 148.607 108.451 140.02 88.1569C131.433 67.8629 108.021 58.3724 87.7265 66.9594C67.4325 75.5463 57.942 98.959 66.529 119.253C75.1159 139.547 98.5286 149.038 118.823 140.451Z"
        fill="#9EAEFF" />
    <path
        d="M110.042 64.4581L103.285 103.819L139.858 119.8C142.003 114.866 143.183 109.504 143.183 103.819C143.183 83.9779 128.811 67.5684 110.042 64.4581Z"
        fill="#F24693" />
    <path d="M103.285 103.712L127.739 135.351C132.994 131.276 137.177 126.02 139.858 119.907L103.285 103.712Z"
        fill="#4862E0" />
    <path
        d="M103.285 103.712L67.5706 121.516C74.113 134.708 87.6266 143.717 103.285 143.717C112.509 143.717 120.982 140.607 127.739 135.351L103.285 103.712Z"
        fill="#262F57" />
    <path
        d="M63.3878 101.245C63.3878 102.103 63.2806 102.854 63.2806 103.712C63.2806 110.147 64.7821 116.153 67.4634 121.516L103.178 103.712L63.3878 101.245Z"
        fill="#DDFF00" />
    </g>
    <path
        d="M63.495 165.596C63.495 167.42 61.9935 168.921 60.1702 168.921C58.3469 168.921 56.8454 167.42 56.8454 165.596C56.8454 163.773 58.3469 162.271 60.1702 162.271C61.8862 162.271 63.495 163.773 63.495 165.596Z"
        fill="#F24693" />
    <path d="M67.1416 165.596H120.446" stroke="#9EAEFF" stroke-width="0.5188" stroke-miterlimit="10" />
    <path
        d="M63.495 180.719C63.495 182.542 61.9935 184.043 60.1702 184.043C58.3469 184.043 56.8454 182.542 56.8454 180.719C56.8454 178.895 58.3469 177.394 60.1702 177.394C61.8862 177.287 63.495 178.788 63.495 180.719Z"
        fill="#4862E0" />
    <path d="M67.1416 180.719H120.446" stroke="#9EAEFF" stroke-width="0.5188" stroke-miterlimit="10" />
    <path
        d="M63.495 195.734C63.495 197.557 61.9935 199.059 60.1702 199.059C58.3469 199.059 56.8454 197.557 56.8454 195.734C56.8454 193.91 58.3469 192.409 60.1702 192.409C61.8862 192.409 63.495 193.91 63.495 195.734Z"
        fill="#262F57" />
    <path d="M67.1416 195.734H120.446" stroke="#9EAEFF" stroke-width="0.5188" stroke-miterlimit="10" />
    <path
        d="M63.495 210.856C63.495 212.68 61.9935 214.181 60.1702 214.181C58.3469 214.181 56.8454 212.68 56.8454 210.856C56.8454 209.033 58.3469 207.532 60.1702 207.532C61.8862 207.424 63.495 208.926 63.495 210.856Z"
        fill="#DDFF00" />
    <path d="M67.1416 210.856H120.446" stroke="#9EAEFF" stroke-width="0.5188" stroke-miterlimit="10" />
    <path d="M134.174 198.737L149.832 188.226L134.174 177.716" stroke="#9EAEFF" stroke-width="3.065"
        stroke-miterlimit="10" stroke-linecap="round" stroke-linejoin="round" />
    <path d="M42.2592 27.0273L50.3031 34.5349" stroke="#4862E0" stroke-width="1.0217" stroke-miterlimit="10"
        stroke-linecap="round" stroke-linejoin="round" />
    <path d="M50.3031 27.0273L42.2592 34.5349" stroke="#4862E0" stroke-width="1.0217" stroke-miterlimit="10"
        stroke-linecap="round" stroke-linejoin="round" />
    <path d="M63.4951 27.0273H56.0948V34.4277H63.4951V27.0273Z" stroke="#4862E0" stroke-width="1.0217"
        stroke-miterlimit="10" stroke-linecap="round" stroke-linejoin="round" />
    <path
        d="M77.0088 30.7811C77.0088 32.8189 75.2927 34.5349 73.255 34.5349C71.2172 34.5349 69.5012 32.8189 69.5012 30.7811C69.5012 28.7434 71.2172 27.0273 73.255 27.0273C75.2927 27.0273 77.0088 28.7434 77.0088 30.7811Z"
        stroke="#4862E0" stroke-width="1.0217" stroke-miterlimit="10" stroke-linecap="round" stroke-linejoin="round" />
    <path d="M80.9771 30.781H132.243" stroke="#4862E0" stroke-width="1.0217" stroke-miterlimit="10"
        stroke-linecap="round" stroke-linejoin="round" />
    <path d="M523.389 218.471H486.388" stroke="white" stroke-width="2.0434" stroke-miterlimit="10" />
    <path d="M523.389 233.057H489.069" stroke="white" stroke-width="2.0434" stroke-miterlimit="10" />
    <path d="M523.389 247.644H493.788" stroke="white" stroke-width="2.0434" stroke-miterlimit="10" />
    <path d="M523.389 262.23H498.721" stroke="white" stroke-width="2.0434" stroke-miterlimit="10" />
    <path d="M594.712 0H436.516V14.6935H594.712V0Z" fill="#4862E0" />
    <path d="M598.465 22.6301H440.27V95.0249H598.465V22.6301Z" fill="#6A80F2" />
    <path d="M594.712 19.198H436.516V91.5927H594.712V19.198Z" fill="white" />
    <path d="M580.983 30.5667H448.421V76.6848H580.983V30.5667Z" fill="#F24693" />
    <path
        d="M448.421 76.6849H580.983V34.6423L558.89 54.4839L536.796 44.295L514.595 61.6697L492.608 50.6228L470.514 66.1743L448.421 60.8117V76.6849Z"
        fill="#FFE100" />
    <path d="M470.514 66.1742V76.6848" stroke="#F24693" stroke-width="0.4947" stroke-miterlimit="10" />
    <path d="M492.608 50.6227V76.6848" stroke="#F24693" stroke-width="0.4947" stroke-miterlimit="10" />
    <path d="M514.702 61.6696V76.792" stroke="#F24693" stroke-width="0.4947" stroke-miterlimit="10" />
    <path d="M536.796 44.2949V76.6849" stroke="#F24693" stroke-width="0.4947" stroke-miterlimit="10" />
    <path d="M558.89 54.4836V76.6847" stroke="#F24693" stroke-width="0.4947" stroke-miterlimit="10" />
    <path d="M590.422 3.64648L582.378 11.0468" stroke="white" stroke-width="1.0217" stroke-miterlimit="10"
        stroke-linecap="round" stroke-linejoin="round" />
    <path d="M582.378 3.64648L590.422 11.0468" stroke="white" stroke-width="1.0217" stroke-miterlimit="10"
        stroke-linecap="round" stroke-linejoin="round" />
    <path d="M569.119 11.0464L576.519 11.0464V3.64603L569.119 3.64603V11.0464Z" stroke="white" stroke-width="1.0217"
        stroke-miterlimit="10" stroke-linecap="round" stroke-linejoin="round" />
    <path
        d="M555.672 7.29311C555.672 9.33089 557.388 11.0469 559.426 11.0469C561.464 11.0469 563.18 9.33089 563.18 7.29311C563.18 5.25533 561.464 3.53931 559.426 3.53931C557.388 3.53931 555.672 5.25533 555.672 7.29311Z"
        stroke="white" stroke-width="1.0217" stroke-miterlimit="10" stroke-linecap="round" stroke-linejoin="round" />
    <path d="M551.596 7.29321H505.371" stroke="white" stroke-width="1.0217" stroke-miterlimit="10"
        stroke-linecap="round" stroke-linejoin="round" />
    <path d="M650.482 117.011H505.156V200.774H650.482V117.011Z" fill="#6A80F2" />
    <path d="M642.224 117.226L634.18 124.626" stroke="#4862E0" stroke-width="1.0217" stroke-miterlimit="10"
        stroke-linecap="round" stroke-linejoin="round" />
    <path d="M634.18 117.226L642.224 124.626" stroke="#4862E0" stroke-width="1.0217" stroke-miterlimit="10"
        stroke-linecap="round" stroke-linejoin="round" />
    <path d="M620.952 124.646H628.352V117.246H620.952V124.646Z" stroke="#4862E0" stroke-width="1.0217"
        stroke-miterlimit="10" stroke-linecap="round" stroke-linejoin="round" />
    <path
        d="M607.474 120.98C607.474 123.017 609.191 124.733 611.228 124.733C613.266 124.733 614.982 123.017 614.982 120.98C614.982 118.942 613.266 117.226 611.228 117.226C609.191 117.119 607.474 118.835 607.474 120.98Z"
        stroke="#4862E0" stroke-width="1.0217" stroke-miterlimit="10" stroke-linecap="round" stroke-linejoin="round" />
    <path d="M646.621 112.721H501.296V196.485H646.621V112.721Z" fill="white" />
    <path
        d="M574.012 168.277C582.482 168.277 589.349 161.411 589.349 152.94C589.349 144.47 582.482 137.604 574.012 137.604C565.542 137.604 558.675 144.47 558.675 152.94C558.675 161.411 565.542 168.277 574.012 168.277Z"
        fill="#FFE100" />
    <path
        d="M580.34 148.758C580.34 152.297 577.551 155.086 574.012 155.086C570.473 155.086 567.684 152.297 567.684 148.758C567.684 145.218 570.473 142.43 574.012 142.43C577.444 142.43 580.34 145.218 580.34 148.758Z"
        fill="#4862E0" />
    <path
        d="M574.012 168.385C578.516 168.385 582.592 166.454 585.38 163.344C583.021 159.59 578.838 157.016 574.012 157.016C569.186 157.016 565.003 159.59 562.643 163.344C565.432 166.347 569.507 168.385 574.012 168.385Z"
        fill="#4862E0" />
    <path
        d="M532.72 168.277C541.191 168.277 548.057 161.411 548.057 152.94C548.057 144.47 541.191 137.604 532.72 137.604C524.25 137.604 517.383 144.47 517.383 152.94C517.383 161.411 524.25 168.277 532.72 168.277Z"
        fill="#FFE100" />
    <path
        d="M539.048 148.758C539.048 152.297 536.259 155.086 532.72 155.086C529.181 155.086 526.392 152.297 526.392 148.758C526.392 145.218 529.181 142.43 532.72 142.43C536.259 142.43 539.048 145.218 539.048 148.758Z"
        fill="#262F57" />
    <path
        d="M532.72 168.385C537.225 168.385 541.3 166.454 544.089 163.344C541.729 159.59 537.546 157.016 532.72 157.016C527.894 157.016 523.711 159.59 521.351 163.344C524.14 166.347 528.215 168.385 532.72 168.385Z"
        fill="#262F57" />
    <path d="M505.371 128.809H643.404" stroke="#6A80F2" stroke-width="0.5718" stroke-miterlimit="10" />
    <path
        d="M615.304 168.277C623.774 168.277 630.641 161.411 630.641 152.94C630.641 144.47 623.774 137.604 615.304 137.604C606.833 137.604 599.967 144.47 599.967 152.94C599.967 161.411 606.833 168.277 615.304 168.277Z"
        fill="#FFE100" />
    <path
        d="M621.632 148.758C621.632 152.297 618.843 155.086 615.304 155.086C611.765 155.086 608.976 152.297 608.976 148.758C608.976 145.218 611.765 142.43 615.304 142.43C618.736 142.43 621.632 145.218 621.632 148.758Z"
        fill="#F24693" />
    <path
        d="M615.304 168.385C619.808 168.385 623.884 166.454 626.672 163.344C624.313 159.59 620.13 157.016 615.304 157.016C610.477 157.016 606.295 159.59 603.935 163.344C606.724 166.347 610.799 168.385 615.304 168.385Z"
        fill="#F24693" />
    <path
        d="M546.019 180.397H519.421C518.241 180.397 517.383 179.432 517.383 178.359C517.383 177.18 518.349 176.322 519.421 176.322H546.019C547.199 176.322 548.057 177.287 548.057 178.359C548.057 179.432 547.092 180.397 546.019 180.397Z"
        fill="#C4CDFF" />
    <path
        d="M587.311 180.397H560.713C559.533 180.397 558.675 179.432 558.675 178.359C558.675 177.18 559.64 176.322 560.713 176.322H587.311C588.491 176.322 589.349 177.287 589.349 178.359C589.349 179.432 588.384 180.397 587.311 180.397Z"
        fill="#C4CDFF" />
    <path
        d="M628.603 180.397H602.005C600.825 180.397 599.967 179.432 599.967 178.359C599.967 177.18 600.932 176.322 602.005 176.322H628.603C629.783 176.322 630.641 177.287 630.641 178.359C630.641 179.432 629.675 180.397 628.603 180.397Z"
        fill="#C4CDFF" />
    <path d="M641.366 116.689L633.322 124.09" stroke="#F24693" stroke-width="1.0217" stroke-miterlimit="10"
        stroke-linecap="round" stroke-linejoin="round" />
    <path d="M633.322 116.689L641.366 124.09" stroke="#F24693" stroke-width="1.0217" stroke-miterlimit="10"
        stroke-linecap="round" stroke-linejoin="round" />
    <path d="M620.052 124.137H627.452V116.737H620.052V124.137Z" stroke="#F24693" stroke-width="1.0217"
        stroke-miterlimit="10" stroke-linecap="round" stroke-linejoin="round" />
    <path
        d="M606.616 120.443C606.616 122.481 608.332 124.197 610.37 124.197C612.408 124.197 614.124 122.481 614.124 120.443C614.124 118.405 612.408 116.689 610.37 116.689C608.332 116.582 606.616 118.298 606.616 120.443Z"
        stroke="#F24693" stroke-width="1.0217" stroke-miterlimit="10" stroke-linecap="round" stroke-linejoin="round" />
    <path d="M602.541 120.443H556.316" stroke="#F24693" stroke-width="1.0217" stroke-miterlimit="10"
        stroke-linecap="round" stroke-linejoin="round" />
    <path opacity="0.3"
        d="M320.362 364.119C320.362 364.119 326.797 361.652 329.908 360.15C335.914 360.472 345.459 362.724 355.005 354.895C368.089 355.539 411.419 357.255 411.419 357.255C411.419 357.255 412.062 359.185 414.744 359.507C417.425 359.829 439.197 359.507 439.197 359.507V357.255C439.197 357.255 471.909 353.715 483.277 343.848C494.646 333.981 483.277 342.883 483.277 342.883H355.005L325.832 352.965L320.362 364.119Z"
        fill="black" />
    <path
        d="M364.764 107.573L365.515 77.8644C370.449 72.9308 370.663 65.6377 367.553 60.7042C365.408 57.2721 358.544 52.8748 351.894 56.4141C351.036 48.7992 344.601 44.5092 337.952 43.7584C332.16 43.1149 321.864 45.6889 319.826 55.8778C309.959 49.7645 298.698 56.4141 298.483 67.89C298.268 79.3659 307.599 84.085 317.037 81.5109C317.037 81.5109 317.252 86.8735 331.731 86.7663C346.21 86.659 350.178 96.4189 350.178 96.4189C350.178 96.4189 349.535 111.005 364.764 107.573Z"
        fill="#262F57" />
    <path
        d="M317.145 79.3661L318.861 99.8511C318.861 99.8511 317.788 124.626 335.699 124.626L339.668 163.88C339.668 163.88 363.37 175.249 379.994 155.836L364.764 107.466C364.764 107.466 358.758 106.501 356.721 100.709C356.721 100.709 361.654 99.7439 362.298 94.1668C362.941 88.5897 360.582 87.41 358.544 87.0882C356.721 86.8737 353.289 88.8042 353.61 94.3813L350.071 87.9462C350.071 87.9462 342.134 87.0882 339.668 79.1516C339.775 79.1516 325.081 88.0535 317.145 79.3661Z"
        fill="#FF8685" />
    <path
        d="M379.994 135.244L374.31 124.197C366.909 128.595 359.831 130.954 353.503 132.134L348.462 164.738C348.462 164.738 345.781 159.268 345.03 153.906C344.387 148.543 345.137 148.436 343.636 144.682C342.456 141.572 342.456 136.638 343.207 133.421C336.664 133.635 332.589 132.67 332.589 132.67L329.586 141.25C329.586 141.25 303.416 145.969 287.972 149.723C272.528 153.477 259.336 173.533 252.794 186.189C246.359 198.844 233.06 223.834 233.06 223.834L230.593 217.077L196.058 240.458C196.058 240.458 204.531 292.26 239.495 293.118C263.197 293.762 292.155 252.47 292.155 252.47C292.155 252.47 292.584 262.015 297.089 274.349C302.237 288.614 299.555 301.806 302.022 314.14H432.44V149.723C413.564 142.752 379.994 135.244 379.994 135.244Z"
        fill="#FFE3B8" />
    <path
        d="M415.173 314.032V300.412H432.655V298.91H415.173V277.996H432.655V276.494H415.173V255.58H432.655V254.079H415.173V233.165H432.655V231.663H415.173V210.749H432.655V209.248H415.173V188.334H432.655V186.832H415.173V165.918H432.655V164.417H415.173V143.717C413.242 143.181 411.312 142.645 409.381 142.108H392.864V137.818C392.328 137.711 391.899 137.604 391.363 137.497V142.108H370.449V125.806C369.913 126.021 369.483 126.342 368.947 126.557V142.108H351.894L351.68 143.61H368.947V164.524H348.033V163.451C347.711 162.593 347.068 161.306 346.532 159.698V164.631H325.618V143.717H343.421C343.314 143.288 343.1 142.752 342.992 142.216H325.51V141.572C325.081 141.679 324.545 141.787 324.009 141.894V142.216H322.078C319.826 142.645 317.252 143.181 314.356 143.717H323.902V164.631H302.988V146.077C302.451 146.184 302.022 146.291 301.486 146.398V164.738H280.572V152.405C280.036 152.726 279.607 152.941 279.071 153.263V164.738H266.415C265.986 165.275 265.557 165.704 265.235 166.24H279.178V187.154H258.264V176C257.727 176.751 257.298 177.609 256.762 178.359V187.154H251.829C251.614 187.583 251.292 188.119 251.078 188.656H256.762V209.57H240.138C239.924 210.106 239.602 210.535 239.387 211.071H256.762V231.985H235.848V217.721C235.312 218.793 234.776 219.651 234.347 220.509V231.985H213.433V228.339L211.931 229.304V231.878H208.07L205.925 233.379H211.931V254.293H203.351V255.795H211.931V276.709H210.966C211.288 277.245 211.717 277.674 212.038 278.21H212.467V278.854C212.896 279.497 213.433 280.034 213.969 280.57V278.21H234.883V292.797C235.419 292.904 235.848 292.904 236.384 293.011V278.21H257.298V287.541C257.835 287.22 258.264 286.898 258.8 286.576V278.21H269.632C270.169 277.674 270.705 277.245 271.241 276.709H258.8V255.795H279.607V268.129C280.143 267.593 280.572 267.056 281.108 266.52V255.795H289.903C290.332 255.259 290.654 254.722 290.975 254.293H281.001V233.379H301.915V254.293H292.477C292.477 254.722 292.584 255.259 292.691 255.795H301.915V276.709H297.947C298.054 277.245 298.269 277.674 298.376 278.21H301.915V299.125H300.843C300.843 299.661 300.843 300.09 300.843 300.626H301.915V312.853C302.022 313.282 302.022 313.818 302.13 314.247H303.309V300.626H324.223V314.247H325.725V300.626H346.639V314.247H348.14V300.626H369.054V314.247H370.556V300.626H391.47V314.247H392.972V300.626H413.886V314.247H415.173V314.032ZM234.883 276.602H213.969V255.688H234.883V276.602ZM234.883 254.293H213.969V233.379H234.883V254.293ZM257.298 276.602H236.384V255.688H257.298V276.602ZM257.298 254.293H236.384V233.379H257.298V254.293ZM279.607 254.293H258.693V233.379H279.607V254.293ZM279.607 231.878H258.693V210.964H279.607V231.878ZM279.607 209.57H258.693V188.656H279.607V209.57ZM302.022 231.878H281.108V210.964H302.022V231.878ZM302.022 209.57H281.108V188.656H302.022V209.57ZM302.022 187.261H281.108V166.347H302.022V187.261ZM324.331 299.017H303.417V278.103H324.331V299.017ZM324.331 276.602H303.417V255.688H324.331V276.602ZM324.331 254.293H303.417V233.379H324.331V254.293ZM324.331 231.878H303.417V210.964H324.331V231.878ZM324.331 209.57H303.417V188.656H324.331V209.57ZM324.331 187.261H303.417V166.347H324.331V187.261ZM346.639 299.017H325.725V278.103H346.639V299.017ZM346.639 276.602H325.725V255.688H346.639V276.602ZM346.639 254.293H325.725V233.379H346.639V254.293ZM346.639 231.878H325.725V210.964H346.639V231.878ZM346.639 209.57H325.725V188.656H346.639V209.57ZM346.639 187.261H325.725V166.347H346.639V187.261ZM369.054 299.017H348.14V278.103H369.054V299.017ZM369.054 276.602H348.14V255.688H369.054V276.602ZM369.054 254.293H348.14V233.379H369.054V254.293ZM369.054 231.878H348.14V210.964H369.054V231.878ZM369.054 209.57H348.14V188.656H369.054V209.57ZM369.054 187.261H348.14V166.347H369.054V187.261ZM391.363 299.017H370.449V278.103H391.363V299.017ZM391.363 276.602H370.449V255.688H391.363V276.602ZM391.363 254.293H370.449V233.379H391.363V254.293ZM391.363 231.878H370.449V210.964H391.363V231.878ZM391.363 209.57H370.449V188.656H391.363V209.57ZM391.363 187.261H370.449V166.347H391.363V187.261ZM391.363 164.846H370.449V143.932H391.363V164.846ZM392.864 144.039H413.778V164.953H392.864V144.039ZM392.864 166.347H413.778V187.261H392.864V166.347ZM392.864 188.656H413.778V209.57H392.864V188.656ZM392.864 211.071H413.778V231.985H392.864V211.071ZM392.864 233.379H413.778V254.293H392.864V233.379ZM392.864 255.795H413.778V276.709H392.864V255.795ZM392.864 299.017V278.103H413.778V299.017H392.864Z"
        fill="#FFF9F0" />
    <path d="M364.228 64.0292C364.228 64.0292 367.875 71.5368 361.118 77.9719" stroke="#354FCC" stroke-width="0.5108"
        stroke-miterlimit="10" />
    <path d="M360.045 67.2468C360.045 67.2468 362.941 71.5369 358.222 78.0792" stroke="#354FCC" stroke-width="0.5108"
        stroke-miterlimit="10" />
    <path d="M356.828 70.5715C356.828 70.5715 358.329 74.0036 355.648 78.4009" stroke="#354FCC" stroke-width="0.5108"
        stroke-miterlimit="10" />
    <path d="M303.095 64.4581C300.95 69.8207 303.524 80.2241 315.643 78.8298" stroke="#354FCC" stroke-width="0.5108"
        stroke-miterlimit="10" />
    <path d="M305.562 70.2498C305.562 70.2498 308.457 76.8993 315.643 74.4326" stroke="#354FCC" stroke-width="0.5108"
        stroke-miterlimit="10" />
    <path
        d="M330.766 97.4915C330.766 97.4915 328.942 101.567 329.264 102.854C329.479 104.034 333.232 102.854 335.163 102.854"
        stroke="#873636" stroke-width="0.6167" stroke-miterlimit="10" />
    <path
        d="M332.16 103.176C334.627 102.854 336.236 103.39 336.986 104.463C336.986 104.463 340.204 104.463 340.74 105.965C340.74 105.965 344.708 106.608 344.601 107.788C344.494 108.968 336.557 108.11 334.305 108.11C332.053 108.11 330.444 108.324 328.192 108.86C325.832 109.397 323.258 109.611 323.044 108.86C322.936 108.002 327.012 106.286 327.012 106.286C327.012 106.286 328.299 104.249 330.015 104.356C330.015 104.249 330.337 103.39 332.16 103.176Z"
        fill="#262F57" />
    <path d="M330.015 111.97C330.015 111.97 332.374 113.687 336.986 111.756" stroke="#873636" stroke-width="0.6167"
        stroke-miterlimit="10" />
    <path
        d="M335.699 124.734C342.027 124.841 348.891 122.16 353.503 115.832C353.932 115.295 354.79 115.51 354.79 116.261C354.683 120.551 352.645 129.667 336.343 131.169L335.699 124.734Z"
        fill="#FF6666" />
    <path
        d="M355.648 95.9901C355.541 92.9871 356.828 89.126 359.295 89.2333C361.761 89.2333 361.011 93.9523 361.011 93.9523"
        stroke="#873636" stroke-width="0.6167" stroke-miterlimit="10" />
    <path
        d="M345.995 92.129C345.995 95.7755 342.992 98.7786 339.346 98.7786C335.699 98.7786 332.696 95.7755 332.696 92.129C332.696 88.4824 335.699 85.4794 339.346 85.4794C342.992 85.4794 345.995 88.4824 345.995 92.129Z"
        stroke="white" stroke-width="0.7663" stroke-miterlimit="10" />
    <path
        d="M329.693 92.129C329.693 95.7755 326.69 98.7786 323.044 98.7786C319.397 98.7786 316.394 95.7755 316.394 92.129C316.394 88.4824 319.397 85.4794 323.044 85.4794C326.69 85.4794 329.693 88.4824 329.693 92.129Z"
        stroke="white" stroke-width="0.7663" stroke-miterlimit="10" />
    <path d="M329.586 91.3783C329.586 91.3783 330.766 90.3058 332.696 91.3783" stroke="white" stroke-width="0.7663"
        stroke-miterlimit="10" />
    <path
        d="M338.166 91.9146C338.166 93.0943 337.63 93.9524 337.094 93.9524C336.45 93.9524 336.021 92.9871 336.021 91.9146C336.021 90.7348 336.557 89.8768 337.094 89.8768C337.63 89.7696 338.166 90.7348 338.166 91.9146Z"
        fill="#262F57" />
    <path
        d="M321.435 93.9525C322.027 93.9525 322.507 93.0402 322.507 91.9147C322.507 90.7893 322.027 89.877 321.435 89.877C320.842 89.877 320.362 90.7893 320.362 91.9147C320.362 93.0402 320.842 93.9525 321.435 93.9525Z"
        fill="#262F57" />
    <path d="M345.567 89.7694H354.576" stroke="white" stroke-width="0.7663" stroke-miterlimit="10" />
    <path d="M335.485 83.9779C335.485 83.9779 339.989 81.5112 344.923 84.9432" stroke="#262F57" stroke-width="1.0217"
        stroke-miterlimit="10" stroke-linecap="round" stroke-linejoin="round" />
    <path d="M325.939 84.2997C325.939 84.2997 321.864 82.262 317.574 84.9432" stroke="#262F57" stroke-width="1.0217"
        stroke-miterlimit="10" stroke-linecap="round" stroke-linejoin="round" />
    <path
        d="M276.604 155.515C266.2 163.344 257.728 176.75 252.901 186.189C246.466 198.844 233.167 223.834 233.167 223.834C233.167 223.834 245.072 232.199 250.434 243.675C255.797 255.151 259.444 293.762 229.199 291.188C232.416 292.368 235.848 293.011 239.709 293.118C263.412 293.762 292.37 252.47 292.37 252.47C290.654 238.742 286.685 219.115 286.685 219.115C286.685 219.115 265.879 204.85 276.604 155.515Z"
        fill="#D9B680" />
    <path
        d="M274.673 166.347C274.78 165.811 274.78 165.382 274.888 164.845H266.951C266.629 165.274 266.308 165.703 265.879 166.025C265.879 166.132 265.771 166.132 265.771 166.24C265.771 166.24 265.771 166.347 265.664 166.347H274.673Z"
        fill="#FFE3B8" />
    <path
        d="M236.384 290.866C235.955 290.973 235.419 290.973 234.883 291.08V292.582C235.419 292.689 235.848 292.689 236.384 292.796V290.866Z"
        fill="#FFE3B8" />
    <path
        d="M289.367 233.379C289.259 232.843 289.152 232.414 289.152 231.878H281.108V212.68C280.465 211.714 279.928 210.749 279.285 209.569H258.693V188.655H273.708C273.708 188.226 273.601 187.69 273.601 187.154H258.693V176C258.693 176.107 258.585 176.107 258.585 176.214C258.264 176.751 257.942 177.287 257.513 177.823C257.406 178.038 257.298 178.145 257.191 178.359V187.154H252.258C252.043 187.583 251.721 188.119 251.507 188.655H257.191V209.569H240.567C240.46 209.784 240.353 209.891 240.353 210.106C240.138 210.427 240.031 210.749 239.816 211.071H257.191V231.985H242.283C242.712 232.414 243.141 232.95 243.57 233.487H257.191V254.401H253.33C253.437 254.83 253.437 255.366 253.545 255.902H257.298V276.816H252.15C251.936 277.352 251.829 277.781 251.614 278.318H257.298V287.649C257.835 287.327 258.264 287.005 258.8 286.683V278.318H269.632C270.169 277.781 270.705 277.352 271.241 276.816H258.8V255.902H279.607V268.236C280.143 267.7 280.572 267.164 281.108 266.627V255.902H289.903C290.332 255.366 290.654 254.83 290.975 254.401H281.001V233.487H289.367V233.379ZM279.607 254.293H258.693V233.379H279.607V254.293ZM279.607 231.878H258.693V210.964H279.607V231.878Z"
        fill="#FFE3B8" />
    <path
        d="M236.384 226.301V217.72C236.384 217.828 236.277 217.828 236.277 217.935C236.063 218.364 235.848 218.686 235.634 219.115C235.634 219.222 235.526 219.329 235.526 219.436C235.312 219.758 235.205 220.08 234.99 220.402C234.99 220.402 234.883 220.509 234.883 220.616V225.228C235.312 225.443 235.848 225.872 236.384 226.301Z"
        fill="#FFE3B8" />
    <path d="M432.655 314.032V216.97L423.967 207.317C423.967 207.317 412.706 285.396 327.334 313.925H432.655V314.032Z"
        fill="#D9B680" />
    <path d="M346.639 306.203V314.032H348.14V305.452C347.711 305.774 347.175 305.989 346.639 306.203Z" fill="#FFE3B8" />
    <path d="M425.898 209.57H423.538C423.431 209.999 423.324 210.535 423.217 211.071H427.185L425.898 209.57Z"
        fill="#FFE3B8" />
    <path
        d="M415.173 235.31C414.744 236.382 414.208 237.455 413.671 238.527V254.293H405.091C404.769 254.83 404.448 255.259 404.126 255.795H413.671V276.709H392.757V271.025C392.221 271.561 391.792 272.204 391.256 272.741V276.816H387.502C387.073 277.353 386.537 277.782 386.108 278.318H391.256V299.232H370.342V292.046C369.805 292.368 369.376 292.797 368.84 293.118V299.232H359.724C358.866 299.768 358.115 300.197 357.257 300.733H368.84V314.354H370.342V300.733H391.256V314.354H392.757V300.733H413.671V314.354H415.173V300.733H432.655V299.232H415.173V278.318H432.655V276.816H415.173V255.902H432.655V254.401H415.173V235.31ZM413.778 299.017H392.864V278.103H413.778V299.017Z"
        fill="#FFE3B8" />
    <path d="M416.031 233.379H432.762V231.878H416.674C416.46 232.414 416.245 232.95 416.031 233.379Z" fill="#FFE3B8" />
    <path
        d="M348.569 167.312C347.497 178.895 346.21 189.084 349.535 202.92C352.859 216.648 351.68 227.373 350.929 240.243C350.178 253.221 348.569 260.621 351.787 274.671C355.004 288.828 357.149 304.916 355.219 314.032"
        stroke="#A6834C" stroke-width="0.7998" stroke-miterlimit="10" />
    <path d="M241.103 228.339L265.449 242.817" stroke="#A6834C" stroke-width="0.7998" stroke-miterlimit="10" />
    <path d="M241.103 226.193L257.942 228.66" stroke="#A6834C" stroke-width="0.7998" stroke-miterlimit="10" />
    <path d="M273.601 219.115C273.601 219.115 277.569 240.351 291.404 245.284" stroke="#A6834C" stroke-width="0.7998"
        stroke-miterlimit="10" />
    <g id="handLeft">
        <path
            d="M230.593 216.004L195.843 161.306C195.843 161.306 187.263 144.468 184.904 141.572C182.544 138.676 165.384 124.948 165.384 124.948C165.384 124.948 163.346 127.2 165.384 129.238C167.422 131.276 175.895 141.894 175.895 141.894C175.895 141.894 172.784 141.786 172.355 146.184C172.355 146.184 168.923 146.184 168.709 150.045C168.709 150.045 166.885 150.796 166.778 154.442C166.671 158.089 167.851 160.341 169.245 162.164C170.639 163.988 174.393 164.309 174.393 164.309C174.393 164.309 176.431 170.959 184.26 170.423L197.559 239.814C197.452 239.922 221.691 233.915 230.593 216.004Z"
            fill="#FF8685" />
        <path
            d="M188.765 161.628C184.582 160.984 182.222 158.732 182.222 158.732C181.15 161.735 178.898 162.057 178.898 162.057C178.898 162.057 177.503 165.06 174.393 164.417C174.393 164.417 175.251 167.205 177.932 168.921C188.336 168.599 192.948 162.271 188.765 161.628Z"
            fill="#FF6666" />
        <path
            d="M197.452 239.922C197.452 239.922 221.691 233.916 230.486 216.005L213.969 190.05C215.899 205.387 215.149 227.588 194.235 223.619L197.452 239.922Z"
            fill="#FF6666" />
        <path
            d="M186.512 150.367C186.512 150.367 180.935 148.865 178.361 149.401C175.787 149.938 172.033 157.767 172.999 158.732C173.964 159.697 178.361 155.407 178.361 155.407C178.361 155.407 184.367 161.413 187.907 161.521"
            stroke="#873636" stroke-width="0.6167" stroke-miterlimit="10" />
        <path d="M177.396 144.79C177.396 144.79 177.611 148.007 178.361 149.401" stroke="#873636" stroke-width="0.6167"
            stroke-miterlimit="10" />
        <path d="M172.892 147.685C172.892 147.685 172.892 151.117 174.393 153.799" stroke="#873636"
            stroke-width="0.6167" stroke-miterlimit="10" />
        <path
            d="M169.138 151.761C169.138 151.761 169.138 155.086 171.497 158.303C173.857 161.521 177.396 161.521 177.396 161.521"
            stroke="#873636" stroke-width="0.6167" stroke-miterlimit="10" />
    </g>
    <path
        d="M394.259 211.5H367.875C367.875 211.5 362.941 238.742 379.994 238.742C397.047 238.742 394.795 213.323 394.795 213.323"
        stroke="#A6834C" stroke-width="0.7998" stroke-miterlimit="10" />
    <path
        d="M241.104 231.771L236.17 218.257C234.347 221.582 233.274 223.834 233.274 223.834L230.807 217.077L196.272 240.458C196.272 240.458 197.988 250.754 202.922 262.23C229.52 260.085 241.104 231.771 241.104 231.771Z"
        fill="#D9B680" />
    <path
        d="M417.318 351.249H354.254C354.254 351.249 349.964 356.504 342.134 357.362C334.305 358.22 329.479 357.898 329.479 357.898C329.479 357.898 321.649 364.655 318.003 363.475L319.183 361.652C319.183 361.652 316.18 362.081 315 361.008L316.18 359.507C316.18 359.507 312.962 361.545 311.46 360.365L313.927 356.611C313.927 356.611 314.356 349.962 315.429 348.245C316.609 346.422 326.797 345.671 326.797 345.671C326.797 345.671 340.418 341.381 350.714 340.845L402.839 316.499C403.053 316.392 417.747 333.445 417.318 351.249Z"
        fill="#FF8685" />
    <path
        d="M393.401 351.249H417.318C417.747 333.445 403.053 316.392 403.053 316.392L395.867 319.717C398.012 325.508 402.41 341.06 393.401 351.249Z"
        fill="#FF6666" />
    <path d="M352.859 349.318C352.859 349.318 353.932 349.533 357.257 348.353" stroke="#873636" stroke-width="0.6167"
        stroke-miterlimit="10" />
    <path
        d="M319.504 361.437C319.504 361.437 323.687 357.469 326.368 356.075C328.942 354.788 331.087 354.144 331.087 354.144"
        stroke="#873636" stroke-width="0.6167" stroke-miterlimit="10" />
    <path
        d="M316.287 359.4C316.287 359.4 320.577 354.681 323.794 352.965C327.012 351.249 328.728 350.713 328.728 350.713"
        stroke="#873636" stroke-width="0.6167" stroke-miterlimit="10" />
    <path d="M314.142 356.397C317.145 350.82 326.69 347.817 326.69 347.817" stroke="#873636" stroke-width="0.6167"
        stroke-miterlimit="10" />
    <path d="M318.325 351.999L318.754 349.425" stroke="#873636" stroke-width="0.6167" stroke-miterlimit="10" />
    <path d="M355.862 133.528L359.187 147.042L377.527 137.067" stroke="#A6834C" stroke-width="0.7998"
        stroke-miterlimit="10" />
    <path d="M341.169 135.566L338.595 147.042L330.659 142.537" stroke="#A6834C" stroke-width="0.7998"
        stroke-miterlimit="10" />
    <path
        d="M230.915 210.106C210.537 231.663 193.269 235.953 193.269 235.953L197.774 258.583C207.641 257.404 215.578 254.293 222.013 250.432L213.54 233.594L226.303 247.536C238.637 238.527 243.57 227.48 243.57 227.48L230.915 210.106Z"
        fill="white" />
    <path
        d="M432.655 149.723C451.316 155.836 468.584 169.457 475.77 197.235C482.956 225.014 490.57 262.123 494.002 282.929C497.542 303.629 501.188 338.593 476.52 346.208C451.853 353.823 431.475 351.999 424.718 351.999C424.718 351.999 413.242 334.732 404.34 311.78L425.683 297.837C425.683 297.837 419.57 294.191 424.289 289.364C424.289 289.364 422.68 287.112 424.504 283.358C424.504 283.358 415.923 251.505 408.63 227.051C401.659 202.491 415.28 156.265 432.655 149.723Z"
        fill="#FFE3B8" />
    <path
        d="M480.811 217.399V231.985H459.896V211.071H479.309C479.202 210.535 479.094 210.106 478.987 209.569H460.004V188.655H473.303C473.088 188.119 472.981 187.69 472.767 187.154H460.111V166.669C459.467 166.025 458.931 165.382 458.288 164.846H437.803V151.439C437.266 151.225 436.837 151.01 436.301 150.903V164.846H418.605C418.39 165.382 418.068 165.811 417.854 166.347H436.301V187.261H415.387V171.495C414.851 172.675 414.422 173.962 413.886 175.142V187.261H410.132C410.025 187.797 409.917 188.226 409.81 188.763H413.886V209.677H407.021C407.021 210.213 407.021 210.642 407.021 211.178H413.886V232.092H410.454C410.561 232.628 410.775 233.057 410.883 233.594H413.886V243.997C414.422 245.713 414.851 247.429 415.387 249.145V233.486H436.301V254.401H416.889C416.996 254.937 417.21 255.366 417.318 255.902H436.301V276.816H423.109C423.216 277.352 423.431 277.781 423.538 278.318H436.301V299.232H424.074L421.822 300.733H436.301V321.647H415.387V304.594L413.886 305.559V321.325H408.738C408.952 321.862 409.167 322.291 409.381 322.827H413.886V332.265C414.422 333.23 414.851 334.196 415.387 335.161V322.827H436.301V343.741H420.106C420.428 344.277 420.642 344.706 420.964 345.243H436.301V352.214C436.73 352.214 437.266 352.214 437.803 352.214V345.35H458.717V350.498C459.253 350.391 459.682 350.391 460.218 350.283V345.35H479.631C480.703 344.921 481.669 344.385 482.634 343.848V322.827H495.718C495.826 322.291 495.933 321.862 496.04 321.325H482.634V300.411H496.684C496.684 299.875 496.576 299.446 496.576 298.91H482.634V277.996H493.681C493.573 277.46 493.466 277.031 493.466 276.494H482.634V255.58H489.391C489.283 255.044 489.176 254.615 489.069 254.079H482.527V233.165H484.672C484.564 232.628 484.457 232.199 484.35 231.663H482.527V223.512C481.776 221.689 481.24 219.544 480.811 217.399ZM436.087 231.878H415.173V210.964H436.087V231.878ZM436.087 209.569H415.173V188.655H436.087V209.569ZM458.395 343.634H437.481V322.827H458.395V343.634ZM458.395 321.325H437.481V300.411H458.395V321.325ZM458.395 299.017H437.481V278.103H458.395V299.017ZM458.395 276.602H437.481V255.688H458.395V276.602ZM458.395 254.293H437.481V233.379H458.395V254.293ZM458.395 231.878H437.481V210.964H458.395V231.878ZM458.395 209.569H437.481V188.655H458.395V209.569ZM458.395 187.261H437.481V166.347H458.395V187.261ZM480.811 343.634H459.896V322.827H480.811V343.634ZM480.811 321.325H459.896V300.411H480.811V321.325ZM480.811 299.017H459.896V278.103H480.811V299.017ZM480.811 276.602H459.896V255.688H480.811V276.602ZM480.811 254.293H459.896V233.379H480.811V254.293Z"
        fill="#FFF9F0" />
    <path d="M426.756 288.506C426.756 288.506 444.345 281.213 461.72 293.547" stroke="#A6834C" stroke-width="0.7998"
        stroke-miterlimit="10" />
    <path d="M426.756 282.071C427.399 281.642 441.127 274.028 448.635 265.876" stroke="#A6834C" stroke-width="0.7998"
        stroke-miterlimit="10" />
    <path d="M429.544 295.478C429.544 295.478 448.849 299.124 454.534 310.064" stroke="#A6834C" stroke-width="0.7998"
        stroke-miterlimit="10" />
    <path d="M424.182 282.071L403.268 205.172" stroke="#A6834C" stroke-width="0.7998" stroke-miterlimit="10" />
    <path
        d="M417.961 332.908L432.225 325.079C429.33 317.035 424.289 308.777 415.387 302.02L398.334 312.745C397.154 313.496 396.94 315.212 398.012 316.284C402.839 320.789 413.886 333.23 412.813 352.214C412.706 353.286 413.564 354.144 414.636 354.144H435.014C435.014 354.144 436.945 343.312 433.834 330.442L417.961 332.908Z"
        fill="white" />
    <path d="M294.515 40.9701H209.679V164.309H294.515V40.9701Z" fill="#6A80F2" />
    <path d="M291.512 36.3583H206.676V159.697H291.512V36.3583Z" fill="white" />
    <path d="M291.512 140.392H206.676V159.697H291.512V140.392Z" fill="#FFE100" />
    <path
        d="M230.7 54.9127C230.7 57.594 228.555 59.7391 225.874 59.7391C223.193 59.7391 221.047 57.594 221.047 54.9127C221.047 52.2315 223.193 50.0864 225.874 50.0864C228.555 50.0864 230.7 52.2315 230.7 54.9127Z"
        fill="#F24693" />
    <path d="M235.312 54.9128H277.033" stroke="#9EAEFF" stroke-width="0.5188" stroke-miterlimit="10" />
    <path
        d="M230.7 77.543C230.7 80.2243 228.555 82.3693 225.874 82.3693C223.193 82.3693 221.047 80.2243 221.047 77.543C221.047 74.8617 223.193 72.7167 225.874 72.7167C228.555 72.7167 230.7 74.8617 230.7 77.543Z"
        fill="#4862E0" />
    <path d="M235.312 77.5428H277.033" stroke="#9EAEFF" stroke-width="0.5188" stroke-miterlimit="10" />
    <path
        d="M230.7 100.173C230.7 102.854 228.555 104.999 225.874 104.999C223.193 104.999 221.047 102.854 221.047 100.173C221.047 97.4918 223.193 95.3468 225.874 95.3468C228.555 95.3468 230.7 97.5991 230.7 100.173Z"
        fill="#262F57" />
    <path d="M235.312 100.173H277.033" stroke="#9EAEFF" stroke-width="0.5188" stroke-miterlimit="10" />
    <path
        d="M230.7 122.91C230.7 125.592 228.555 127.737 225.874 127.737C223.193 127.737 221.047 125.592 221.047 122.91C221.047 120.229 223.193 118.084 225.874 118.084C228.555 118.084 230.7 120.229 230.7 122.91Z"
        fill="#DDFF00" />
    <path d="M235.312 122.91H277.033" stroke="#9EAEFF" stroke-width="0.5188" stroke-miterlimit="10" />
    <path d="M206.354 19.6271L214.398 27.1347" stroke="#4862E0" stroke-width="1.0217" stroke-miterlimit="10"
        stroke-linecap="round" stroke-linejoin="round" />
    <path d="M214.398 19.6271L206.354 27.1347" stroke="#4862E0" stroke-width="1.0217" stroke-miterlimit="10"
        stroke-linecap="round" stroke-linejoin="round" />
    <path d="M227.697 19.6271H220.297V27.0274H227.697V19.6271Z" stroke="#4862E0" stroke-width="1.0217"
        stroke-miterlimit="10" stroke-linecap="round" stroke-linejoin="round" />
    <path
        d="M241.104 23.3809C241.104 25.4187 239.388 27.1347 237.35 27.1347C235.312 27.1347 233.596 25.4187 233.596 23.3809C233.596 21.3431 235.312 19.6271 237.35 19.6271C239.495 19.6271 241.104 21.3431 241.104 23.3809Z"
        stroke="#4862E0" stroke-width="1.0217" stroke-miterlimit="10" stroke-linecap="round" stroke-linejoin="round" />
    <path d="M245.179 23.3809H291.404" stroke="#4862E0" stroke-width="1.0217" stroke-miterlimit="10"
        stroke-linecap="round" stroke-linejoin="round" />
    <g id="coffee">
    <path
        d="M568.864 356.718C568.864 360.901 556.101 364.226 540.335 364.226C524.569 364.226 511.806 360.901 511.806 356.718C511.806 352.535 524.569 349.211 540.335 349.211C556.101 349.211 568.864 352.535 568.864 356.718Z"
        fill="#6A80F2" />
    <path
        d="M555.243 351.356L553.742 348.889C554.921 347.816 557.174 347.387 559.962 346.851C566.397 345.671 571.438 344.384 571.438 339.236C571.438 332.587 564.896 331.621 560.928 331.621V328.618C569.4 328.618 574.441 332.587 574.441 339.236C574.441 347.387 566.076 348.889 560.499 349.854C558.675 350.283 555.78 350.927 555.243 351.356Z"
        fill="white" />
    <path
        d="M560.284 346.958C560.177 346.958 560.07 346.959 559.962 347.066C557.174 347.602 554.921 347.924 553.742 349.104L555.243 351.57C555.565 351.249 556.745 350.927 558.032 350.605C558.89 349.425 559.533 348.246 560.284 346.958Z"
        fill="#FFE3B8" />
    <path
        d="M560.82 331.729C561.893 331.729 563.072 331.836 564.252 332.051C564.359 331.085 564.467 330.013 564.467 329.047C563.287 328.833 562.107 328.726 560.82 328.726V331.729Z"
        fill="#FFE3B8" />
    <path
        d="M562.536 356.289C562.536 359.292 552.347 361.759 539.906 361.759C527.358 361.759 517.276 359.292 517.276 356.289C517.276 353.286 527.465 350.82 539.906 350.82C552.347 350.712 562.536 353.179 562.536 356.289Z"
        fill="white" />
    <path
        d="M557.924 356.289C557.924 358.113 549.773 359.614 539.799 359.614C529.824 359.614 521.673 358.113 521.673 356.289C521.673 354.466 529.824 352.965 539.799 352.965C549.773 352.965 557.924 354.359 557.924 356.289Z"
        fill="#FFE3B8" />
    <path
        d="M539.799 327.653L517.169 326.366C517.169 344.277 524.784 356.182 533.578 356.182C538.512 356.182 539.584 356.182 539.799 356.182C540.013 356.182 541.193 356.182 546.019 356.182C554.707 356.182 562.429 344.277 562.429 326.366L539.799 327.653Z"
        fill="white" />
    <path
        d="M562.537 326.366C562.537 328.511 552.348 330.227 539.907 330.227C527.358 330.227 517.277 328.511 517.277 326.366C517.277 324.221 527.466 322.505 539.907 322.505C552.348 322.505 562.537 324.328 562.537 326.366Z"
        fill="#FFE3B8" />
    <path
        d="M518.349 327.653C521.459 329.155 529.825 330.227 539.799 330.227C549.773 330.227 558.139 329.155 561.249 327.653C558.139 326.152 549.773 325.079 539.799 325.079C529.932 325.079 521.459 326.152 518.349 327.653Z"
        fill="#A6834C" />
        </g>
    <path id="coffeeSmoke" d="M551.918 319.824C551.168 315.963 554.814 307.812 553.313 301.162" stroke="white" stroke-width="1.0217"
        stroke-miterlimit="10" />
    <path id="coffeeSmoke" d="M544.089 319.824C543.338 315.963 546.985 307.812 545.483 301.162" stroke="white" stroke-width="1.0217"
        stroke-miterlimit="10" />
    <path id="coffeeSmoke" d="M536.367 319.824C535.616 315.963 539.263 307.812 537.761 301.162" stroke="white" stroke-width="1.0217"
        stroke-miterlimit="10" />
    <path id="coffeeSmoke" d="M528.645 319.824C527.894 315.963 531.54 307.812 530.039 301.162" stroke="white" stroke-width="1.0217"
        stroke-miterlimit="10" />
    <path d="M315.751 324.543H199.49L176.109 370.339H292.37L315.751 324.543Z" fill="#6A80F2" />
    <path d="M314.785 322.505H197.667L174.286 368.624H291.404L314.785 322.505Z" fill="#354FCC" />
    <path d="M289.259 322.505H197.667L174.286 368.624H291.404L289.259 322.505Z" fill="#262F57" />
    <path d="M302.451 331.729H274.351" stroke="#9EAEFF" stroke-width="1.0217" stroke-miterlimit="10" />
    <path d="M298.805 338.7H270.812" stroke="#9EAEFF" stroke-width="1.0217" stroke-miterlimit="10" />
    <path d="M295.265 345.564H267.166" stroke="#9EAEFF" stroke-width="1.0217" stroke-miterlimit="10" />
    <path d="M291.404 368.624H174.286L155.302 282.393H272.421L291.404 368.624Z" fill="#354FCC" />
    <path
        d="M235.848 325.509C237.35 332.373 232.952 337.95 226.088 337.95C219.224 337.95 212.36 332.373 210.859 325.509C209.357 318.644 213.754 313.067 220.618 313.067C227.483 313.067 234.347 318.644 235.848 325.509Z"
        stroke="#9EAEFF" stroke-width="1.4147" stroke-miterlimit="10" />
    <path d="M270.812 286.04L286.9 365.192" stroke="#9EAEFF" stroke-width="1.0217" stroke-miterlimit="10" />
</svg>
