<?xml version="1.0" encoding="utf-8"?>
<?xml-stylesheet href="../css/animation.css" type="text/css"?>

<svg width="570" viewBox="0 0 570 450" fill="none" xmlns="http://www.w3.org/2000/svg">
<g opacity="0.5" class="aiBg">
<path d="M218.946 276.354C288.933 276.354 345.669 219.618 345.669 149.631C345.669 79.6437 288.933 22.9077 218.946 22.9077C148.958 22.9077 92.2223 79.6437 92.2223 149.631C92.2223 219.618 148.958 276.354 218.946 276.354Z" fill="#C4CDFF"/>
<path d="M396.458 439.257C472.921 439.257 534.906 377.272 534.906 300.81C534.906 224.347 472.921 162.362 396.458 162.362C319.996 162.362 258.011 224.347 258.011 300.81C258.011 377.272 319.996 439.257 396.458 439.257Z" fill="#C4CDFF"/>
<path d="M176.067 396.469C226.373 396.469 267.154 355.688 267.154 305.382C267.154 255.076 226.373 214.295 176.067 214.295C125.761 214.295 84.9804 255.076 84.9804 305.382C84.9804 355.688 125.761 396.469 176.067 396.469Z" fill="#C4CDFF"/>
<path d="M519.107 71.5125C523.396 44.7267 505.158 19.5356 478.373 15.2467C451.587 10.9579 426.396 29.1952 422.107 55.9811C417.818 82.7669 436.055 107.958 462.841 112.247C489.627 116.536 514.818 98.2984 519.107 71.5125Z" fill="#C4CDFF"/>
<path d="M391.652 205.62C431.016 205.62 462.927 173.709 462.927 134.345C462.927 94.9804 431.016 63.0693 391.652 63.0693C352.287 63.0693 320.376 94.9804 320.376 134.345C320.376 173.709 352.287 205.62 391.652 205.62Z" fill="#C4CDFF"/>
<path d="M566.638 228.471C568.495 217.097 560.78 206.372 549.407 204.516C538.033 202.659 527.308 210.374 525.451 221.748C523.595 233.121 531.31 243.846 542.683 245.703C554.057 247.559 564.782 239.844 566.638 228.471Z" fill="#C4CDFF"/>
<path d="M125.752 423.567C128.119 409.391 118.546 395.98 104.37 393.613C90.194 391.245 76.7828 400.819 74.4156 414.995C72.0483 429.171 81.6214 442.582 95.7976 444.949C109.974 447.317 123.385 437.744 125.752 423.567Z" fill="#C4CDFF"/>
<path d="M384.501 56.2699C400.039 56.2699 412.636 43.6735 412.636 28.135C412.636 12.5965 400.039 0 384.501 0C368.962 0 356.366 12.5965 356.366 28.135C356.366 43.6735 368.962 56.2699 384.501 56.2699Z" fill="#C4CDFF"/>
<path d="M551.704 366.569C560.178 356.02 558.497 340.598 547.948 332.123C537.399 323.648 521.977 325.33 513.502 335.879C505.027 346.428 506.709 361.85 517.258 370.325C527.807 378.8 543.229 377.118 551.704 366.569Z" fill="#C4CDFF"/>
<path d="M122.123 95.743C130.065 87.0386 129.447 73.5441 120.742 65.6021C112.038 57.6601 98.5433 58.2781 90.6013 66.9825C82.6593 75.6869 83.2773 89.1814 91.9817 97.1234C100.686 105.065 114.181 104.447 122.123 95.743Z" fill="#C4CDFF"/>
</g>
<g opacity="0.75" class="gear">
<path d="M383.023 418.318V429.233H423.757C423.757 411.566 438.048 397.276 455.714 397.276C473.381 397.276 487.672 411.566 487.672 429.233H528.518V418.318H507.364C506.013 411.904 503.425 405.827 499.937 400.539L514.903 385.573L499.487 370.157L484.521 385.123C479.12 381.634 473.156 379.046 466.742 377.696V356.541H444.912V377.696C438.498 379.046 432.422 381.634 427.133 385.123L412.167 370.157L396.751 385.573L411.717 400.539C408.229 405.94 405.64 411.904 404.29 418.318H383.023Z" fill="#6A80F2"/>
<path d="M85.5961 429.233H120.029C113.728 421.356 109.902 411.229 109.902 400.314C109.902 374.771 130.606 353.953 156.262 353.953C181.805 353.953 202.623 374.658 202.623 400.314C202.623 411.229 198.797 421.244 192.495 429.233H226.928C228.616 425.07 229.966 420.681 230.979 416.18H261.586V384.56H230.979C228.954 375.221 225.353 366.444 220.289 358.792L242.007 337.075L219.614 314.682L197.897 336.399C190.132 331.336 181.468 327.622 172.128 325.709V295.103H140.509V325.709C131.169 327.735 122.392 331.336 114.74 336.399L93.0228 314.682L70.6302 337.075L92.3477 358.792C87.284 366.556 83.5706 375.221 81.6577 384.56H50.9382V416.18H81.5452C82.5579 420.681 83.9082 425.07 85.5961 429.233Z" fill="#6A80F2"/>
</g>
<path d="M100.634 94.0856C100.634 97.8018 97.8029 100.753 94.2371 100.753C90.6714 100.753 87.8398 97.8018 87.8398 94.0856C87.8398 90.3693 90.6714 87.4182 94.2371 87.4182C97.8029 87.4182 100.634 90.3693 100.634 94.0856Z" stroke="#6A80F2" stroke-width="2" stroke-miterlimit="10"/>
<path d="M543.938 256.07C543.938 259.786 541.107 262.737 537.541 262.737C533.975 262.737 531.144 259.786 531.144 256.07C531.144 252.353 533.975 249.402 537.541 249.402C541.107 249.402 543.938 252.353 543.938 256.07Z" stroke="#6A80F2" stroke-width="2" stroke-miterlimit="10"/>
<path d="M88.5739 73.1001C92.664 73.1001 92.664 75.2861 96.8589 75.2861C101.054 75.2861 100.949 73.1001 105.144 73.1001C109.234 73.1001 109.234 75.2861 113.429 75.2861C117.519 75.2861 117.519 73.1001 121.714 73.1001C125.804 73.1001 125.804 75.2861 129.999 75.2861C134.089 75.2861 134.089 73.1001 138.284 73.1001C142.374 73.1001 142.374 75.2861 146.569 75.2861" stroke="#6A80F2" stroke-width="2" stroke-miterlimit="10"/>
<path d="M494.962 233.007C499.052 233.007 499.052 235.193 503.247 235.193C507.337 235.193 507.337 233.007 511.532 233.007C515.622 233.007 515.622 235.193 519.817 235.193C523.907 235.193 523.907 233.007 528.102 233.007C532.192 233.007 532.192 235.193 536.387 235.193C540.477 235.193 540.477 233.007 544.672 233.007C548.762 233.007 548.762 235.193 552.957 235.193" stroke="#6A80F2" stroke-width="2" stroke-miterlimit="10"/>
<path d="M440.427 28.7241C444.518 28.7241 444.518 30.9101 448.713 30.9101C452.908 30.9101 452.803 28.7241 456.998 28.7241C461.088 28.7241 461.088 30.9101 465.283 30.9101C469.373 30.9101 469.373 28.7241 473.568 28.7241C477.658 28.7241 477.658 30.9101 481.853 30.9101C485.943 30.9101 485.943 28.7241 490.138 28.7241C494.228 28.7241 494.228 30.9101 498.423 30.9101" stroke="#6A80F2" stroke-width="2" stroke-miterlimit="10"/>
<path d="M36.8706 228.635L12.2252 261.535" stroke="#6A80F2" stroke-width="2" stroke-miterlimit="10"/>
<path d="M18.0981 238.363C20.0674 238.363 21.6639 236.699 21.6639 234.647C21.6639 232.594 20.0674 230.931 18.0981 230.931C16.1288 230.931 14.5324 232.594 14.5324 234.647C14.5324 236.699 16.1288 238.363 18.0981 238.363Z" stroke="#6A80F2" stroke-width="2" stroke-miterlimit="10"/>
<path d="M34.5637 255.524C34.5637 257.6 32.9906 259.24 30.998 259.24C29.0054 259.24 27.4323 257.6 27.4323 255.524C27.4323 253.447 29.0054 251.807 30.998 251.807C32.9906 251.807 34.5637 253.556 34.5637 255.524Z" stroke="#6A80F2" stroke-width="2" stroke-miterlimit="10"/>
<path d="M223.233 1.72705V14.9524" stroke="#6A80F2" stroke-width="2" stroke-miterlimit="10"/>
<path d="M229.525 8.2854H216.835" stroke="#6A80F2" stroke-width="2" stroke-miterlimit="10"/>
<path d="M137.131 102.502V115.837" stroke="#6A80F2" stroke-width="2" stroke-miterlimit="10"/>
<path d="M143.528 109.169H130.733" stroke="#6A80F2" stroke-width="2" stroke-miterlimit="10"/>
<path d="M405.609 153.873V167.208" stroke="#6A80F2" stroke-width="2" stroke-miterlimit="10"/>
<path d="M412.006 160.54H399.211" stroke="#6A80F2" stroke-width="2" stroke-miterlimit="10"/>
<path d="M537.541 277.602V290.937" stroke="#6A80F2" stroke-width="2" stroke-miterlimit="10"/>
<path d="M543.938 284.27H531.144" stroke="#6A80F2" stroke-width="2" stroke-miterlimit="10"/>
<g class="track">
<path class="blackTrack" d="M365.832 289.766H262.211C259.741 289.766 257.747 287.771 257.747 285.302C257.747 282.832 259.741 280.838 262.211 280.838H365.832C368.301 280.838 370.296 282.832 370.296 285.302C370.296 287.771 368.301 289.766 365.832 289.766Z" fill="#262F57"/>
<path class="whiteTrack" d="M337.908 280.838H262.211C259.741 280.838 257.747 282.832 257.747 285.302C257.747 287.771 259.741 289.766 262.211 289.766H337.908V280.838Z" fill="white"/>
<path class="girl trumb" d="M340.568 292.52C344.554 292.52 347.786 289.288 347.786 285.302C347.786 281.315 344.554 278.083 340.568 278.083C336.581 278.083 333.349 281.315 333.349 285.302C333.349 289.288 336.581 292.52 340.568 292.52Z" fill="#FFE100"/>
</g>
<path d="M102.733 251.53L113.94 252.752L129.425 226.061L125.961 201.814L123.516 192.951L113.023 188.468C113.023 188.468 108.948 183.68 106.095 186.329C103.243 188.978 100.288 197.026 100.288 197.026C100.288 197.026 104.567 212.409 104.465 217.197C104.262 222.088 104.363 241.037 103.548 246.232C102.733 251.53 102.733 251.53 102.733 251.53Z" fill="white"/>
<path d="M100.288 196.618C100.288 196.618 106.197 195.6 109.865 188.366C109.865 188.366 114.245 196.109 124.026 194.581" stroke="#C4CDFF" stroke-width="0.9525" stroke-miterlimit="10"/>
<path d="M100.594 195.6C100.594 195.6 105.892 193.358 107.725 190.71C109.559 188.061 109.865 187.348 109.865 187.348C109.865 187.348 113.43 192.034 116.996 192.951C120.562 193.97 122.599 193.664 122.599 193.664C122.599 193.664 124.127 193.766 123.516 191.83C122.905 189.895 119.747 182.56 118.524 181.846C117.302 181.133 110.374 178.994 107.42 178.994C104.465 178.994 100.288 180.216 98.5564 180.828C96.8245 181.541 95.0926 181.439 96.3152 183.986C97.4358 186.533 100.594 195.6 100.594 195.6Z" fill="white"/>
<path d="M112.921 191.831C112.921 191.831 118.117 216.383 116.589 245.316" stroke="#C4CDFF" stroke-width="0.9525" stroke-miterlimit="10"/>
<path d="M112.819 197.128C112.819 197.739 112.31 198.351 111.597 198.351C110.985 198.351 110.374 197.841 110.374 197.128C110.374 196.517 110.883 195.906 111.597 195.906C112.208 196.007 112.819 196.517 112.819 197.128Z" fill="#C4CDFF"/>
<path d="M113.43 209.964C113.43 210.576 112.921 211.187 112.208 211.187C111.597 211.187 110.985 210.678 110.985 209.964C110.985 209.353 111.495 208.742 112.208 208.742C112.921 208.742 113.532 209.251 113.43 209.964Z" fill="#C4CDFF"/>
<path d="M114.245 221.884C114.245 222.495 113.736 223.106 113.023 223.106C112.412 223.106 111.8 222.597 111.8 221.884C111.8 221.273 112.31 220.661 113.023 220.661C113.736 220.661 114.245 221.273 114.245 221.884Z" fill="#C4CDFF"/>
<path d="M115.366 234.211C115.366 234.822 114.857 235.433 114.144 235.433C113.532 235.433 112.921 234.924 112.921 234.211C112.921 233.6 113.43 232.988 114.144 232.988C114.857 232.988 115.366 233.6 115.366 234.211Z" fill="#C4CDFF"/>
<path d="M108.133 195.906C108.133 195.906 110.782 226.672 110.883 231.358" stroke="#C4CDFF" stroke-width="0.9525" stroke-miterlimit="10"/>
<path d="M129.629 229.728C129.629 229.728 128.61 214.956 127.184 208.029C125.757 201.203 121.58 187.755 121.58 187.755C121.58 187.755 118.524 182.56 121.58 184.393C124.637 186.227 136.047 194.785 139.918 202.426C143.688 210.066 150.106 221.68 148.679 235.23C147.253 248.779 144.604 260.801 144.604 260.801L146.744 276.591C146.744 276.591 148.476 287.187 147.559 288.613C146.642 290.039 144.095 292.688 139.001 293.91C133.907 295.133 113.94 297.374 113.94 297.374L87.4518 297.069L96.6207 260.189L122.192 259.374L129.629 229.728Z" fill="#F24693"/>
<path d="M131.972 199.878C131.972 199.878 140.937 222.597 142.771 238.388" stroke="#CF216D" stroke-width="0.9525" stroke-miterlimit="10"/>
<g class="girl right hand del05">
<path d="M143.586 204.871C142.873 204.565 142.669 203.75 142.974 203.139L151.124 185.412C151.43 184.699 152.245 184.495 152.856 184.801C153.57 185.107 153.875 186.024 153.57 186.635L145.318 204.259C145.114 204.871 144.299 205.176 143.586 204.871Z" fill="#FFE100"/>
<path d="M151.328 185.107L155.301 179.504L153.671 186.329C153.671 186.533 153.468 186.635 153.264 186.533L151.43 185.616C151.328 185.412 151.226 185.209 151.328 185.107Z" fill="white"/>
<path d="M153.366 182.458L154.486 182.968L155.2 180.115L153.366 182.458Z" fill="#FFE100"/>
<path d="M165.489 221.884C165.489 218.42 165.082 215.058 164.165 211.696C159.682 194.683 148.578 185.922 147.661 186.838C146.744 187.755 152.449 195.192 152.449 195.192C152.449 195.192 146.744 188.265 145.827 188.774C145.012 189.284 150.717 197.128 150.717 197.128C150.717 197.128 144.91 189.997 143.993 191.219C143.484 192.034 145.623 194.989 147.253 197.128C145.521 195.192 143.178 192.645 142.669 193.664C141.854 195.192 147.864 197.943 150.717 211.493C151.328 214.141 151.125 216.994 150.411 219.643C152.856 220.254 158.052 221.375 165.489 221.884Z" fill="#FF8685"/>
<path d="M165.489 223.106L150.208 220.56C146.948 231.97 135.537 242.259 135.537 242.259L145.419 260.801C158.052 250.104 165.081 236.656 165.489 223.106Z" fill="#F24693" stroke="#CF216D" stroke-width="0.9525" stroke-miterlimit="10"/>
<path d="M146.438 228.812L164.572 230.034C165.285 226.265 165.591 222.393 165.285 218.624L150.717 217.707C150.208 221.578 148.578 225.45 146.438 228.812Z" fill="#F24693" stroke="#CF216D" stroke-width="0.9525" stroke-miterlimit="10"/>
<path d="M153.264 217.707C153.264 217.707 152.449 224.125 150.411 229.117" stroke="#CF216D" stroke-width="0.9525" stroke-miterlimit="10"/>
<path d="M156.422 217.809C156.422 217.809 155.811 223.616 154.588 229.423" stroke="#CF216D" stroke-width="0.9525" stroke-miterlimit="10"/>
<path d="M160.293 218.319C160.293 218.319 159.376 227.182 158.765 229.627" stroke="#CF216D" stroke-width="0.9525" stroke-miterlimit="10"/>
<path d="M163.146 218.319C163.146 218.319 162.84 226.774 162.331 229.729" stroke="#CF216D" stroke-width="0.9525" stroke-miterlimit="10"/>
</g>
<path d="M148.883 405.058L139.307 366.65L153.264 365.326L162.025 407.095L148.883 405.058Z" fill="#FF8685"/>
<path d="M137.575 386.007L105.28 254.688L135.334 254.994L160.701 383.46L137.575 386.007Z" fill="#354FCC"/>
<path d="M167.215 403.593L144.888 405.119L144.866 427.769L188.323 427.916L168.7 411.837L167.215 403.593Z" fill="#262F57"/>
<path d="M173.028 411.272L169.055 415.551" stroke="white" stroke-width="0.9525" stroke-miterlimit="10"/>
<path d="M175.982 413.513L171.5 417.996" stroke="white" stroke-width="0.9525" stroke-miterlimit="10"/>
<path d="M91.5284 405.939L90.7134 370.791L103.55 370.995L104.365 411.338L91.5284 405.939Z" fill="#FF8685"/>
<path d="M108.948 270.581L109.253 388.86L87.1462 390.49L78.6905 256.828L109.05 257.134L108.948 270.581Z" fill="#354FCC"/>
<path d="M86.8839 403.108L108.869 404.741L108.814 427.24L65.8388 427.069L85.3126 411.172L86.8839 403.108Z" fill="#262F57"/>
<path d="M81.0336 414.43L85.5162 418.2" stroke="white" stroke-width="0.9525" stroke-miterlimit="10"/>
<path d="M78.3848 416.977L83.3768 420.95" stroke="white" stroke-width="0.9525" stroke-miterlimit="10"/>
<path d="M73.3929 266.913L70.3367 277.916C69.4198 281.176 71.3554 284.64 74.6155 285.557L80.4224 287.187C83.6824 288.104 87.1462 286.168 88.0631 282.908L91.1194 271.905L73.3929 266.913Z" stroke="#1E1A35" stroke-width="0.9525" stroke-miterlimit="10"/>
<path d="M68.6048 257.846C66.2616 265.283 59.8434 285.557 59.334 289.733C58.8246 293.91 85.8219 299.106 88.0631 298.495C90.3044 297.884 101.918 271.192 104.16 238.795C106.401 206.399 95.3982 183.171 95.3982 183.171C95.3982 183.171 75.838 190.506 66.1597 207.417C56.3796 224.329 55.5646 236.554 58.2134 242.87C60.8622 249.187 61.9828 251.428 64.1222 253.771C65.141 254.892 68.6048 257.846 68.6048 257.846Z" fill="#F24693"/>
<path d="M73.393 266.913L70.3367 277.916C69.4198 281.176 71.3555 284.64 74.6155 285.557L80.4225 287.187C83.6825 288.104 87.1463 286.168 88.0632 282.908L91.1195 271.905L73.393 266.913Z" stroke="#CF216D" stroke-width="0.9525" stroke-miterlimit="10"/>
<path d="M148.68 226.876C139.103 178.485 104.873 179.911 104.873 179.911C75.6342 187.857 61.9828 209.455 58.1115 226.367C54.2402 243.176 62.6959 255.503 71.9666 259.68C75.8379 261.412 86.9425 263.144 98.5564 264.366L101.205 249.492C95.8057 248.27 90.61 246.64 85.8218 244.399C72.5779 238.184 92.8513 213.021 92.8513 213.021" stroke="#CF216D" stroke-width="0.9525" stroke-miterlimit="10"/>
<g class="girl hand">
<path d="M106.503 274.248L143.586 274.554L157.848 223.514L120.765 223.106L106.503 274.248Z" fill="#262F57"/>
<path d="M134.621 221.68L132.787 227.487L143.891 227.589L145.827 221.884L134.621 221.68Z" fill="#6A80F2"/>
<path d="M132.686 266.47C132.788 265.145 121.684 263.108 121.684 263.108C121.684 263.108 134.724 265.145 134.826 264.025C134.928 262.904 121.786 261.172 121.786 261.172C121.786 261.172 134.724 262.497 134.826 261.274C134.928 260.153 121.989 258.32 121.989 258.32C121.989 258.32 135.03 259.542 134.826 258.422C134.622 257.403 121.378 255.875 121.378 255.875C121.378 255.875 129.63 255.569 130.139 254.55C130.649 253.633 128.102 253.328 128.102 253.328C118.627 252.411 107.115 251.392 96.5203 248.54L92.7509 263.821C110.681 266.062 132.686 267.387 132.686 266.47Z" fill="#FF8685"/>
</g>
<path d="M101.103 249.492C97.7413 248.677 94.3794 247.761 91.1194 246.64L87.0443 262.94C90.61 263.449 94.5832 263.959 98.5563 264.366L101.103 249.492Z" fill="#F24693" stroke="#CF216D" stroke-miterlimit="10"/>
<path d="M90.3044 249.594L100.696 251.937" stroke="#CF216D" stroke-width="0.9525" stroke-miterlimit="10"/>
<path d="M89.3875 253.466L100.084 255.707" stroke="#CF216D" stroke-width="0.9525" stroke-miterlimit="10"/>
<path d="M88.5724 256.929L99.4732 259.273" stroke="#CF216D" stroke-width="0.9525" stroke-miterlimit="10"/>
<path d="M87.7574 260.189L98.6582 262.329" stroke="#CF216D" stroke-width="0.9525" stroke-miterlimit="10"/>
<path d="M108.675 186.121L107.147 186.019C104.6 185.713 102.665 183.472 102.97 180.925L103.989 170.228C104.295 167.681 106.536 165.746 109.083 166.051L110.611 166.153C113.158 166.459 115.094 168.7 114.788 171.247L113.769 181.944C113.565 184.491 111.222 186.325 108.675 186.121Z" fill="#FF8685"/>
<path d="M112.785 141.569C112.785 141.569 124.602 142.588 127.761 151.553C127.761 151.553 128.576 155.221 128.474 158.175C128.474 158.175 134.892 162.963 134.688 173.151C134.688 173.151 121.546 174.17 114.72 170.91C107.895 167.548 112.785 141.569 112.785 141.569Z" fill="#262F57"/>
<path d="M123.314 156.851C123.517 157.055 126.981 162.963 126.981 162.963L123.721 164.084L123.314 156.851Z" fill="#FF8685"/>
<path d="M120.188 145.205L123.245 146.632C123.245 146.632 124.569 166.701 124.569 168.331C124.569 169.961 123.958 173.833 122.226 174.342C118.762 175.463 102.564 173.12 102.564 173.12C102.564 173.12 100.628 160.283 100.934 157.125C101.036 154.069 102.971 141.844 120.188 145.205Z" fill="#FF8685"/>
<path d="M103.649 141.261C106.593 138.317 106.593 133.544 103.649 130.6C100.705 127.656 95.9317 127.656 92.9877 130.6C90.0436 133.544 90.0436 138.317 92.9877 141.261C95.9317 144.205 100.705 144.205 103.649 141.261Z" fill="#262F57"/>
<path d="M103.957 133.324C103.957 133.228 103.858 133.133 103.858 133.133C100.668 133.515 98.0772 133.037 96.2833 131.604C95.7849 131.222 95.2866 130.745 94.9877 130.363C94.888 130.363 94.7883 130.458 94.7883 130.458C95.187 130.936 95.6853 131.413 96.1836 131.795C97.6785 132.846 99.5721 133.419 101.864 133.419C102.462 133.419 103.16 133.419 103.957 133.324Z" fill="#4862E0"/>
<path d="M104.976 137.117C104.976 137.023 104.976 136.928 104.976 136.928C101.592 137.589 98.5957 137.306 95.9856 135.985C94.0522 135.042 92.7954 133.627 91.8287 132.4C91.8287 132.495 91.7321 132.495 91.7321 132.589C92.6988 133.815 94.0522 135.23 95.8889 136.174C97.5323 137.023 99.3691 137.494 101.399 137.494C102.656 137.494 103.816 137.4 104.976 137.117Z" fill="#4862E0"/>
<path d="M92.6538 137.902C91.7805 137.116 91.1984 136.242 90.8103 135.457C90.8103 135.544 90.8103 135.631 90.7133 135.806C92.0716 138.164 95.3705 141.482 102.647 141.569C102.744 141.482 102.841 141.394 102.938 141.394C99.4455 141.394 95.4675 140.609 92.6538 137.902Z" fill="#4862E0"/>
<path d="M109.151 161.064C109.151 161.064 110.476 163.203 113.125 165.444C115.773 167.686 117.913 172.576 117.505 178.179L85.5162 171.149C85.5162 171.149 86.3312 165.343 90.3044 163.101C94.2775 160.86 95.2963 158.415 95.6019 154.951C95.9076 151.487 95.6019 142.624 106.706 141.503C117.811 140.383 123.109 146.292 123.109 146.292C123.109 146.292 121.275 149.348 117.505 149.959C113.736 150.57 113.125 150.265 112.717 153.729C112.412 156.989 112.921 161.267 109.151 161.064Z" fill="#262F57"/>
<path d="M113.125 169.723H112.921C112.921 169.723 113.328 172.372 112.106 174.613C111.698 175.326 111.495 176.039 111.291 176.753L111.495 176.854C111.597 176.243 111.902 175.53 112.208 174.817C113.532 172.474 113.125 169.825 113.125 169.723Z" fill="#4862E0"/>
<path d="M107.623 169.112H107.42C107.42 169.112 107.318 171.965 105.891 173.595C105.382 174.104 105.178 174.715 104.975 175.327L105.178 175.428C105.382 174.919 105.586 174.308 105.993 173.798C107.42 172.066 107.623 169.214 107.623 169.112Z" fill="#4862E0"/>
<path d="M102.02 165.75H101.816C101.816 165.75 101.816 167.788 100.288 170.334C99.5751 171.557 99.3713 172.983 99.2695 174.104L99.4732 174.206C99.5751 172.983 99.8807 171.659 100.492 170.436C101.918 167.788 102.02 165.852 102.02 165.75Z" fill="#4862E0"/>
<path d="M92.0363 172.576L92.24 172.678C92.7494 170.742 93.4625 168.603 94.5832 167.584C97.0282 165.343 97.2319 161.369 97.2319 161.369H97.0282C97.0282 161.369 96.8244 165.343 94.4813 167.482C93.2588 168.399 92.5456 170.538 92.0363 172.576Z" fill="#4862E0"/>
<path d="M111.393 158.415C111.393 160.86 109.355 162.796 106.91 162.796C104.465 162.796 102.53 160.758 102.53 158.313C102.53 155.868 104.567 153.933 107.012 153.933C109.457 153.933 111.393 155.97 111.393 158.415Z" fill="#FF8685"/>
<path d="M107.522 160.045C106.503 160.249 105.586 159.536 105.382 158.517C105.178 157.498 105.892 156.581 106.91 156.377" stroke="#873636" stroke-width="0.4763" stroke-miterlimit="10"/>
<path d="M118.728 161.471C118.728 162.898 117.607 164.018 116.181 163.916C114.755 163.916 113.634 162.796 113.736 161.369C113.736 159.943 114.857 158.823 116.283 158.924C117.607 158.924 118.728 160.147 118.728 161.471Z" fill="#F96766"/>
<path d="M119.543 157.6C119.543 158.211 119.034 158.721 118.422 158.721C117.811 158.721 117.302 158.211 117.302 157.6C117.302 156.989 117.811 156.479 118.422 156.479C119.034 156.581 119.543 156.989 119.543 157.6Z" fill="#873636"/>
<path d="M115.366 155.053L119.543 153.219" stroke="#262F57" stroke-width="0.9525" stroke-miterlimit="10"/>
<path d="M121.479 164.833C121.479 164.833 121.377 167.074 124.433 166.972" stroke="#873636" stroke-width="0.7144" stroke-miterlimit="10"/>
<path d="M404.449 103.116H182.53V249.558H404.449V103.116Z" fill="#6A80F2"/>
<path d="M399.734 97.7898H177.815V244.231H399.734V97.7898Z" fill="white"/>
<path d="M177.309 75.3501L191.668 88.8531" stroke="#4862E0" stroke-width="1.052" stroke-miterlimit="10" stroke-linecap="round" stroke-linejoin="round"/>
<path d="M191.668 75.3501L177.309 88.8531" stroke="#4862E0" stroke-width="1.052" stroke-miterlimit="10" stroke-linecap="round" stroke-linejoin="round"/>
<path d="M215.352 75.3499H202.111V89.0431H215.352V75.3499Z" stroke="#4862E0" stroke-width="1.052" stroke-miterlimit="10" stroke-linecap="round" stroke-linejoin="round"/>
<path d="M239.409 82.1965C239.409 86.0001 236.425 89.0431 232.695 89.0431C228.966 89.0431 225.982 86.0001 225.982 82.1965C225.982 78.3928 228.966 75.3499 232.695 75.3499C236.425 75.3499 239.409 78.2026 239.409 82.1965Z" stroke="#4862E0" stroke-width="1.052" stroke-miterlimit="10"/>
<path d="M251.344 82.197H399.227" stroke="#4862E0" stroke-width="1.052" stroke-miterlimit="10"/>
<path class="diagramI del06" d="M369.762 133.546H342.908V212.092H369.762V133.546Z" fill="#F24693"/>
<path class="diagramI del04" d="M322.395 172.724H295.541V211.902H322.395V172.724Z" fill="#4862E0"/>
<path class="diagramI del02" d="M274.841 149.902H247.987V211.902H274.841V149.902Z" fill="#262F57"/>
<path class="diagramI" d="M227.473 189.27H200.619V211.901H227.473V189.27Z" fill="#DDFF00"/>
<path d="M192.414 211.902H384.122V120.233" stroke="#4862E0" stroke-width="1.052" stroke-miterlimit="10"/>
<path d="M14.9753 103.378C28.9371 95.6848 46.508 100.814 54.2012 114.775C59.0451 123.608 58.7601 133.961 54.3911 142.224L70.0625 156.851L47.5527 150.677C46.1281 151.912 44.5134 153.051 42.8038 154.001C28.8421 161.694 11.2712 156.566 3.57797 142.604C-4.11523 128.642 1.01357 111.071 14.9753 103.378Z" fill="#FFE100"/>
<path class="phone" d="M24.0932 121.614L22.0987 123.418C21.4338 123.988 21.2439 124.843 21.4338 125.698C22.1936 127.882 23.7133 130.257 25.9928 132.251C28.2722 134.246 30.7417 135.48 33.0211 136.05C33.8759 136.24 34.7307 135.86 35.2056 135.195L36.8203 133.011L44.2285 139.659C39.7646 144.598 29.9818 143.174 22.3836 136.43C14.7854 129.687 12.221 120.094 16.5899 115.155L24.0932 121.614Z" fill="white"/>
<path d="M513.136 112.025H432.974V166.922H513.136V112.025Z" fill="#FFE100"/>
<path d="M509.906 115.634L473.055 153.815L436.203 115.634" stroke="#4862E0" stroke-width="1.052" stroke-miterlimit="10"/>
<path d="M459.378 139.569L436.203 163.503" stroke="#4862E0" stroke-width="1.052" stroke-miterlimit="10"/>
<path d="M509.906 163.503L486.732 139.569" stroke="#4862E0" stroke-width="1.052" stroke-miterlimit="10"/>
<path d="M404.449 284.196H474.733" stroke="#F24693" stroke-width="2" stroke-miterlimit="10"/>
<path d="M404.449 297.493H467.799" stroke="#F24693" stroke-width="2" stroke-miterlimit="10"/>
<path d="M404.449 310.79H460.106" stroke="#F24693" stroke-width="2" stroke-miterlimit="10"/>
<path d="M404.449 323.992H450.988" stroke="#F24693" stroke-width="2" stroke-miterlimit="10"/>
<path d="M32.6444 427.842L557.664 427.842" stroke="#262F57" stroke-width="1.3436" stroke-miterlimit="10"/>
</svg>
