<?xml version="1.0" encoding="utf-8"?>
<?xml-stylesheet href="../css/animation.css" type="text/css"?>

<svg width="570" viewBox="0 0 570 461" fill="none" xmlns="http://www.w3.org/2000/svg">
<g opacity="0.25">
<path d="M486.357 299.668C508.909 299.668 527.191 281.386 527.191 258.834C527.191 236.282 508.909 218 486.357 218C463.805 218 445.523 236.282 445.523 258.834C445.523 281.386 463.805 299.668 486.357 299.668Z" fill="#6A80F2"/>
<path d="M189.538 184.658H108.523V129H133.974C164.646 129.093 189.538 153.985 189.538 184.658Z" fill="#6A80F2"/>
<path d="M327.175 355.804V364.847H360.924C360.924 350.21 372.764 338.37 387.401 338.37C402.038 338.37 413.878 350.21 413.878 364.847H447.72V355.804H430.193C429.074 350.49 426.93 345.455 424.04 341.074L436.439 328.674L423.667 315.902L411.268 328.301C406.793 325.411 401.852 323.267 396.538 322.148V304.621H378.451V322.148C373.137 323.267 368.103 325.411 363.721 328.301L351.322 315.902L338.549 328.674L350.949 341.074C348.059 345.548 345.914 350.49 344.796 355.804H327.175Z" fill="#6A80F2"/>
<path d="M70.2371 364.847H98.7651C93.5443 358.321 90.3745 349.93 90.3745 340.887C90.3745 319.724 107.529 302.477 128.785 302.477C149.948 302.477 167.195 319.631 167.195 340.887C167.195 349.93 164.025 358.228 158.804 364.847H187.332C188.731 361.397 189.849 357.761 190.689 354.032H216.047V327.835H190.689C189.01 320.097 186.027 312.825 181.832 306.486L199.825 288.493L181.272 269.94L163.279 287.933C156.847 283.738 149.668 280.661 141.93 279.076V253.718H115.733V279.076C107.995 280.755 100.723 283.738 94.3833 287.933L76.3902 269.94L57.8377 288.493L75.8309 306.486C71.6356 312.918 68.559 320.097 66.9741 327.835H41.5227V354.032H66.8809C67.72 357.761 68.8387 361.397 70.2371 364.847Z" fill="#6A80F2"/>
</g>
<path d="M9.52271 365L524.873 365" stroke="#262F57" stroke-width="1.3436" stroke-miterlimit="10"/>
<path opacity="0.3" d="M384.267 414.63H190L207.439 381.093H362.56L384.267 414.63Z" fill="black"/>
<path d="M384.267 412.313H190L207.439 378.899H362.56L384.267 412.313Z" fill="#6A80F2"/>
<path d="M208 408.048H218.61" stroke="#9EAEFF" stroke-width="1.3436" stroke-miterlimit="10"/>
<path d="M222.756 408.048H233.244" stroke="#9EAEFF" stroke-width="1.3436" stroke-miterlimit="10"/>
<path d="M237.39 408.048H248" stroke="#9EAEFF" stroke-width="1.3436" stroke-miterlimit="10"/>
<path d="M252.146 408.048H262.756" stroke="#9EAEFF" stroke-width="1.3436" stroke-miterlimit="10"/>
<path d="M266.902 408.048H277.39" stroke="#9EAEFF" stroke-width="1.3436" stroke-miterlimit="10"/>
<path d="M281.536 408.048H292.146" stroke="#9EAEFF" stroke-width="1.3436" stroke-miterlimit="10"/>
<path d="M296.292 408.048H306.902" stroke="#9EAEFF" stroke-width="1.3436" stroke-miterlimit="10"/>
<path d="M311.048 408.048H321.536" stroke="#9EAEFF" stroke-width="1.3436" stroke-miterlimit="10"/>
<path d="M325.682 408.048H336.292" stroke="#9EAEFF" stroke-width="1.3436" stroke-miterlimit="10"/>
<path d="M340.438 408.048H351.048" stroke="#9EAEFF" stroke-width="1.3436" stroke-miterlimit="10"/>
<path d="M355.194 408.048H365.682" stroke="#9EAEFF" stroke-width="1.3436" stroke-miterlimit="10"/>
<path d="M210.683 401.951H220.805" stroke="#9EAEFF" stroke-width="1.3436" stroke-miterlimit="10"/>
<path d="M224.829 401.951H234.951" stroke="#9EAEFF" stroke-width="1.3436" stroke-miterlimit="10"/>
<path d="M238.975 401.951H249.097" stroke="#9EAEFF" stroke-width="1.3436" stroke-miterlimit="10"/>
<path d="M253.122 401.951H263.243" stroke="#9EAEFF" stroke-width="1.3436" stroke-miterlimit="10"/>
<path d="M267.268 401.951H277.389" stroke="#9EAEFF" stroke-width="1.3436" stroke-miterlimit="10"/>
<path d="M281.414 401.951H291.536" stroke="#9EAEFF" stroke-width="1.3436" stroke-miterlimit="10"/>
<path d="M295.56 401.951H305.682" stroke="#9EAEFF" stroke-width="1.3436" stroke-miterlimit="10"/>
<path d="M309.706 401.951H319.828" stroke="#9EAEFF" stroke-width="1.3436" stroke-miterlimit="10"/>
<path d="M323.853 401.951H333.975" stroke="#9EAEFF" stroke-width="1.3436" stroke-miterlimit="10"/>
<path d="M337.999 401.951H348.121" stroke="#9EAEFF" stroke-width="1.3436" stroke-miterlimit="10"/>
<path d="M352.145 401.951H362.267" stroke="#9EAEFF" stroke-width="1.3436" stroke-miterlimit="10"/>
<path d="M128.257 206.021H25.3312V276.508H128.257V206.021Z" fill="#6A80F2"/>
<path d="M124.599 201.387H21.6727V271.874H124.599V201.387Z" fill="#FFE100"/>
<path d="M120.452 206.021L73.1355 255.045L25.8188 206.021" stroke="#4862E0" stroke-width="1.052" stroke-miterlimit="10"/>
<path d="M55.5746 236.753L25.8187 267.484" stroke="#4862E0" stroke-width="1.052" stroke-miterlimit="10"/>
<path d="M120.452 267.484L90.6962 236.753" stroke="#4862E0" stroke-width="1.052" stroke-miterlimit="10"/>
<path d="M194.001 21.1436H48.8801V115.045H194.001V21.1436Z" fill="#6A80F2"/>
<path d="M190.586 17.8511H45.4655V111.753H190.586V17.8511Z" fill="#F0F2FF"/>
<path d="M45.4655 3.33936L54.8557 11.9978" stroke="#4862E0" stroke-width="1.052" stroke-miterlimit="10" stroke-linecap="round" stroke-linejoin="round"/>
<path d="M54.8557 3.33936L45.4655 11.9978" stroke="#4862E0" stroke-width="1.052" stroke-miterlimit="10" stroke-linecap="round" stroke-linejoin="round"/>
<path d="M70.3433 3.33887H61.6849V12.1193H70.3433V3.33887Z" stroke="#4862E0" stroke-width="1.052" stroke-miterlimit="10" stroke-linecap="round" stroke-linejoin="round"/>
<path d="M86.075 7.72907C86.075 10.1681 84.1238 12.1193 81.6848 12.1193C79.2458 12.1193 77.2946 10.1681 77.2946 7.72907C77.2946 5.29007 79.2458 3.33887 81.6848 3.33887C84.1238 3.33887 86.075 5.16812 86.075 7.72907Z" stroke="#4862E0" stroke-width="1.052" stroke-miterlimit="10"/>
<path d="M93.8796 7.72949H190.586" stroke="#4862E0" stroke-width="1.052" stroke-miterlimit="10"/>
<path class="diagramI del06" d="M171.318 40.6553H153.757V91.0207H171.318V40.6553Z" fill="#F24693"/>
<path class="diagramI del04" d="M140.343 65.7769H122.782V90.8986H140.343V65.7769Z" fill="#4862E0"/>
<path class="diagramI del02" d="M109.245 51.1426H91.6844V90.8983H109.245V51.1426Z" fill="#262F57"/>
<path class="diagramI" d="M78.27 76.3862H60.7092V90.8983H78.27V76.3862Z" fill="#DDFF00"/>
<path d="M55.3436 90.8991H180.708V32.1191" stroke="#4862E0" stroke-width="1.052" stroke-miterlimit="10"/>
<path d="M60.7092 100.655H78.27" stroke="#9EAEFF" stroke-miterlimit="10"/>
<path d="M91.6844 100.655H109.245" stroke="#9EAEFF" stroke-miterlimit="10"/>
<path d="M122.782 100.655H140.343" stroke="#9EAEFF" stroke-miterlimit="10"/>
<path d="M153.757 100.655H171.318" stroke="#9EAEFF" stroke-miterlimit="10"/>
<path d="M44.0289 153.411C44.0289 157.557 40.7363 160.85 36.59 160.85C32.4437 160.85 29.151 157.557 29.151 153.411C29.151 149.264 32.4437 145.972 36.59 145.972C40.7363 145.972 44.0289 149.264 44.0289 153.411Z" stroke="#6A80F2" stroke-width="2" stroke-miterlimit="10"/>
<path d="M288.051 42.1919C288.051 46.3382 284.758 49.6308 280.612 49.6308C276.466 49.6308 273.173 46.3382 273.173 42.1919C273.173 38.0456 276.466 34.7529 280.612 34.7529C284.758 34.7529 288.051 38.0456 288.051 42.1919Z" stroke="#6A80F2" stroke-width="2" stroke-miterlimit="10"/>
<path d="M559.512 334.141C559.512 338.287 556.22 341.58 552.073 341.58C547.927 341.58 544.634 338.287 544.634 334.141C544.634 329.994 547.927 326.702 552.073 326.702C556.22 326.702 559.512 329.994 559.512 334.141Z" stroke="#6A80F2" stroke-width="2" stroke-miterlimit="10"/>
<path d="M30.0046 129.996C34.7606 129.996 34.7606 132.435 39.6387 132.435C44.5167 132.435 44.3947 129.996 49.2727 129.996C54.0288 129.996 54.0288 132.435 58.9068 132.435C63.6628 132.435 63.6628 129.996 68.5408 129.996C73.2969 129.996 73.2969 132.435 78.1749 132.435C82.931 132.435 82.931 129.996 87.809 129.996C92.565 129.996 92.565 132.435 97.443 132.435" stroke="#6A80F2" stroke-width="2" stroke-miterlimit="10"/>
<path d="M502.562 308.409C507.318 308.409 507.318 310.848 512.196 310.848C516.952 310.848 516.952 308.409 521.83 308.409C526.586 308.409 526.586 310.848 531.464 310.848C536.22 310.848 536.22 308.409 541.098 308.409C545.854 308.409 545.854 310.848 550.732 310.848C555.488 310.848 555.488 308.409 560.366 308.409C565.122 308.409 565.122 310.848 570 310.848" stroke="#6A80F2" stroke-width="2" stroke-miterlimit="10"/>
<path d="M439.147 80.4844C443.904 80.4844 443.904 82.9234 448.782 82.9234C453.66 82.9234 453.538 80.4844 458.416 80.4844C463.172 80.4844 463.172 82.9234 468.05 82.9234C472.806 82.9234 472.806 80.4844 477.684 80.4844C482.44 80.4844 482.44 82.9234 487.318 82.9234C492.074 82.9234 492.074 80.4844 496.952 80.4844C501.708 80.4844 501.708 82.9234 506.586 82.9234" stroke="#6A80F2" stroke-width="2" stroke-miterlimit="10"/>
<path d="M41.374 306.782L12.7157 343.489" stroke="#6A80F2" stroke-width="2" stroke-miterlimit="10"/>
<path d="M19.5449 317.636C21.8349 317.636 23.6912 315.78 23.6912 313.49C23.6912 311.2 21.8349 309.343 19.5449 309.343C17.255 309.343 15.3986 311.2 15.3986 313.49C15.3986 315.78 17.255 317.636 19.5449 317.636Z" stroke="#6A80F2" stroke-width="2" stroke-miterlimit="10"/>
<path d="M38.6912 336.782C38.6912 339.099 36.8619 340.928 34.5449 340.928C32.2278 340.928 30.3986 339.099 30.3986 336.782C30.3986 334.465 32.2278 332.636 34.5449 332.636C36.8619 332.636 38.6912 334.587 38.6912 336.782Z" stroke="#6A80F2" stroke-width="2" stroke-miterlimit="10"/>
<path d="M186.589 50.3628V65.1188" stroke="#6A80F2" stroke-width="2" stroke-miterlimit="10"/>
<path d="M193.906 57.6797H179.15" stroke="#6A80F2" stroke-width="2" stroke-miterlimit="10"/>
<path d="M86.4676 162.8V177.678" stroke="#6A80F2" stroke-width="2" stroke-miterlimit="10"/>
<path d="M93.9065 170.24H79.0286" stroke="#6A80F2" stroke-width="2" stroke-miterlimit="10"/>
<path d="M398.66 220.118V234.996" stroke="#6A80F2" stroke-width="2" stroke-miterlimit="10"/>
<path d="M406.099 227.557H391.221" stroke="#6A80F2" stroke-width="2" stroke-miterlimit="10"/>
<path d="M552.073 358.165V373.043" stroke="#6A80F2" stroke-width="2" stroke-miterlimit="10"/>
<path d="M559.512 365.604H544.634" stroke="#6A80F2" stroke-width="2" stroke-miterlimit="10"/>
<path d="M473.836 23.7803H358.593V181.584H473.836V23.7803Z" fill="#6A80F2"/>
<path d="M477.373 20.1216H362.13V177.925H477.373V20.1216Z" fill="#F0F2FF"/>
<path d="M477.373 0H362.13V15.3657H477.373V0Z" fill="#FFE100"/>
<g class="circle">
<path d="M419.69 115.121C397.617 115.121 379.691 97.1942 379.691 75.1212C379.691 53.0483 397.739 35.1216 419.69 35.1216C441.763 35.1216 459.69 53.0483 459.69 75.1212C459.69 97.1942 441.763 115.121 419.69 115.121ZM419.69 57.0726C409.812 57.0726 401.642 65.1213 401.642 75.1212C401.642 85.1212 409.691 93.1699 419.69 93.1699C429.69 93.1699 437.739 85.1212 437.739 75.1212C437.739 65.1213 429.69 57.0726 419.69 57.0726Z" fill="#9EAEFF"/>
<path d="M458.349 85.3651C459.202 82.0724 459.69 78.6578 459.69 75.1212C459.69 53.0483 441.764 35.1216 419.691 35.1216V57.0726C429.569 57.0726 437.739 65.1213 437.739 75.1212C437.739 76.7066 437.495 78.292 437.129 79.7554L458.349 85.3651Z" fill="#F24693"/>
<path d="M401.764 75.1212C401.764 73.17 402.129 71.3407 402.617 69.6334L381.764 62.8042C380.544 66.7066 379.812 70.8529 379.812 75.1212C379.812 77.926 380.056 80.7309 380.666 83.4138L402.129 78.9016C401.886 77.6821 401.764 76.3407 401.764 75.1212Z" fill="#DDFF00"/>
<path d="M437.129 79.6338C436.276 82.8045 434.69 85.6093 432.495 87.8044L447.983 103.292C452.983 98.2922 456.641 92.0727 458.471 85.1215L437.129 79.6338Z" fill="#4862E0"/>
<path d="M419.69 115.121C430.788 115.121 440.788 110.609 447.983 103.292L432.495 87.8042C429.202 91.0969 424.69 93.17 419.69 93.17C416.398 93.17 413.349 92.3164 410.666 90.731L399.69 109.755C405.666 113.17 412.495 115.121 419.69 115.121Z" fill="#262F57"/>
</g>
<path d="M386.764 134.389C386.764 136.096 385.423 137.438 383.715 137.438C382.008 137.438 380.667 136.096 380.667 134.389C380.667 132.682 382.008 131.34 383.715 131.34C385.423 131.34 386.764 132.682 386.764 134.389Z" fill="#262F57"/>
<path d="M390.057 134.389H458.836" stroke="#9EAEFF" stroke-miterlimit="10"/>
<path d="M386.764 147.803C386.764 149.511 385.423 150.852 383.715 150.852C382.008 150.852 380.667 149.511 380.667 147.803C380.667 146.096 382.008 144.755 383.715 144.755C385.423 144.633 386.764 146.096 386.764 147.803Z" fill="#F26AF2"/>
<path d="M390.057 147.804H458.836" stroke="#9EAEFF" stroke-miterlimit="10"/>
<path d="M386.764 161.096C386.764 162.803 385.423 164.145 383.715 164.145C382.008 164.145 380.667 162.803 380.667 161.096C380.667 159.389 382.008 158.047 383.715 158.047C385.423 158.047 386.764 159.389 386.764 161.096Z" fill="#4862E0"/>
<path d="M390.057 161.096H458.836" stroke="#9EAEFF" stroke-miterlimit="10"/>
<path d="M471.763 3.90234L463.592 11.4633" stroke="#4862E0" stroke-miterlimit="10" stroke-linecap="round" stroke-linejoin="round"/>
<path d="M463.592 3.90234L471.763 11.4633" stroke="#4862E0" stroke-miterlimit="10" stroke-linecap="round" stroke-linejoin="round"/>
<path d="M450.157 11.5581L457.718 11.5581V3.99719L450.157 3.99719V11.5581Z" stroke="#4862E0" stroke-miterlimit="10" stroke-linecap="round" stroke-linejoin="round"/>
<path d="M436.519 7.6828C436.519 9.75595 438.227 11.4633 440.3 11.4633C442.373 11.4633 444.08 9.75595 444.08 7.6828C444.08 5.60964 442.373 3.90234 440.3 3.90234C438.227 3.90234 436.519 5.60964 436.519 7.6828Z" stroke="#4862E0" stroke-miterlimit="10" stroke-linecap="round" stroke-linejoin="round"/>
<g opacity="0.3">
<path opacity="0.3" d="M498.413 441.581H415.852L373.414 392.436H436.34L498.413 441.581Z" fill="black"/>
</g>
<path d="M500.242 438.045H417.682L375.121 389.021H438.169L500.242 438.045Z" fill="#FFE100"/>
<path d="M395.365 395.483H431.584" stroke="#D99400" stroke-width="0.9707" stroke-miterlimit="10" stroke-linecap="round" stroke-linejoin="round"/>
<path d="M401.828 402.435H439.755" stroke="#D99400" stroke-width="0.9707" stroke-miterlimit="10" stroke-linecap="round" stroke-linejoin="round"/>
<path d="M408.901 409.874H448.657" stroke="#D99400" stroke-width="0.9707" stroke-miterlimit="10" stroke-linecap="round" stroke-linejoin="round"/>
<path d="M416.706 418.167H458.535" stroke="#D99400" stroke-width="0.9707" stroke-miterlimit="10" stroke-linecap="round" stroke-linejoin="round"/>
<path d="M425.364 427.312H469.388" stroke="#D99400" stroke-width="0.9707" stroke-miterlimit="10" stroke-linecap="round" stroke-linejoin="round"/>
<path opacity="0.3" d="M101.463 460.24H1.58545L75.8531 399.875H150.974L101.463 460.24Z" fill="black"/>
<path d="M99.9991 458.167H0L74.3896 397.923H149.511L99.9991 458.167Z" fill="#F7FFBF"/>
<g class="girl_1 handRight">
<path d="M108.902 420.118C108.902 420.118 97.4383 435.118 89.5115 444.874C81.5848 454.63 67.6824 452.923 61.8288 452.923C49.8777 452.923 52.4387 441.825 57.5606 431.947C64.0239 419.386 77.8043 411.947 85.3652 408.411C102.682 400.362 116.95 410.24 108.902 420.118Z" fill="#354FCC"/>
<path d="M64.2678 451.215C64.2678 451.215 65.7312 437.557 73.2921 429.142" stroke="#262F57" stroke-width="0.8044" stroke-miterlimit="10"/>
<path opacity="0.3" d="M89.7554 438.655C89.7554 438.655 100.243 433.777 102.926 421.948C102.926 421.948 144.267 402.68 156.828 393.777C169.389 384.875 183.291 370.241 186.95 364.875H151.096L89.6335 412.314L72.0726 436.216L71.4629 441.826C71.4629 441.826 84.5116 427.557 89.0237 431.46C91.3408 433.289 89.7554 438.655 89.7554 438.655Z" fill="black"/>
</g>
<path d="M277.803 32.0732C277.803 32.0732 297.436 24.5123 310.241 37.561C316.583 44.0243 320.729 53.2925 322.07 67.6827C323.412 82.0728 326.339 86.9508 332.314 96.4629C338.29 106.097 337.802 121.463 334.387 128.536H229.388C229.388 128.536 240.486 110.731 240.73 94.5117C240.852 78.2923 241.217 66.3412 242.803 55.8535C244.754 43.0487 253.291 28.7806 277.803 32.0732Z" fill="#262F57"/>
<path d="M262.437 80.3654C262.437 80.3654 259.388 74.5118 255.729 75.2435C252.071 75.9752 251.583 84.1458 253.778 87.5604C255.851 90.7312 260.729 92.3165 263.656 88.658L262.437 80.3654Z" fill="#FF6666"/>
<path d="M255.12 84.5118C254.632 81.4631 254.754 78.1704 256.461 78.0485C258.168 77.9265 261.461 83.1704 261.461 83.1704" stroke="#873636" stroke-width="0.7828" stroke-miterlimit="10"/>
<path d="M268.656 103.658C268.656 103.658 270.485 124.877 267.558 131.463C264.632 137.926 257.924 145.731 257.924 145.731L283.534 169.023L311.948 141.706C311.948 141.706 301.217 135.609 299.509 128.17C297.802 120.731 298.29 101.951 298.29 101.951L268.656 103.658Z" fill="#FF8685"/>
<path d="M298.29 102.072L268.656 103.658C268.656 103.658 269.022 107.804 269.144 113.048C270.607 115.121 274.144 118.17 281.827 119.633C292.558 121.828 295.485 126.706 299.388 127.438C297.924 119.633 298.29 102.072 298.29 102.072Z" fill="#FF6666"/>
<path d="M323.778 106.707C323.778 106.707 328.046 115.122 324.387 128.658" stroke="#4862E0" stroke-width="0.7828" stroke-miterlimit="10"/>
<path d="M313.168 106.707C313.168 106.707 317.436 115.122 313.778 128.658" stroke="#4862E0" stroke-width="0.7828" stroke-miterlimit="10"/>
<path d="M302.68 106.707C302.68 106.707 306.949 115.122 303.29 128.658" stroke="#4862E0" stroke-width="0.7828" stroke-miterlimit="10"/>
<path d="M247.193 106.707C247.193 106.707 244.51 121.463 238.412 128.658" stroke="#4862E0" stroke-width="0.7828" stroke-miterlimit="10"/>
<path d="M255.485 106.707C255.485 106.707 254.266 121.463 248.168 128.658" stroke="#4862E0" stroke-width="0.7828" stroke-miterlimit="10"/>
<path d="M264.388 106.707C264.388 106.707 263.9 121.463 257.803 128.658" stroke="#4862E0" stroke-width="0.7828" stroke-miterlimit="10"/>
<path d="M272.315 55.6093C272.315 55.6093 268.534 74.9994 259.998 76.9506C259.998 76.9506 261.339 86.8286 262.559 95.609C264.022 106.219 275.729 111.828 283.778 111.828C294.144 111.828 300.485 103.17 302.071 99.0236C302.802 97.0724 303.656 93.7797 304.266 90.8529C305.241 86.2188 304.754 81.4627 302.802 77.1945C299.997 70.8531 294.632 61.8288 285.973 55.8532C279.876 51.7069 277.681 56.463 277.681 56.463C277.681 56.463 273.656 49.3898 272.315 55.6093Z" fill="#FF8685"/>
<path d="M269.388 73.9017C271.949 71.7066 276.949 71.7066 279.266 73.9017" stroke="#873636" stroke-width="0.8509" stroke-miterlimit="10"/>
<path d="M296.095 73.9022C293.534 71.7071 288.534 71.7071 286.217 73.9022" stroke="#873636" stroke-width="0.8509" stroke-miterlimit="10"/>
<path d="M281.949 77.439C281.949 77.439 281.949 80.6097 280.12 82.4389C278.29 84.2682 279.266 85.1218 280.607 85.1218C281.949 85.1218 284.144 85.1218 284.144 85.1218" stroke="#873636" stroke-width="0.8509" stroke-miterlimit="10"/>
<path d="M273.29 89.9995L292.315 89.0239C292.315 89.0239 289.997 100.121 282.802 100.121C275.607 100.121 273.29 89.9995 273.29 89.9995Z" fill="#E6EAFF"/>
<path d="M280.729 104.39C280.729 104.39 284.144 103.292 286.583 104.39" stroke="#FF6666" stroke-width="0.8509" stroke-miterlimit="10"/>
<path d="M286.217 67.0731C286.217 67.0731 292.559 66.2194 298.046 68.4145" stroke="#262F57" stroke-width="2" stroke-miterlimit="10"/>
<path d="M279.388 67.0731C279.388 67.0731 273.046 66.2194 267.559 68.4145" stroke="#262F57" stroke-width="2" stroke-miterlimit="10"/>
<g class="girl_1 handRight_1">
<path d="M213.169 279.144C213.169 279.144 189.876 337.924 182.315 354.265C174.633 370.606 157.925 385.118 143.413 395.484C133.17 402.801 100.365 420.118 100.365 420.118C100.365 420.118 98.0479 428.655 93.7796 434.386C89.5113 440.118 84.7553 441.703 83.4138 441.094C81.9504 440.484 84.6333 438.533 86.8284 434.752C89.0236 430.972 90.243 428.655 87.6821 427.923C84.9992 427.191 81.0968 427.923 76.9505 434.264C72.8042 440.728 71.3408 442.801 70.1213 441.703C68.9018 440.606 70.1213 438.045 70.1213 438.045C70.1213 438.045 67.5603 442.069 66.3408 440.972C65.1213 439.996 65.4872 437.435 67.0725 434.142C68.5359 430.85 74.2676 423.167 74.2676 423.167C74.2676 423.167 69.2676 425.728 67.3164 428.533C65.3652 431.338 61.5848 440.24 59.2677 438.777C57.4384 437.679 58.4141 434.874 58.4141 434.874C58.4141 434.874 55.8531 434.386 56.7067 431.216C57.5604 428.045 60.2433 422.435 63.7799 417.191C67.3164 411.948 89.8772 403.411 89.8772 403.411L131.95 345.119L163.047 258.534L213.169 279.144Z" fill="#FF8685"/>
<path d="M162.925 258.657L158.779 270.12C164.51 278.413 171.34 279.51 177.437 284.754C189.754 295.242 190.242 312.071 197.925 317.437C205.73 298.169 213.169 279.266 213.169 279.266L162.925 258.657Z" fill="#FF6666"/>
<path d="M134.023 344.266C138.048 340.242 150.365 341.096 155.608 345.12" stroke="#873636" stroke-width="0.6036" stroke-miterlimit="10"/>
<path d="M100.975 414.753C100.975 414.753 100.853 417.558 96.0966 418.168" stroke="#FF6666" stroke-width="0.7828" stroke-miterlimit="10"/>

<path d="M58.1699 435.118C58.1699 435.118 61.2187 428.289 63.0479 425.85C64.8772 423.411 69.5113 419.875 69.5113 419.875" stroke="#FF6666" stroke-width="0.8044" stroke-miterlimit="10"/>
<path d="M69.7552 438.655C69.7552 438.655 72.9259 431.826 74.7551 429.631C76.5844 427.436 79.6332 424.143 79.6332 424.143" stroke="#FF6666" stroke-width="0.8044" stroke-miterlimit="10"/>
</g>
<g class="girl_1 handLeft">
<path d="M491.459 189.755C491.459 189.755 507.435 175.121 508.776 174.145C510.117 173.169 517.191 168.779 519.264 164.999C521.337 161.218 522.556 156.34 520.971 156.706C519.386 157.194 516.947 163.413 514.264 164.877C511.581 166.34 507.8 168.047 507.8 168.047C507.8 168.047 513.044 163.047 515.117 159.389C517.191 155.73 519.752 147.926 517.556 147.682C515.361 147.438 511.825 157.682 509.874 159.511C508.044 161.34 502.435 165.974 502.191 165.121C501.947 164.267 506.215 160.365 507.678 158.048C509.142 155.73 513.044 146.95 510.483 147.194C507.8 147.316 505.483 154.999 503.776 157.072C502.069 159.145 496.947 161.95 496.459 161.584C495.971 161.096 498.044 158.901 498.654 157.438C499.264 155.974 502.8 149.023 501.093 149.023C499.508 149.023 496.947 153.535 495.727 155.243C494.386 156.828 489.508 160.487 484.874 164.877C478.41 170.852 478.167 175.852 475.728 184.633C473.289 193.413 444.996 253.778 444.996 253.778L406.582 214.51L368.655 253.778C368.655 253.778 385.85 279.388 404.265 306.827C422.679 334.266 444.874 340.485 459.386 333.9C478.898 325.119 481.459 292.802 485.606 258.291C490.24 219.51 491.459 189.755 491.459 189.755Z" fill="#FF8685"/>
<path d="M474.386 184.633C474.386 184.633 481.459 189.633 492.679 190.852L492.313 198.291C492.313 198.291 482.313 199.389 471.703 191.462L474.386 184.633Z" fill="#4862E0"/>
<path d="M490.118 192.926C490.118 196.096 487.557 198.657 484.386 198.657C481.215 198.657 478.654 196.096 478.654 192.926C478.654 189.755 481.215 187.194 484.386 187.194C487.557 187.316 490.118 189.877 490.118 192.926Z" fill="#262F57"/>
<path d="M484.508 196.706C486.596 196.706 488.288 195.014 488.288 192.926C488.288 190.838 486.596 189.146 484.508 189.146C482.42 189.146 480.728 190.838 480.728 192.926C480.728 195.014 482.42 196.706 484.508 196.706Z" fill="#E6EAFF"/>
<path d="M483.289 190.487L484.508 192.926L485.849 191.95" stroke="#421B1B" stroke-width="0.6036" stroke-miterlimit="10"/>
<path d="M368.777 253.656C368.777 253.656 374.143 261.583 382.07 273.412C396.826 269.266 423.411 243.168 438.167 246.583L406.704 214.388L368.777 253.656Z" fill="#FF6666"/>
<path d="M445.118 253.657L433.289 278.291" stroke="#873636" stroke-width="0.6036" stroke-miterlimit="10"/>
<path d="M457.923 328.9C457.923 330.607 455.118 331.949 451.581 331.949C448.045 331.949 445.24 330.607 445.24 328.9C445.24 327.193 448.045 325.851 451.581 325.851C455.118 325.851 457.923 327.193 457.923 328.9Z" fill="#FF6666"/>
</g>
<path d="M409.143 202.804C404.753 199.877 406.216 197.56 401.582 190.73C396.948 183.901 386.704 183.657 383.533 177.682C380.363 171.706 375.241 164.145 356.948 156.828C338.656 149.511 318.656 144.267 318.656 144.267L311.948 131.707C311.948 131.707 304.144 143.414 289.388 145.487L283.046 164.877L278.29 145.243C263.778 142.804 257.925 133.048 257.925 133.048L251.583 143.536C251.583 143.536 210.852 159.999 198.779 172.804C192.803 179.145 186.218 190.365 183.413 197.56C180.608 204.755 176.096 206.95 169.877 214.023C163.657 221.096 163.901 231.828 156.34 237.071C148.779 242.315 144.267 254.876 144.267 254.876L214.876 286.461L224.51 260.608C224.51 260.608 237.559 306.827 237.315 319.388C237.071 331.949 231.461 363.29 231.461 363.29H349.143C349.143 363.29 345.241 333.534 343.899 320.12C342.558 306.705 356.216 248.291 356.216 248.291L373.411 268.413L426.826 217.194C424.143 210.608 413.411 205.73 409.143 202.804Z" fill="#F24693"/>
<path d="M276.827 147.682C276.827 147.682 271.827 154.755 269.51 171.096L254.022 146.584" stroke="#CF216D" stroke-width="0.7828" stroke-miterlimit="10"/>
<path d="M291.217 147.682C291.217 147.682 296.217 154.755 298.534 171.096L314.022 146.584" stroke="#CF216D" stroke-width="0.7828" stroke-miterlimit="10"/>
<path d="M404.387 239.022C379.143 240.12 361.582 229.632 361.582 229.632L356.46 248.291L373.655 268.412L404.387 239.022Z" fill="#CF216D"/>
<path d="M291.339 268.413C254.51 263.656 231.705 242.071 231.705 242.071L221.949 268.413C221.949 268.413 235.364 307.437 235.12 319.997C234.876 332.558 231.705 363.29 231.705 363.29H349.387C349.387 363.29 345.485 333.534 344.143 320.119C343.412 313.29 346.582 294.876 349.997 278.534C342.192 276.705 320.485 272.193 291.339 268.413Z" fill="#CF216D"/>
<path d="M222.803 265.73L238.534 223.901" stroke="#CF216D" stroke-width="0.7828" stroke-miterlimit="10"/>
<path d="M230.486 238.291C230.486 238.291 229.876 210.486 223.778 209.023C217.681 207.559 225.242 225.852 225.242 225.852" stroke="#CF216D" stroke-width="0.7828" stroke-miterlimit="10"/>
<path d="M228.9 239.632L216.096 227.803" stroke="#CF216D" stroke-width="0.7828" stroke-miterlimit="10"/>
<path d="M356.948 246.95L366.216 212.56" stroke="#CF216D" stroke-width="0.7828" stroke-miterlimit="10"/>
<path d="M362.924 234.145C369.387 219.999 382.314 216.462 381.46 210.609C380.607 204.755 371.704 213.17 369.509 219.999" stroke="#CF216D" stroke-width="0.7828" stroke-miterlimit="10"/>
<path d="M283.168 168.169C283.168 168.169 281.461 179.144 283.168 196.705C284.876 214.266 285.973 221.705 284.022 234.144C282.193 246.583 281.705 266.461 283.778 282.314C285.851 298.046 287.802 309.387 285.851 319.753C283.9 330.119 284.998 343.411 284.998 343.411" stroke="#78133F" stroke-width="0.7828" stroke-miterlimit="10"/>
<path d="M291.217 179.267C291.217 180.731 289.997 181.95 288.534 181.95C287.07 181.95 285.851 180.731 285.851 179.267C285.851 177.804 287.07 176.584 288.534 176.584C289.997 176.584 291.217 177.804 291.217 179.267Z" fill="white"/>
<path d="M291.949 223.413C291.949 224.876 290.729 226.096 289.266 226.096C287.802 226.096 286.583 224.876 286.583 223.413C286.583 221.949 287.802 220.73 289.266 220.73C290.851 220.73 291.949 221.949 291.949 223.413Z" fill="white"/>
<path d="M290.485 261.949C290.485 263.412 289.266 264.632 287.802 264.632C286.339 264.632 285.119 263.412 285.119 261.949C285.119 260.486 286.339 259.266 287.802 259.266C289.266 259.266 290.485 260.486 290.485 261.949Z" fill="white"/>
<path d="M345.729 215.852H307.802V220.486H345.729V215.852Z" fill="#78133F"/>
<path d="M345.729 222.438C345.729 222.438 345.729 233.657 345.729 239.754C345.729 250.608 335.851 256.827 326.826 256.827C317.802 256.827 307.924 253.657 307.924 241.584C307.924 238.535 307.924 228.657 307.924 228.657" stroke="#CF216D" stroke-width="0.7828" stroke-miterlimit="10"/>
<path d="M415.484 209.023L369.509 259.266" stroke="#78133F" stroke-width="0.7828" stroke-miterlimit="10"/>
<path d="M151.828 247.559L217.193 274.51" stroke="#78133F" stroke-width="0.7828" stroke-miterlimit="10"/>
<path d="M286.827 450.485C310.669 450.485 329.997 444.097 329.997 436.216C329.997 428.336 310.669 421.948 286.827 421.948C262.984 421.948 243.656 428.336 243.656 436.216C243.656 444.097 262.984 450.485 286.827 450.485Z" fill="#354FCC"/>
<path d="M268.778 438.046H304.876L309.388 424.021C302.802 422.68 295.12 421.948 286.827 421.948C278.534 421.948 270.851 422.68 264.266 424.021L268.778 438.046Z" fill="#262F57"/>
<path d="M367.314 399.874H206.218L199.877 279.144H373.656L367.314 399.874Z" fill="#354FCC"/>
<path d="M308.046 399.875L300.729 381.704H272.803L265.852 399.875H308.046Z" fill="#262F57"/>
<path d="M298.707 350.651C304.881 344.068 304.55 333.727 297.967 327.553C291.384 321.379 281.042 321.71 274.868 328.293C268.694 334.876 269.026 345.217 275.609 351.391C282.191 357.565 292.533 357.234 298.707 350.651Z" stroke="#9EAEFF" stroke-width="1.3846" stroke-miterlimit="10"/>
<path d="M304.754 441.703H268.778L272.803 380.728H300.729L304.754 441.703Z" fill="#354FCC"/>
<path d="M204.754 284.632H368.777" stroke="#9EAEFF" stroke-width="1.3846" stroke-miterlimit="10"/>
<path d="M272.803 380.728H290.607" stroke="#9EAEFF" stroke-width="1.3846" stroke-miterlimit="10"/>
<path d="M270.485 439.143H294.266" stroke="#9EAEFF" stroke-width="1.3846" stroke-miterlimit="10"/>
</svg>
