<svg width="21" height="22" viewBox="0 0 21 22" fill="none" xmlns="http://www.w3.org/2000/svg">
<path fill-rule="evenodd" clip-rule="evenodd" d="M10.3355 0.710823C7.76324 0.710823 7.35709 0.710823 6.27402 0.778515C5.19095 0.846207 4.37865 0.981591 3.76943 1.25236C3.09251 1.52313 2.48328 1.86158 1.94175 2.47081C1.33252 3.08004 0.994064 3.62157 0.723297 4.29849C0.45253 4.97541 0.317146 5.72002 0.249454 6.80308C0.181762 7.88615 0.181763 8.2923 0.181763 11.0677C0.181763 13.9107 0.181762 14.2492 0.249454 15.3322C0.317146 16.4153 0.45253 17.2276 0.723297 17.8368C0.994064 18.5138 1.33252 19.123 1.94175 19.6645C2.55097 20.2738 3.09251 20.6122 3.76943 20.883C4.44635 21.1537 5.19095 21.2891 6.27402 21.3568C7.35709 21.4245 7.76324 21.4245 10.5386 21.4245C13.3817 21.4245 13.7201 21.4245 14.8032 21.3568C15.8863 21.2891 16.6986 21.1537 17.3078 20.883C17.9847 20.6122 18.5939 20.2738 19.1355 19.6645C19.7447 19.0553 20.0831 18.5138 20.3539 17.8368C20.6247 17.1599 20.7601 16.4153 20.8278 15.3322C20.8954 14.2492 20.8955 13.9107 20.8955 11.2707V10.7292C20.8955 8.15692 20.8954 7.75077 20.8278 6.6677C20.7601 5.58463 20.6247 4.77233 20.3539 4.1631C20.0831 3.48619 19.7447 2.87696 19.1355 2.33543C18.5262 1.7262 17.9847 1.38774 17.3078 1.11697C16.6309 0.846207 15.8863 0.710823 14.8032 0.643131C13.7201 0.57544 13.3817 0.575439 10.7417 0.575439H10.3355V0.710823ZM17.4432 5.51694C17.4432 6.19386 16.9016 6.73539 16.2247 6.73539C15.5478 6.73539 15.0063 6.19386 15.0063 5.51694C15.0063 4.84002 15.5478 4.29849 16.2247 4.29849C16.8339 4.29849 17.4432 4.84002 17.4432 5.51694ZM10.6063 14.5199C8.71093 14.5199 7.15402 12.963 7.15402 11.0677C7.15402 9.1723 8.71093 7.61539 10.6063 7.61539C12.5017 7.61539 14.0586 9.1723 14.0586 11.0677C14.0586 12.963 12.5017 14.5199 10.6063 14.5199ZM10.6063 5.72001C13.5847 5.72001 15.9539 8.08923 15.9539 11.0677C15.9539 14.0461 13.5847 16.4153 10.6063 16.4153C7.62786 16.4153 5.25865 14.0461 5.25865 11.0677C5.25865 8.08923 7.69555 5.72001 10.6063 5.72001ZM10.6063 2.5385C13.3817 2.5385 13.7201 2.5385 14.8032 2.60619C15.8186 2.67389 16.3601 2.80927 16.7663 2.94465C17.2401 3.14773 17.5786 3.3508 17.9847 3.68926C18.3232 4.02772 18.5939 4.36618 18.7293 4.90771C18.8647 5.24617 19.0678 5.8554 19.0678 6.87078C19.1355 7.95384 19.1355 8.2923 19.1355 11.0677C19.1355 13.843 19.1355 14.1815 19.0678 15.2646C19.0001 16.2799 18.8647 16.8215 18.7293 17.2276C18.5262 17.7015 18.3232 18.0399 17.9847 18.4461C17.6462 18.7845 17.3078 19.0553 16.7663 19.1907C16.4278 19.3261 15.8186 19.5291 14.8032 19.5291C13.7201 19.5968 13.3817 19.5968 10.6063 19.5968C7.83094 19.5968 7.49248 19.5968 6.40941 19.5291C5.39403 19.4614 4.8525 19.3261 4.44635 19.1907C3.9725 18.9876 3.63404 18.7845 3.22789 18.4461C2.88943 18.1076 2.61867 17.7692 2.48328 17.2276C2.3479 16.8892 2.14482 16.2799 2.14482 15.2646C2.07713 14.1815 2.07713 13.843 2.07713 11.0677C2.07713 8.2923 2.07713 7.95384 2.14482 6.87078C2.21252 5.8554 2.3479 5.31386 2.48328 4.90771C2.68636 4.43387 2.88943 4.09541 3.22789 3.68926C3.56635 3.3508 3.90481 3.08004 4.44635 2.94465C4.7848 2.80927 5.39403 2.60619 6.40941 2.60619C7.49248 2.5385 7.83094 2.5385 10.6063 2.5385Z" fill="white"/>
</svg>
