<?xml version="1.0" encoding="utf-8"?>
<?xml-stylesheet href="../css/animation.css" type="text/css"?>

<svg width="27" height="40" viewBox="0 0 27 40" fill="none" xmlns="http://www.w3.org/2000/svg" class="lampSvg">
<path d="M15.2172 38.2045C15.2172 38.3559 15.1123 38.5784 14.7599 38.7898C14.4174 38.9953 13.9121 39.1386 13.3271 39.1386C12.7422 39.1386 12.2368 38.9953 11.8944 38.7898C11.5419 38.5784 11.4371 38.3559 11.4371 38.2045C11.4371 38.0532 11.5419 37.8307 11.8944 37.6193C12.2368 37.4138 12.7422 37.2705 13.3271 37.2705C13.9121 37.2705 14.4174 37.4138 14.7599 37.6193C15.1123 37.8307 15.2172 38.0532 15.2172 38.2045Z" fill="#354FCC" stroke="white"/>
<path d="M17.2469 38.2045H9.31186C8.92945 38.2045 8.54706 37.9177 8.54706 37.4397V33.998H17.9161V37.4397C18.0117 37.8221 17.7249 38.2045 17.2469 38.2045Z" fill="#262F57"/>
<path class="lampBg" d="M26.6157 13.6347C26.6157 5.79529 19.828 -0.418848 11.7974 0.441571C5.48767 1.11079 0.516374 6.3689 0.0383637 12.6786C-0.248443 16.5027 1.08996 19.9444 3.48002 22.5257C5.29646 24.5333 6.6349 26.9234 7.11292 29.6002L7.59093 32.1815C7.78213 33.3287 8.83376 34.1891 10.0766 34.1891H16.6731C17.916 34.1891 18.872 33.3287 19.1588 32.1815L19.4456 29.887C19.9236 27.2102 21.0708 24.7245 22.8873 22.8125C25.1817 20.4224 26.6157 17.1719 26.6157 13.6347Z" fill="#FFE100"/>
<path d="M8.64269 19.2754C8.64269 19.2754 8.45148 10.958 9.59871 10.958C10.8415 10.958 11.5107 16.2161 10.7459 16.0249C9.9811 15.8337 10.1723 10.958 11.7019 10.958C13.2316 10.958 13.9964 16.0249 13.0404 16.0249C12.0843 16.0249 13.0404 10.958 14.4744 10.958C15.9084 10.958 16.1952 16.0249 15.6216 16.0249C15.048 16.0249 15.3348 10.958 16.8644 10.958C18.4897 10.958 17.6293 19.2754 17.6293 19.2754" stroke="white" stroke-width="1.0217" stroke-miterlimit="10" stroke-linecap="round" stroke-linejoin="round"/>
</svg>
