<svg width="50" height="50" viewBox="0 0 50 50" fill="none" xmlns="http://www.w3.org/2000/svg">
<path d="M19.991 18.4786C14.7099 21.0562 9.97682 24.5552 5.99109 28.7889V10.3974L19.991 18.4786ZM0 49.9945C0 49.9945 0 50.0069 0 49.9945C2.35407 41.8136 7.09959 34.6288 13.4269 29.262L25.4091 49.9945H32.3343L18.2846 25.6883C23.0052 22.6998 28.3485 20.6204 34.078 19.674L0 0V49.9945Z" fill="white"/>
<path d="M40.5418 21.1064H49.9955V28.6025H22.2697L20.9993 26.3985C26.7786 23.1112 33.4422 21.1936 40.5418 21.1064Z" fill="white"/>
<path d="M30.02 42.498L34.367 49.9941H49.712V42.498H30.02Z" fill="white"/>
<path d="M3.98962 0L16.9806 7.5085H49.9999V0H3.98962Z" fill="white"/>
</svg>
