<?xml version="1.0" encoding="utf-8"?>
<?xml-stylesheet href="../css/animation.css" type="text/css"?>

<svg width="570" viewBox="0 0 570 469" fill="none" xmlns="http://www.w3.org/2000/svg">
<g opacity="0.5" class="aiBg">
<path d="M166.181 294.684C240.81 294.684 301.309 234.185 301.309 159.555C301.309 84.9259 240.81 24.4269 166.181 24.4269C91.5513 24.4269 31.0522 84.9259 31.0522 159.555C31.0522 234.185 91.5513 294.684 166.181 294.684Z" fill="#C4CDFF"/>
<path d="M355.467 468.391C437 468.391 503.097 402.295 503.097 320.761C503.097 239.227 437 173.131 355.467 173.131C273.933 173.131 207.836 239.227 207.836 320.761C207.836 402.295 273.933 468.391 355.467 468.391Z" fill="#C4CDFF"/>
<path d="M120.458 422.764C174.101 422.764 217.587 379.279 217.587 325.636C217.587 271.994 174.101 228.508 120.458 228.508C66.8159 228.508 23.3301 271.994 23.3301 325.636C23.3301 379.279 66.8159 422.764 120.458 422.764Z" fill="#C4CDFF"/>
<path d="M350.341 219.258C392.317 219.258 426.344 185.23 426.344 143.255C426.344 101.28 392.317 67.2523 350.341 67.2523C308.366 67.2523 274.339 101.28 274.339 143.255C274.339 185.23 308.366 219.258 350.341 219.258Z" fill="#C4CDFF"/>
<path d="M536.934 243.625C538.914 231.497 530.687 220.061 518.559 218.081C506.432 216.101 494.995 224.328 493.016 236.455C491.036 248.583 499.262 260.02 511.39 261.999C523.518 263.979 534.954 255.752 536.934 243.625Z" fill="#C4CDFF"/>
<path d="M342.716 60.0021C359.285 60.0021 372.717 46.5701 372.717 30.001C372.717 13.4319 359.285 0 342.716 0C326.147 0 312.715 13.4319 312.715 30.001C312.715 46.5701 326.147 60.0021 342.716 60.0021Z" fill="#C4CDFF"/>
<path d="M521.009 390.881C530.046 379.632 528.252 363.188 517.004 354.151C505.755 345.114 489.31 346.907 480.273 358.156C471.236 369.405 473.03 385.849 484.278 394.886C495.527 403.923 511.972 402.13 521.009 390.881Z" fill="#C4CDFF"/>
<path d="M62.9357 102.093C71.4045 92.8114 70.7454 78.4218 61.4637 69.9531C52.1821 61.4843 37.7925 62.1434 29.3238 71.4251C20.855 80.7068 21.514 95.0964 30.7957 103.565C40.0774 112.034 54.467 111.375 62.9357 102.093Z" fill="#C4CDFF"/>
</g>
<path d="M10.1584 456.218L570 456.218" stroke="#262F57" stroke-width="1.3436" stroke-miterlimit="10"/>
<g opacity="0.75" class="gear">
<path d="M343.313 446.063V457.702H386.749C386.749 438.864 401.988 423.625 420.826 423.625C439.664 423.625 454.903 438.864 454.903 457.702H498.459V446.063H475.901C474.461 439.223 471.701 432.744 467.982 427.105L483.94 411.146L467.502 394.708L451.543 410.666C445.784 406.946 439.424 404.187 432.585 402.747V380.189H409.307V402.747C402.468 404.187 395.988 406.946 390.349 410.666L374.39 394.708L357.952 411.146L373.91 427.105C370.191 432.864 367.431 439.223 365.991 446.063H343.313Z" fill="#6A80F2"/>
<path d="M36.9566 457.702H73.6732C66.9538 449.303 62.8742 438.504 62.8742 426.865C62.8742 399.627 84.9521 377.429 112.31 377.429C139.547 377.429 161.745 399.507 161.745 426.865C161.745 438.504 157.665 449.183 150.946 457.702H187.663C189.462 453.262 190.902 448.583 191.982 443.783H224.619V410.066H191.982C189.822 400.107 185.983 390.748 180.583 382.589L203.741 359.431L179.863 335.553L156.705 358.711C148.426 353.312 139.187 349.352 129.228 347.312V314.675H95.5111V347.312C85.5521 349.472 76.1929 353.312 68.0337 358.711L44.8758 335.553L20.9981 359.431L44.1559 382.589C38.7564 390.868 34.7968 400.107 32.757 410.066H0V443.783H32.637C33.7169 448.583 35.1567 453.262 36.9566 457.702Z" fill="#6A80F2"/>
</g>
<path d="M24.891 102.176C24.891 106.213 21.8149 109.419 17.9414 109.419C14.0678 109.419 10.9917 106.213 10.9917 102.176C10.9917 98.1389 14.0678 94.933 17.9414 94.933C21.8149 94.933 24.891 98.1389 24.891 102.176Z" stroke="#6A80F2" stroke-width="2" stroke-miterlimit="10"/>
<path d="M252.754 8.9682C252.754 13.0053 249.678 16.2112 245.805 16.2112C241.931 16.2112 238.855 13.0053 238.855 8.9682C238.855 4.93113 241.931 1.72522 245.805 1.72522C249.678 1.72522 252.754 4.93113 252.754 8.9682Z" stroke="#6A80F2" stroke-width="2" stroke-miterlimit="10"/>
<path d="M506.468 278.145C506.468 282.182 503.392 285.388 499.518 285.388C495.645 285.388 492.569 282.182 492.569 278.145C492.569 274.108 495.645 270.902 499.518 270.902C503.392 270.902 506.468 274.108 506.468 278.145Z" stroke="#6A80F2" stroke-width="2" stroke-miterlimit="10"/>
<path d="M11.7893 79.3788C16.2325 79.3788 16.2325 81.7535 20.7897 81.7535C25.3469 81.7535 25.2329 79.3788 29.7901 79.3788C34.2333 79.3788 34.2333 81.7535 38.7904 81.7535C43.2337 81.7535 43.2337 79.3788 47.7908 79.3788C52.2341 79.3788 52.234 81.7535 56.7912 81.7535C61.2344 81.7535 61.2344 79.3788 65.7916 79.3788C70.2348 79.3788 70.2348 81.7535 74.792 81.7535" stroke="#6A80F2" stroke-width="2" stroke-miterlimit="10"/>
<path d="M453.264 253.092C457.707 253.092 457.707 255.466 462.264 255.466C466.707 255.466 466.707 253.092 471.264 253.092C475.708 253.092 475.708 255.466 480.265 255.466C484.708 255.466 484.708 253.092 489.265 253.092C493.708 253.092 493.708 255.466 498.266 255.466C502.709 255.466 502.709 253.092 507.266 253.092C511.709 253.092 511.709 255.466 516.266 255.466" stroke="#6A80F2" stroke-width="2" stroke-miterlimit="10"/>
<path d="M394.021 31.1714C398.464 31.1714 398.464 33.5461 403.021 33.5461C407.578 33.5461 407.464 31.1714 412.021 31.1714C416.465 31.1714 416.465 33.5461 421.022 33.5461C425.465 33.5461 425.465 31.1714 430.022 31.1714C434.465 31.1714 434.465 33.5461 439.023 33.5461C443.466 33.5461 443.466 31.1714 448.023 31.1714C452.466 31.1714 452.466 33.5461 457.023 33.5461" stroke="#6A80F2" stroke-width="2" stroke-miterlimit="10"/>
<path d="M158.074 1.84338V16.2106" stroke="#6A80F2" stroke-width="2" stroke-miterlimit="10"/>
<path d="M164.909 8.96814H151.124" stroke="#6A80F2" stroke-width="2" stroke-miterlimit="10"/>
<path d="M64.5381 111.319V125.805" stroke="#6A80F2" stroke-width="2" stroke-miterlimit="10"/>
<path d="M71.4877 118.562H57.5884" stroke="#6A80F2" stroke-width="2" stroke-miterlimit="10"/>
<path d="M356.196 167.126V181.612" stroke="#6A80F2" stroke-width="2" stroke-miterlimit="10"/>
<path d="M363.145 174.368H349.246" stroke="#6A80F2" stroke-width="2" stroke-miterlimit="10"/>
<path d="M499.519 301.536V316.022" stroke="#6A80F2" stroke-width="2" stroke-miterlimit="10"/>
<path d="M506.468 308.78H492.569" stroke="#6A80F2" stroke-width="2" stroke-miterlimit="10"/>
<g class="track">
<path class="blackTrack" d="M259.97 269.788H149.477C146.844 269.788 144.717 267.661 144.717 265.028C144.717 262.394 146.844 260.268 149.477 260.268H259.97C262.604 260.268 264.73 262.394 264.73 265.028C264.73 267.661 262.604 269.788 259.97 269.788Z" fill="#262F57"/>
<path class="whiteTrack" d="M230.195 260.268H149.477C146.844 260.268 144.717 262.394 144.717 265.028C144.717 267.661 146.844 269.788 149.477 269.788H230.195V260.268Z" fill="white"/>
<path class="girl trumb" d="M233.031 272.725C237.282 272.725 240.728 269.279 240.728 265.028C240.728 260.777 237.282 257.331 233.031 257.331C228.78 257.331 225.334 260.777 225.334 265.028C225.334 269.279 228.78 272.725 233.031 272.725Z" fill="#FFE100"/>
</g>
<path d="M368.562 429.8C368.345 429.148 369.105 400.469 369.105 400.469L387.247 399.491L386.052 430.126L368.562 429.8Z" fill="#FF8685"/>
<path d="M362.698 407.6L392.354 409.338L396.482 240.305L359.764 245.411L362.698 407.6Z" fill="#212121"/>
<path d="M391.798 423.349L363.172 425.105L362.998 454.27L418.827 454.643L393.665 433.802L391.798 423.349Z" fill="#262F57"/>
<path d="M399.305 439.468L393.656 444.356" stroke="white" stroke-width="1.1459" stroke-miterlimit="10"/>
<path d="M402.781 442.727L396.372 447.833" stroke="white" stroke-width="1.1459" stroke-miterlimit="10"/>
<path d="M311.747 426.541C311.747 425.237 316.201 395.363 316.201 395.363L333.908 398.187L329.129 430.56L311.747 426.541Z" fill="#FF8685"/>
<path d="M306.061 421.849L335.836 424.095L335.577 454.369L277.396 454.051L303.939 432.815L306.061 421.849Z" fill="#262F57"/>
<path d="M300.449 436.14L305.789 441.422" stroke="white" stroke-width="1.1459" stroke-miterlimit="10"/>
<path d="M296.765 439.194L302.758 444.69" stroke="white" stroke-width="1.1459" stroke-miterlimit="10"/>
<path d="M372.256 270.76H360.849L339.231 407.964L308.705 404.271L327.064 245.775L372.256 243.493" fill="#212121"/>
<path d="M323.153 234.585L322.176 254.683C322.176 254.683 364.434 272.933 401.261 258.919L402.564 219.811V190.589L321.524 191.784L323.153 234.585Z" fill="#6A80F2"/>
<path d="M293.062 235.455C287.087 224.157 292.301 201.453 312.833 184.506C336.624 164.952 368.779 168.211 394.525 180.486C420.271 192.762 427.115 211.447 422.227 227.633C420.38 233.717 411.581 248.056 375.188 249.36L371.93 226.873C374.102 226.33 376.166 225.678 378.013 224.7C395.612 215.901 391.158 195.695 391.158 195.695L318.373 199.063L293.062 235.455Z" fill="#6A80F2"/>
<path d="M391.158 195.912C391.158 195.912 395.612 216.118 378.013 224.917C376.166 225.786 374.102 226.547 371.93 227.09L375.189 249.577C411.581 248.273 420.38 233.934 422.227 227.85C427.115 211.664 420.272 192.979 394.525 180.704C368.779 168.428 336.624 165.169 312.833 184.723C292.193 201.67 287.087 224.266 293.062 235.672" stroke="#354FCC" stroke-width="0.9525" stroke-miterlimit="10"/>
<path d="M368.562 227.742C352.919 230.349 332.061 225.678 323.371 223.288L309.465 228.937C308.922 229.589 308.705 230.132 308.705 230.132C308.705 230.132 320.872 248.491 365.52 249.686C367.367 249.686 369.105 249.686 370.735 249.686L368.562 227.742Z" fill="#FF8685"/>
<path d="M376.275 225.678C372.364 227.307 367.802 228.068 362.913 228.394L363.891 249.468C364.434 249.468 364.977 249.468 365.52 249.577C369.974 249.686 373.994 249.577 377.687 249.468L376.275 225.678Z" fill="#6A80F2" stroke="#354FCC" stroke-width="0.9525" stroke-miterlimit="10"/>
<path d="M362.913 231.979L376.492 230.566" stroke="#354FCC" stroke-width="0.9525" stroke-miterlimit="10"/>
<path d="M363.239 236.867L376.492 235.889" stroke="#354FCC" stroke-width="0.9525" stroke-miterlimit="10"/>
<path d="M363.239 241.321L377.144 240.669" stroke="#354FCC" stroke-width="0.9525" stroke-miterlimit="10"/>
<path d="M363.239 245.775L377.47 245.123" stroke="#354FCC" stroke-width="0.9525" stroke-miterlimit="10"/>
<path d="M363.458 174.705H358.461C356.288 174.705 354.55 172.966 354.55 170.794V156.889C354.55 154.716 356.288 152.978 358.461 152.978H363.458C365.631 152.978 367.369 154.716 367.369 156.889V170.794C367.369 172.858 365.631 174.705 363.458 174.705Z" fill="#FF8685"/>
<path d="M345.859 143.853C345.642 144.07 340.21 150.045 340.21 150.045L344.013 152L345.859 143.853Z" fill="#FF8685"/>
<path d="M344.23 154.064L343.469 152.326L346.837 134.944C346.837 134.944 358.026 134.401 360.959 136.139C364.001 137.986 357.809 155.476 357.157 158.301C356.505 161.125 352.703 159.604 350.748 159.713C348.793 159.93 344.23 154.064 344.23 154.064Z" fill="#FF8685"/>
<path d="M360.416 152.652C360.416 152.652 357.809 164.384 355.311 165.905C352.812 167.426 342.492 165.036 341.949 162.755C341.406 160.473 343.47 152.326 343.47 152.326C343.47 152.326 349.77 152.76 351.617 155.368C353.464 157.975 355.745 155.693 356.506 154.716C357.266 153.738 360.416 140.267 360.416 140.267C360.416 140.267 360.09 137.986 356.18 137.552C352.16 137.117 342.818 138.095 341.188 130.599C339.559 123.212 344.773 121.148 348.684 120.822C352.595 120.496 356.614 125.819 357.157 129.621C357.157 129.621 358.461 126.254 362.263 127.014C366.065 127.775 366.174 132.989 366.174 132.989C366.174 132.989 369.976 133.641 374.104 136.574C378.232 139.507 380.296 143.852 378.558 150.914C376.82 157.866 372.149 164.058 369.976 165.47C367.803 166.883 364.11 164.71 363.567 161.234C362.806 157.54 362.154 149.61 360.416 152.652Z" fill="#262F57"/>
<path d="M358.787 151.566C358.353 154.173 360.199 156.563 362.807 156.889C365.414 157.323 367.804 155.476 368.13 152.869C368.564 150.262 366.717 147.872 364.11 147.546C361.503 147.22 359.113 149.067 358.787 151.566Z" fill="#FF8685"/>
<path d="M362.48 153.955C363.458 154.281 364.653 153.738 364.979 152.652C365.305 151.565 364.762 150.479 363.675 150.153" stroke="#873636" stroke-width="0.4763" stroke-miterlimit="10"/>
<path d="M350.748 151.023C350.531 152.435 351.508 153.847 353.029 154.065C354.441 154.282 355.854 153.304 356.071 151.783C356.288 150.371 355.31 148.959 353.79 148.742C352.377 148.524 350.965 149.502 350.748 151.023Z" fill="#FF8685"/>
<path d="M350.531 146.677C350.422 147.329 350.856 147.872 351.508 147.981C352.16 148.09 352.703 147.655 352.812 147.003C352.92 146.352 352.486 145.808 351.834 145.7C351.182 145.591 350.639 146.026 350.531 146.677Z" fill="#873636"/>
<path d="M355.311 144.722L351.183 142.115" stroke="#262F57" stroke-width="0.9525" stroke-miterlimit="10"/>
<path d="M342.818 157.867C346.077 158.41 346.294 156.129 346.294 156.129L343.035 155.694L342.818 157.867Z" fill="white"/>
<g class="boy handLeft">
<path d="M326.521 214.923L300.015 210.578C299.58 211.664 299.037 212.642 298.711 213.62C293.823 225.461 291.759 232.522 293.714 239.257C293.931 240.126 295.452 247.296 306.424 249.36C317.396 251.424 325 239.8 325.978 230.675C326.413 227.09 326.304 221.333 326.521 214.923Z" fill="#6A80F2" stroke="#354FCC" stroke-width="0.9525" stroke-miterlimit="10"/>
<path d="M347.379 170.492C350.312 168.971 354.006 166.907 354.114 166.364C354.44 165.495 342.817 170.601 342.817 170.601C342.817 170.601 353.354 164.952 353.245 164.083C353.137 163.214 342.382 168.645 342.382 168.645C342.382 168.645 351.942 163.54 351.833 162.562C351.724 161.584 342.599 164.3 335.647 169.406C335.647 169.406 341.078 163.322 340.209 163.105C339.34 162.888 331.301 169.514 322.611 177.662C315.332 184.506 306.968 196.673 301.645 207.427L326.847 210.578C327.499 201.453 329.237 191.784 334.56 185.701C344.555 174.186 353.571 170.709 354.983 169.188C356.07 167.994 352.159 168.428 347.379 170.492Z" fill="#FF8685"/>
<path d="M298.82 213.511L326.521 218.943C326.63 215.466 326.739 211.555 327.173 207.645L303.817 203.408C301.753 206.884 300.123 210.36 298.82 213.511Z" fill="#6A80F2" stroke="#354FCC" stroke-width="0.9525" stroke-miterlimit="10"/>
<path d="M304.251 214.597L308.705 204.385" stroke="#354FCC" stroke-width="0.9525" stroke-miterlimit="10"/>
<path d="M313.485 205.363L310.335 216.009" stroke="#354FCC" stroke-width="0.9525" stroke-miterlimit="10"/>
<path d="M318.374 206.015L315.875 217.096" stroke="#354FCC" stroke-width="0.9525" stroke-miterlimit="10"/>
<path d="M324.131 207.101L322.176 218.073" stroke="#354FCC" stroke-width="0.9525" stroke-miterlimit="10"/>
</g>
<path d="M408.836 149.62L422.775 140.371C422.333 138.487 422.179 136.503 422.12 134.486C422.099 118.407 435.026 105.328 451.167 105.178C467.245 105.157 480.325 118.084 480.475 134.225C480.496 150.303 467.569 163.383 451.428 163.533C440.827 163.577 431.592 157.998 426.421 149.611L408.836 149.62Z" fill="#FFE100"/>
<path class="message" d="M467.287 127.409H436.904" stroke="#262F57" stroke-width="0.7828" stroke-miterlimit="10"/>
<path class="message del03" d="M467.287 133.283H436.904" stroke="#262F57" stroke-width="0.7828" stroke-miterlimit="10"/>
<path class="message del06" d="M467.287 139.259H436.904" stroke="#262F57" stroke-width="0.7828" stroke-miterlimit="10"/>
<path class="message del09" d="M467.287 145.234H436.904" stroke="#262F57" stroke-width="0.7828" stroke-miterlimit="10"/>
<g class="letter">
<path d="M264.543 94.2891H96.5901V209.309H264.543V94.2891Z" fill="#FFE100"/>
<path d="M257.776 101.852L180.566 181.848L103.356 101.852" stroke="#4862E0" stroke-width="1.052" stroke-miterlimit="10"/>
<path d="M151.91 151.999L103.355 202.146" stroke="#4862E0" stroke-width="1.052" stroke-miterlimit="10"/>
<path d="M257.776 202.146L209.221 151.999" stroke="#4862E0" stroke-width="1.052" stroke-miterlimit="10"/>
</g>
<path d="M14.0872 260.277H89.0324" stroke="#354FCC" stroke-width="2" stroke-miterlimit="10"/>
<path d="M14.0872 274.456H81.6391" stroke="#354FCC" stroke-width="2" stroke-miterlimit="10"/>
<path d="M14.0872 288.635H73.4357" stroke="#354FCC" stroke-width="2" stroke-miterlimit="10"/>
<path d="M14.0872 302.712H63.7131" stroke="#354FCC" stroke-width="2" stroke-miterlimit="10"/>
</svg>
