<svg width="25" height="25" viewBox="0 0 25 25" fill="none" xmlns="http://www.w3.org/2000/svg">
<path d="M5.93325 22.578C5.93325 22.1599 6.07262 21.707 5.89841 21.3934C5.7242 21.1146 5.2364 21.0101 4.88798 20.8359C3.04132 19.8603 1.61277 18.4666 0.881073 16.5154C0.56749 15.7489 0.462961 14.8778 0.323591 14.0416C0.18422 13.2054 0.149378 12.3691 0.114535 11.5329C0.0448497 9.7211 0.253906 7.90928 0.637174 6.1323C0.84623 5.12187 1.36887 4.2508 1.99604 3.48426C2.97163 2.26477 4.15628 1.25434 5.65451 0.766538C6.52558 0.487797 7.43149 0.348427 8.3374 0.243899C9.55689 0.104528 10.8112 0 12.0307 0C13.2502 0 14.4697 0.104528 15.6892 0.209056C16.4906 0.278741 17.292 0.418112 18.0933 0.592325C19.487 0.905909 20.6368 1.70729 21.6473 2.68288C22.6229 3.62363 23.4243 4.7386 23.703 6.09746C24.1211 8.08349 24.365 10.0695 24.1908 12.0904C24.0863 13.3099 23.9469 14.4945 23.7378 15.714C23.4939 17.1077 22.7274 18.1879 21.7518 19.1635C20.7414 20.2087 19.5916 21.045 18.1282 21.3585C17.0132 21.6024 15.8634 21.707 14.7484 21.8463C14.1561 21.916 13.5289 21.9509 12.9018 21.9509C12.2049 21.9509 11.4732 21.916 10.7764 21.916C10.6022 21.916 10.3583 22.0205 10.2189 22.1599C9.41752 22.9613 8.68582 23.7627 7.91929 24.5641C7.3618 25.1215 6.59527 25.1564 6.17715 24.5989C6.00294 24.355 5.93325 24.0066 5.89841 23.7278C5.89841 23.3097 5.93325 22.9613 5.93325 22.578ZM6.90885 21.4979C6.90885 21.8463 6.90885 22.1948 6.90885 22.5432C6.90885 22.8916 6.90885 23.24 6.90885 23.5885C6.90885 23.693 6.97853 23.8324 7.04822 23.8672C7.1179 23.902 7.25728 23.7975 7.32696 23.7278C7.39665 23.693 7.43149 23.6233 7.50117 23.5536C8.68582 22.3341 9.83563 21.1495 11.0203 19.9648C11.1596 19.8255 11.3687 19.7209 11.5778 19.7209C13.2502 19.7209 14.9227 19.5816 16.5951 19.3725C17.5707 19.2331 18.4766 18.9892 19.278 18.3621C20.3233 17.5258 21.2989 16.6199 21.5428 15.2611C21.7867 13.9719 21.926 12.6479 21.9957 11.3239C22.0306 10.2437 21.8912 9.12877 21.7867 8.04865C21.6821 6.89884 21.4034 5.78388 20.5672 4.84313C19.7309 3.90238 18.7902 3.03131 17.501 2.78741C16.2467 2.54351 14.9923 2.40414 13.7032 2.33446C11.6126 2.22993 9.4872 2.29961 7.43149 2.68288C5.20156 3.06615 3.66848 4.35533 2.90195 6.44589C2.55352 7.38664 2.48383 8.43192 2.41415 9.44235C2.34446 10.7315 2.37931 12.0556 2.48383 13.3447C2.51868 14.1113 2.6232 14.9126 2.90195 15.6443C3.52911 17.3516 4.78345 18.4666 6.45589 19.1286C6.76948 19.268 6.90885 19.4073 6.90885 19.7558C6.87401 20.2784 6.90885 20.9056 6.90885 21.4979Z" fill="white"/>
<path d="M13.1456 14.0763C13.285 14.0066 13.4592 13.9369 13.5986 13.8324C13.7728 13.693 13.8773 13.484 14.0515 13.3446C14.4 12.9962 14.8181 12.8568 15.2362 13.1007C16.0027 13.6233 16.7693 14.146 17.501 14.7383C17.7797 14.9474 17.8842 15.2609 17.71 15.6094C17.3267 16.4804 16.7693 17.1773 15.7937 17.456C15.6543 17.4909 15.5149 17.4909 15.3756 17.456C12.1352 16.3062 9.41746 14.4944 7.60565 11.4979C6.97848 10.4875 6.52553 9.37254 6.00289 8.29242C5.72415 7.76978 5.82867 7.28198 6.14226 6.79419C6.52553 6.2367 7.01332 5.81859 7.60565 5.53985C7.95407 5.36564 8.33734 5.40048 8.58124 5.71406C9.13872 6.41092 9.66136 7.14261 10.1492 7.90915C10.4976 8.46663 10.3234 8.91959 9.83558 9.3377C9.73105 9.40738 9.66136 9.47707 9.55683 9.54675C9.24325 9.79065 9.17357 10.1042 9.31294 10.4527C9.90526 12.0903 10.9854 13.3098 12.6578 13.9369C12.7972 14.0066 12.9366 14.0066 13.1456 14.0763Z" fill="white"/>
<path d="M18.1633 10.8709C18.1633 10.9754 18.233 11.1148 18.1982 11.2193C18.1285 11.3587 18.0239 11.5677 17.8846 11.6026C17.78 11.6374 17.5361 11.4284 17.5013 11.3239C17.3968 10.9754 17.3968 10.627 17.3619 10.2786C17.2226 8.22286 15.6546 6.27167 13.6686 5.78387C13.2505 5.67935 12.7975 5.6445 12.3446 5.57482C12.2401 5.57482 12.1704 5.53998 12.0658 5.53998C11.8219 5.50513 11.6477 5.43545 11.6477 5.15671C11.6826 4.84312 11.9265 4.77344 12.1704 4.77344C14.8533 4.87797 17.1529 6.41104 17.9194 9.16361C18.0588 9.72109 18.1285 10.3134 18.1982 10.8709C18.1982 10.8361 18.1982 10.8709 18.1633 10.8709Z" fill="white"/>
<path d="M16.6647 10.4876C16.6298 10.5573 16.6647 10.6966 16.595 10.7663C16.4905 10.8709 16.3511 11.0102 16.2117 11.0102C16.1072 11.0102 15.933 10.836 15.933 10.7315C15.8285 10.3482 15.8285 9.89526 15.7239 9.51199C15.3755 8.18797 14.2605 7.28206 12.8668 7.14269C12.7275 7.14269 12.6229 7.10785 12.4836 7.073C12.2745 7.03816 12.1351 6.89879 12.17 6.68973C12.2048 6.44584 12.379 6.34131 12.5881 6.34131C14.6438 6.48068 16.3859 7.76986 16.6298 10.0346C16.6298 10.1392 16.6647 10.3134 16.6647 10.4876Z" fill="white"/>
<path d="M13.076 7.90918C14.2606 7.94402 15.1665 8.95446 15.0968 10.0694C15.0968 10.3133 14.9923 10.5224 14.7484 10.4875C14.609 10.4527 14.4697 10.2785 14.3303 10.1391C14.2954 10.1043 14.3303 10.0346 14.3303 9.99974C14.1561 9.09383 13.9122 8.84993 12.9714 8.67572C12.7275 8.64088 12.5533 8.5015 12.5533 8.25761C12.5882 8.01371 12.7624 7.90918 13.0063 7.90918C13.076 7.90918 13.1108 7.90918 13.076 7.90918Z" fill="white"/>
</svg>
