<svg width="26" height="25" viewBox="0 0 26 25" fill="none" xmlns="http://www.w3.org/2000/svg">
<path d="M0.663757 25L2.42598 18.291C1.43913 16.4548 0.875224 14.4068 0.875224 12.3588C0.875224 5.50847 6.44384 0 13.2108 0C19.9777 0 25.5463 5.50847 25.5463 12.3588C25.5463 19.1384 20.0482 24.7175 13.2108 24.7175C11.1666 24.7175 9.19291 24.2232 7.3602 23.2345L0.663757 25ZM7.71264 20.6921L8.13558 20.9746C9.68633 21.8927 11.4486 22.387 13.2108 22.387C18.7089 22.387 23.2202 17.8672 23.2202 12.3588C23.2202 6.85028 18.7089 2.33051 13.2108 2.33051C7.71264 2.33051 3.20136 6.85028 3.20136 12.3588C3.20136 14.1949 3.69478 15.9605 4.68162 17.5141L4.96358 17.9379L3.97673 21.6808L7.71264 20.6921Z" fill="white"/>
<path fill-rule="evenodd" clip-rule="evenodd" d="M17.7925 14.0534C17.299 13.7709 16.5942 13.4178 16.0302 13.6296C15.5368 13.8415 15.2549 14.5477 14.9729 14.9008C14.8319 15.1127 14.6205 15.1127 14.409 15.0421C12.7173 14.3359 11.378 13.2059 10.3911 11.6522C10.2502 11.4404 10.2502 11.2285 10.4616 11.0166C10.7436 10.6635 11.096 10.3104 11.1665 9.81608C11.237 9.39235 11.0255 8.82738 10.8141 8.40365C10.6026 7.9093 10.3206 7.13247 9.75674 6.84998C9.26332 6.5675 8.62892 6.70874 8.20598 7.06185C7.5011 7.62682 7.14865 8.61552 7.14865 9.5336C7.14865 9.81608 7.21914 10.0279 7.21914 10.3104C7.36012 10.946 7.64207 11.511 7.99452 12.0053C8.20598 12.4291 8.48794 12.7822 8.76989 13.2059C9.68625 14.4771 10.8141 15.5364 12.1534 16.3839C12.7878 16.8076 13.5631 17.1607 14.268 17.3726C15.1139 17.6551 15.8188 17.9376 16.7351 17.7963C17.6515 17.5844 18.5678 17.0195 18.9908 16.1014C19.1318 15.8189 19.1318 15.5364 19.0613 15.2539C19.0613 14.689 18.2859 14.3359 17.7925 14.0534Z" fill="white"/>
</svg>
